999
"DXF R12 Output" (www.mydxf.blogspot.com)
 0 
SECTION
 2 
HEADER
 9 
$ACADVER
 1 
AC1009
 9 
$EXTMIN
 10 
 0 
 20 
 0 
 9 
$EXTMAX
 10 
 8.5 
 20 
 11 
 0 
ENDSEC
 0 
SECTION
 2 
ENTITIES
0
POLYLINE
8
Layer 1
62
7
70
0
10
0.000000
20
0.000000
66
1
0
VERTEX
8
Layer 1
10
622.826904
20
199.419983
70
0
0
VERTEX
8
Layer 1
10
619.585266
20
196.744881
70
0
0
VERTEX
8
Layer 1
10
621.695618
20
193.972542
70
0
0
VERTEX
8
Layer 1
10
623.806030
20
191.200203
70
0
0
VERTEX
8
Layer 1
10
627.141846
20
193.883271
70
0
0
VERTEX
8
Layer 1
10
630.477722
20
196.760979
70
0
0
VERTEX
8
Layer 1
10
629.865480
20
197.750079
70
0
0
VERTEX
8
Layer 1
10
628.498993
20
199.578074
70
0
0
VERTEX
8
Layer 1
10
627.083616
20
201.335793
70
0
0
VERTEX
8
Layer 1
10
626.324707
20
202.114067
70
0
0
VERTEX
8
Layer 1
10
622.826904
20
199.419983
70
0
0
VERTEX
8
Layer 1
10
622.826904
20
199.419983
70
0
0
SEQEND
8
Layer 1
0
POLYLINE
8
Layer 1
62
7
70
0
10
0.000000
20
0.000000
66
1
0
VERTEX
8
Layer 1
10
415.847412
20
228.147179
70
0
0
VERTEX
8
Layer 1
10
414.959412
20
224.616280
70
0
0
VERTEX
8
Layer 1
10
419.691665
20
224.453879
70
0
0
VERTEX
8
Layer 1
10
431.072021
20
224.439919
70
0
0
VERTEX
8
Layer 1
10
447.186584
20
224.531655
70
0
0
VERTEX
8
Layer 1
10
447.643677
20
226.295327
70
0
0
VERTEX
8
Layer 1
10
448.107605
20
228.323540
70
0
0
VERTEX
8
Layer 1
10
443.394646
20
228.510384
70
0
0
VERTEX
8
Layer 1
10
432.053955
20
228.588097
70
0
0
VERTEX
8
Layer 1
10
419.292698
20
228.496687
70
0
0
VERTEX
8
Layer 1
10
416.665006
20
228.361253
70
0
0
VERTEX
8
Layer 1
10
415.847412
20
228.147179
70
0
0
VERTEX
8
Layer 1
10
415.847412
20
228.147179
70
0
0
SEQEND
8
Layer 1
0
POLYLINE
8
Layer 1
62
7
70
0
10
0.000000
20
0.000000
66
1
0
VERTEX
8
Layer 1
10
280.283936
20
243.491097
70
0
0
VERTEX
8
Layer 1
10
280.914535
20
242.819739
70
0
0
VERTEX
8
Layer 1
10
281.304967
20
242.057007
70
0
0
VERTEX
8
Layer 1
10
281.363957
20
240.772047
70
0
0
VERTEX
8
Layer 1
10
281.000229
20
238.534004
70
0
0
VERTEX
8
Layer 1
10
278.639514
20
229.475254
70
0
0
VERTEX
8
Layer 1
10
273.492615
20
211.433922
70
0
0
VERTEX
8
Layer 1
10
268.583244
20
194.029001
70
0
0
VERTEX
8
Layer 1
10
266.245544
20
185.228852
70
0
0
VERTEX
8
Layer 1
10
265.540407
20
182.147473
70
0
0
VERTEX
8
Layer 1
10
264.672721
20
179.514691
70
0
0
VERTEX
8
Layer 1
10
263.633040
20
177.319303
70
0
0
VERTEX
8
Layer 1
10
262.411919
20
175.550106
70
0
0
VERTEX
8
Layer 1
10
260.999913
20
174.195898
70
0
0
VERTEX
8
Layer 1
10
259.387578
20
173.245475
70
0
0
VERTEX
8
Layer 1
10
257.565468
20
172.687636
70
0
0
VERTEX
8
Layer 1
10
255.524139
20
172.511177
70
0
0
VERTEX
8
Layer 1
10
254.373987
20
172.599393
70
0
0
VERTEX
8
Layer 1
10
253.302088
20
172.847034
70
0
0
VERTEX
8
Layer 1
10
252.319524
20
173.245928
70
0
0
VERTEX
8
Layer 1
10
251.437374
20
173.787905
70
0
0
VERTEX
8
Layer 1
10
250.666720
20
174.464793
70
0
0
VERTEX
8
Layer 1
10
250.018641
20
175.268420
70
0
0
VERTEX
8
Layer 1
10
249.504220
20
176.190615
70
0
0
VERTEX
8
Layer 1
10
249.134537
20
177.223206
70
0
0
VERTEX
8
Layer 1
10
248.909908
20
178.468677
70
0
0
VERTEX
8
Layer 1
10
248.853965
20
179.848828
70
0
0
VERTEX
8
Layer 1
10
249.196140
20
182.769112
70
0
0
VERTEX
8
Layer 1
10
250.057071
20
185.495939
70
0
0
VERTEX
8
Layer 1
10
250.649572
20
186.634269
70
0
0
VERTEX
8
Layer 1
10
251.332764
20
187.541191
70
0
0
VERTEX
8
Layer 1
10
251.737584
20
188.041302
70
0
0
VERTEX
8
Layer 1
10
251.766460
20
188.373299
70
0
0
VERTEX
8
Layer 1
10
251.365834
20
188.620650
70
0
0
VERTEX
8
Layer 1
10
250.482147
20
188.866822
70
0
0
VERTEX
8
Layer 1
10
249.487557
20
188.967157
70
0
0
VERTEX
8
Layer 1
10
248.478462
20
188.816434
70
0
0
VERTEX
8
Layer 1
10
247.486236
20
188.438015
70
0
0
VERTEX
8
Layer 1
10
246.542253
20
187.855259
70
0
0
VERTEX
8
Layer 1
10
245.677888
20
187.091528
70
0
0
VERTEX
8
Layer 1
10
244.924513
20
186.170182
70
0
0
VERTEX
8
Layer 1
10
244.313505
20
185.114583
70
0
0
VERTEX
8
Layer 1
10
243.876236
20
183.948090
70
0
0
VERTEX
8
Layer 1
10
243.550107
20
181.879311
70
0
0
VERTEX
8
Layer 1
10
243.617706
20
179.652271
70
0
0
VERTEX
8
Layer 1
10
244.049330
20
177.525997
70
0
0
VERTEX
8
Layer 1
10
244.815277
20
175.759514
70
0
0
VERTEX
8
Layer 1
10
245.905257
20
174.381704
70
0
0
VERTEX
8
Layer 1
10
247.354252
20
173.115519
70
0
0
VERTEX
8
Layer 1
10
249.006042
20
172.077071
70
0
0
VERTEX
8
Layer 1
10
250.704407
20
171.382469
70
0
0
VERTEX
8
Layer 1
10
252.159001
20
171.070537
70
0
0
VERTEX
8
Layer 1
10
253.756089
20
170.922594
70
0
0
VERTEX
8
Layer 1
10
257.177418
20
171.091801
70
0
0
VERTEX
8
Layer 1
10
260.567739
20
171.836342
70
0
0
VERTEX
8
Layer 1
10
262.126067
20
172.407567
70
0
0
VERTEX
8
Layer 1
10
263.526398
20
173.102471
70
0
0
VERTEX
8
Layer 1
10
264.902724
20
174.049294
70
0
0
VERTEX
8
Layer 1
10
266.265767
20
175.282708
70
0
0
VERTEX
8
Layer 1
10
267.602975
20
176.784309
70
0
0
VERTEX
8
Layer 1
10
268.901798
20
178.535694
70
0
0
VERTEX
8
Layer 1
10
270.149685
20
180.518457
70
0
0
VERTEX
8
Layer 1
10
271.334085
20
182.714196
70
0
0
VERTEX
8
Layer 1
10
272.442447
20
185.104506
70
0
0
VERTEX
8
Layer 1
10
273.462219
20
187.670983
70
0
0
VERTEX
8
Layer 1
10
282.104199
20
216.659103
70
0
0
VERTEX
8
Layer 1
10
290.089722
20
244.303109
70
0
0
VERTEX
8
Layer 1
10
284.732727
20
244.461113
70
0
0
VERTEX
8
Layer 1
10
279.375732
20
244.461113
70
0
0
VERTEX
8
Layer 1
10
280.283936
20
243.491097
70
0
0
VERTEX
8
Layer 1
10
280.283936
20
243.491097
70
0
0
SEQEND
8
Layer 1
0
POLYLINE
8
Layer 1
62
7
70
0
10
0.000000
20
0.000000
66
1
0
VERTEX
8
Layer 1
10
523.100220
20
245.321297
70
0
0
VERTEX
8
Layer 1
10
520.600838
20
244.610287
70
0
0
VERTEX
8
Layer 1
10
518.016907
20
243.581154
70
0
0
VERTEX
8
Layer 1
10
516.071492
20
242.568478
70
0
0
VERTEX
8
Layer 1
10
514.205539
20
241.418544
70
0
0
VERTEX
8
Layer 1
10
512.422815
20
240.137051
70
0
0
VERTEX
8
Layer 1
10
510.727087
20
238.729699
70
0
0
VERTEX
8
Layer 1
10
507.611685
20
235.560219
70
0
0
VERTEX
8
Layer 1
10
504.889465
20
231.955706
70
0
0
VERTEX
8
Layer 1
10
502.590563
20
227.961760
70
0
0
VERTEX
8
Layer 1
10
500.745111
20
223.623981
70
0
0
VERTEX
8
Layer 1
10
499.383244
20
218.987969
70
0
0
VERTEX
8
Layer 1
10
498.535095
20
214.099327
70
0
0
VERTEX
8
Layer 1
10
498.278695
20
210.364005
70
0
0
VERTEX
8
Layer 1
10
498.406457
20
206.920009
70
0
0
VERTEX
8
Layer 1
10
498.912092
20
203.783033
70
0
0
VERTEX
8
Layer 1
10
499.789314
20
200.968773
70
0
0
VERTEX
8
Layer 1
10
501.031834
20
198.492923
70
0
0
VERTEX
8
Layer 1
10
502.633365
20
196.371179
70
0
0
VERTEX
8
Layer 1
10
504.587618
20
194.619234
70
0
0
VERTEX
8
Layer 1
10
506.888306
20
193.252785
70
0
0
VERTEX
8
Layer 1
10
509.633962
20
192.237769
70
0
0
VERTEX
8
Layer 1
10
512.437499
20
191.750459
70
0
0
VERTEX
8
Layer 1
10
515.277484
20
191.784810
70
0
0
VERTEX
8
Layer 1
10
518.132485
20
192.334771
70
0
0
VERTEX
8
Layer 1
10
520.981068
20
193.394298
70
0
0
VERTEX
8
Layer 1
10
523.801801
20
194.957341
70
0
0
VERTEX
8
Layer 1
10
526.573252
20
197.017853
70
0
0
VERTEX
8
Layer 1
10
529.273987
20
199.569786
70
0
0
VERTEX
8
Layer 1
10
532.337342
20
203.170342
70
0
0
VERTEX
8
Layer 1
10
535.139633
20
207.229372
70
0
0
VERTEX
8
Layer 1
10
537.613914
20
211.639441
70
0
0
VERTEX
8
Layer 1
10
539.693237
20
216.293114
70
0
0
VERTEX
8
Layer 1
10
540.771606
20
218.588127
70
0
0
VERTEX
8
Layer 1
10
539.333984
20
212.324913
70
0
0
VERTEX
8
Layer 1
10
538.383436
20
208.368825
70
0
0
VERTEX
8
Layer 1
10
537.717833
20
205.019227
70
0
0
VERTEX
8
Layer 1
10
537.338881
20
202.209303
70
0
0
VERTEX
8
Layer 1
10
537.248283
20
199.872234
70
0
0
VERTEX
8
Layer 1
10
537.447745
20
197.941202
70
0
0
VERTEX
8
Layer 1
10
537.938970
20
196.349390
70
0
0
VERTEX
8
Layer 1
10
538.723663
20
195.029980
70
0
0
VERTEX
8
Layer 1
10
539.803528
20
193.916153
70
0
0
VERTEX
8
Layer 1
10
541.051522
20
193.069006
70
0
0
VERTEX
8
Layer 1
10
542.491089
20
192.504902
70
0
0
VERTEX
8
Layer 1
10
544.223671
20
192.195922
70
0
0
VERTEX
8
Layer 1
10
546.350708
20
192.114144
70
0
0
VERTEX
8
Layer 1
10
548.677587
20
192.290267
70
0
0
VERTEX
8
Layer 1
10
550.826287
20
192.806554
70
0
0
VERTEX
8
Layer 1
10
552.954650
20
193.715604
70
0
0
VERTEX
8
Layer 1
10
555.220520
20
195.070015
70
0
0
VERTEX
8
Layer 1
10
558.056259
20
197.096585
70
0
0
VERTEX
8
Layer 1
10
558.427755
20
197.569912
70
0
0
VERTEX
8
Layer 1
10
558.323853
20
197.884789
70
0
0
VERTEX
8
Layer 1
10
558.063432
20
197.946539
70
0
0
VERTEX
8
Layer 1
10
557.612862
20
197.820992
70
0
0
VERTEX
8
Layer 1
10
556.226440
20
197.042214
70
0
0
VERTEX
8
Layer 1
10
553.613272
20
195.641879
70
0
0
VERTEX
8
Layer 1
10
551.005729
20
194.875718
70
0
0
VERTEX
8
Layer 1
10
549.759855
20
194.740072
70
0
0
VERTEX
8
Layer 1
10
548.582333
20
194.774512
70
0
0
VERTEX
8
Layer 1
10
547.495478
20
194.982886
70
0
0
VERTEX
8
Layer 1
10
546.521606
20
195.369042
70
0
0
VERTEX
8
Layer 1
10
545.346060
20
196.289046
70
0
0
VERTEX
8
Layer 1
10
544.459770
20
197.627056
70
0
0
VERTEX
8
Layer 1
10
543.900998
20
199.303246
70
0
0
VERTEX
8
Layer 1
10
543.708008
20
201.237786
70
0
0
VERTEX
8
Layer 1
10
543.833004
20
203.145148
70
0
0
VERTEX
8
Layer 1
10
544.207277
20
205.624836
70
0
0
VERTEX
8
Layer 1
10
545.725174
20
212.385542
70
0
0
VERTEX
8
Layer 1
10
548.304739
20
221.688608
70
0
0
VERTEX
8
Layer 1
10
551.989014
20
233.702736
70
0
0
VERTEX
8
Layer 1
10
555.202454
20
243.855629
70
0
0
VERTEX
8
Layer 1
10
555.206965
20
244.196821
70
0
0
VERTEX
8
Layer 1
10
554.763291
20
244.373099
70
0
0
VERTEX
8
Layer 1
10
551.436646
20
244.384728
70
0
0
VERTEX
8
Layer 1
10
547.472778
20
244.284737
70
0
0
VERTEX
8
Layer 1
10
545.345154
20
236.789360
70
0
0
VERTEX
8
Layer 1
10
544.055127
20
232.450582
70
0
0
VERTEX
8
Layer 1
10
543.229164
20
230.242813
70
0
0
VERTEX
8
Layer 1
10
542.965439
20
229.890417
70
0
0
VERTEX
8
Layer 1
10
542.788009
20
230.013603
70
0
0
VERTEX
8
Layer 1
10
542.652405
20
231.610497
70
0
0
VERTEX
8
Layer 1
10
542.545500
20
232.905448
70
0
0
VERTEX
8
Layer 1
10
542.251359
20
234.326648
70
0
0
VERTEX
8
Layer 1
10
541.206154
20
237.309037
70
0
0
VERTEX
8
Layer 1
10
539.726359
20
240.080145
70
0
0
VERTEX
8
Layer 1
10
538.888981
20
241.237244
70
0
0
VERTEX
8
Layer 1
10
538.021545
20
242.162453
70
0
0
VERTEX
8
Layer 1
10
536.583233
20
243.297084
70
0
0
VERTEX
8
Layer 1
10
535.014223
20
244.222201
70
0
0
VERTEX
8
Layer 1
10
533.318884
20
244.936877
70
0
0
VERTEX
8
Layer 1
10
531.501587
20
245.440190
70
0
0
VERTEX
8
Layer 1
10
529.566702
20
245.731213
70
0
0
VERTEX
8
Layer 1
10
527.518599
20
245.809021
70
0
0
VERTEX
8
Layer 1
10
525.361648
20
245.672691
70
0
0
VERTEX
8
Layer 1
10
523.100220
20
245.321297
70
0
0
VERTEX
8
Layer 1
10
523.100220
20
245.321297
70
0
0
SEQEND
8
Layer 1
0
POLYLINE
8
Layer 1
62
7
70
0
10
0.000000
20
0.000000
66
1
0
VERTEX
8
Layer 1
10
532.009216
20
243.251427
70
0
0
VERTEX
8
Layer 1
10
533.598045
20
242.875947
70
0
0
VERTEX
8
Layer 1
10
535.060623
20
242.208632
70
0
0
VERTEX
8
Layer 1
10
536.449615
20
241.218877
70
0
0
VERTEX
8
Layer 1
10
537.817688
20
239.876076
70
0
0
VERTEX
8
Layer 1
10
539.299819
20
237.928472
70
0
0
VERTEX
8
Layer 1
10
540.294151
20
235.824904
70
0
0
VERTEX
8
Layer 1
10
540.884496
20
233.321750
70
0
0
VERTEX
8
Layer 1
10
541.154663
20
230.175392
70
0
0
VERTEX
8
Layer 1
10
541.127144
20
226.447531
70
0
0
VERTEX
8
Layer 1
10
540.564270
20
223.176415
70
0
0
VERTEX
8
Layer 1
10
539.316442
20
219.019738
70
0
0
VERTEX
8
Layer 1
10
537.579861
20
214.837201
70
0
0
VERTEX
8
Layer 1
10
535.439011
20
210.750092
70
0
0
VERTEX
8
Layer 1
10
532.978378
20
206.879700
70
0
0
VERTEX
8
Layer 1
10
530.282450
20
203.347315
70
0
0
VERTEX
8
Layer 1
10
527.435711
20
200.274227
70
0
0
VERTEX
8
Layer 1
10
524.522648
20
197.781725
70
0
0
VERTEX
8
Layer 1
10
523.067647
20
196.791096
70
0
0
VERTEX
8
Layer 1
10
521.627747
20
195.991097
70
0
0
VERTEX
8
Layer 1
10
519.824538
20
195.223249
70
0
0
VERTEX
8
Layer 1
10
518.096374
20
194.722219
70
0
0
VERTEX
8
Layer 1
10
516.443581
20
194.487971
70
0
0
VERTEX
8
Layer 1
10
514.866485
20
194.520470
70
0
0
VERTEX
8
Layer 1
10
513.365412
20
194.819681
70
0
0
VERTEX
8
Layer 1
10
511.940689
20
195.385568
70
0
0
VERTEX
8
Layer 1
10
510.592641
20
196.218096
70
0
0
VERTEX
8
Layer 1
10
509.321594
20
197.317231
70
0
0
VERTEX
8
Layer 1
10
507.987438
20
198.922565
70
0
0
VERTEX
8
Layer 1
10
506.929723
20
200.795399
70
0
0
VERTEX
8
Layer 1
10
506.148046
20
202.938526
70
0
0
VERTEX
8
Layer 1
10
505.642006
20
205.354739
70
0
0
VERTEX
8
Layer 1
10
505.411199
20
208.046831
70
0
0
VERTEX
8
Layer 1
10
505.455222
20
211.017593
70
0
0
VERTEX
8
Layer 1
10
505.773674
20
214.269818
70
0
0
VERTEX
8
Layer 1
10
506.366150
20
217.806298
70
0
0
VERTEX
8
Layer 1
10
506.931500
20
220.258963
70
0
0
VERTEX
8
Layer 1
10
507.638312
20
222.649472
70
0
0
VERTEX
8
Layer 1
10
509.440009
20
227.199663
70
0
0
VERTEX
8
Layer 1
10
511.698610
20
231.368157
70
0
0
VERTEX
8
Layer 1
10
514.341484
20
235.066237
70
0
0
VERTEX
8
Layer 1
10
515.784327
20
236.711148
70
0
0
VERTEX
8
Layer 1
10
517.296001
20
238.205186
70
0
0
VERTEX
8
Layer 1
10
518.867428
20
239.537263
70
0
0
VERTEX
8
Layer 1
10
520.489530
20
240.696289
70
0
0
VERTEX
8
Layer 1
10
522.153227
20
241.671174
70
0
0
VERTEX
8
Layer 1
10
523.849440
20
242.450828
70
0
0
VERTEX
8
Layer 1
10
525.569091
20
243.024163
70
0
0
VERTEX
8
Layer 1
10
527.303101
20
243.380089
70
0
0
VERTEX
8
Layer 1
10
529.356827
20
243.551695
70
0
0
VERTEX
8
Layer 1
10
532.009216
20
243.251427
70
0
0
VERTEX
8
Layer 1
10
532.009216
20
243.251427
70
0
0
SEQEND
8
Layer 1
0
POLYLINE
8
Layer 1
62
7
70
0
10
0.000000
20
0.000000
66
1
0
VERTEX
8
Layer 1
10
366.190552
20
245.509774
70
0
0
VERTEX
8
Layer 1
10
364.417961
20
244.904011
70
0
0
VERTEX
8
Layer 1
10
362.648712
20
244.000922
70
0
0
VERTEX
8
Layer 1
10
360.980766
20
242.858796
70
0
0
VERTEX
8
Layer 1
10
359.512085
20
241.535927
70
0
0
VERTEX
8
Layer 1
10
357.939173
20
239.551869
70
0
0
VERTEX
8
Layer 1
10
356.558762
20
237.261717
70
0
0
VERTEX
8
Layer 1
10
355.685255
20
235.263650
70
0
0
VERTEX
8
Layer 1
10
355.536842
20
234.561079
70
0
0
VERTEX
8
Layer 1
10
355.633057
20
234.155846
70
0
0
VERTEX
8
Layer 1
10
356.133240
20
233.902611
70
0
0
VERTEX
8
Layer 1
10
357.239868
20
236.082360
70
0
0
VERTEX
8
Layer 1
10
358.087103
20
237.605037
70
0
0
VERTEX
8
Layer 1
10
359.009717
20
238.935708
70
0
0
VERTEX
8
Layer 1
10
360.003274
20
240.070977
70
0
0
VERTEX
8
Layer 1
10
361.063339
20
241.007448
70
0
0
VERTEX
8
Layer 1
10
362.185477
20
241.741726
70
0
0
VERTEX
8
Layer 1
10
363.365252
20
242.270415
70
0
0
VERTEX
8
Layer 1
10
364.598230
20
242.590119
70
0
0
VERTEX
8
Layer 1
10
365.879974
20
242.697441
70
0
0
VERTEX
8
Layer 1
10
367.320017
20
242.589633
70
0
0
VERTEX
8
Layer 1
10
368.526364
20
242.228745
70
0
0
VERTEX
8
Layer 1
10
369.624626
20
241.558580
70
0
0
VERTEX
8
Layer 1
10
370.740417
20
240.522942
70
0
0
VERTEX
8
Layer 1
10
371.994873
20
238.895522
70
0
0
VERTEX
8
Layer 1
10
373.088025
20
236.849458
70
0
0
VERTEX
8
Layer 1
10
374.018037
20
234.392979
70
0
0
VERTEX
8
Layer 1
10
374.783073
20
231.534315
70
0
0
VERTEX
8
Layer 1
10
375.381297
20
228.281697
70
0
0
VERTEX
8
Layer 1
10
375.810874
20
224.643353
70
0
0
VERTEX
8
Layer 1
10
376.069966
20
220.627513
70
0
0
VERTEX
8
Layer 1
10
376.156738
20
216.242409
70
0
0
VERTEX
8
Layer 1
10
375.942693
20
209.492426
70
0
0
VERTEX
8
Layer 1
10
375.286018
20
203.346189
70
0
0
VERTEX
8
Layer 1
10
374.164908
20
197.658523
70
0
0
VERTEX
8
Layer 1
10
372.557556
20
192.284256
70
0
0
VERTEX
8
Layer 1
10
370.804397
20
187.973029
70
0
0
VERTEX
8
Layer 1
10
368.759362
20
184.100032
70
0
0
VERTEX
8
Layer 1
10
366.464242
20
180.707094
70
0
0
VERTEX
8
Layer 1
10
363.960823
20
177.836045
70
0
0
VERTEX
8
Layer 1
10
361.290896
20
175.528713
70
0
0
VERTEX
8
Layer 1
10
358.496249
20
173.826927
70
0
0
VERTEX
8
Layer 1
10
357.065215
20
173.216186
70
0
0
VERTEX
8
Layer 1
10
355.618671
20
172.772517
70
0
0
VERTEX
8
Layer 1
10
354.161842
20
172.501149
70
0
0
VERTEX
8
Layer 1
10
352.699951
20
172.407311
70
0
0
VERTEX
8
Layer 1
10
350.193147
20
172.638629
70
0
0
VERTEX
8
Layer 1
10
348.102226
20
173.336630
70
0
0
VERTEX
8
Layer 1
10
347.220578
20
173.856751
70
0
0
VERTEX
8
Layer 1
10
346.452326
20
174.488879
70
0
0
VERTEX
8
Layer 1
10
345.800615
20
175.231460
70
0
0
VERTEX
8
Layer 1
10
345.268585
20
176.082939
70
0
0
VERTEX
8
Layer 1
10
344.769092
20
177.219608
70
0
0
VERTEX
8
Layer 1
10
344.434121
20
178.375736
70
0
0
VERTEX
8
Layer 1
10
344.256342
20
179.538520
70
0
0
VERTEX
8
Layer 1
10
344.228421
20
180.695155
70
0
0
VERTEX
8
Layer 1
10
344.592833
20
182.938766
70
0
0
VERTEX
8
Layer 1
10
345.468704
20
185.004140
70
0
0
VERTEX
8
Layer 1
10
346.797384
20
186.788845
70
0
0
VERTEX
8
Layer 1
10
348.520221
20
188.190453
70
0
0
VERTEX
8
Layer 1
10
349.511119
20
188.715586
70
0
0
VERTEX
8
Layer 1
10
350.578562
20
189.106533
70
0
0
VERTEX
8
Layer 1
10
351.715219
20
189.350490
70
0
0
VERTEX
8
Layer 1
10
352.913757
20
189.434655
70
0
0
VERTEX
8
Layer 1
10
354.645550
20
189.544881
70
0
0
VERTEX
8
Layer 1
10
354.804809
20
189.781873
70
0
0
VERTEX
8
Layer 1
10
354.690369
20
190.228302
70
0
0
VERTEX
8
Layer 1
10
354.034409
20
191.029474
70
0
0
VERTEX
8
Layer 1
10
352.849915
20
191.841210
70
0
0
VERTEX
8
Layer 1
10
351.207996
20
192.466381
70
0
0
VERTEX
8
Layer 1
10
349.317993
20
192.497124
70
0
0
VERTEX
8
Layer 1
10
347.772165
20
192.244001
70
0
0
VERTEX
8
Layer 1
10
346.338446
20
191.755887
70
0
0
VERTEX
8
Layer 1
10
345.027022
20
191.042281
70
0
0
VERTEX
8
Layer 1
10
343.848080
20
190.112682
70
0
0
VERTEX
8
Layer 1
10
342.811803
20
188.976586
70
0
0
VERTEX
8
Layer 1
10
341.928379
20
187.643492
70
0
0
VERTEX
8
Layer 1
10
341.207992
20
186.122897
70
0
0
VERTEX
8
Layer 1
10
340.660828
20
184.424301
70
0
0
VERTEX
8
Layer 1
10
340.327090
20
182.401109
70
0
0
VERTEX
8
Layer 1
10
340.358627
20
180.433315
70
0
0
VERTEX
8
Layer 1
10
340.737331
20
178.555984
70
0
0
VERTEX
8
Layer 1
10
341.445095
20
176.804179
70
0
0
VERTEX
8
Layer 1
10
342.463811
20
175.212965
70
0
0
VERTEX
8
Layer 1
10
343.775370
20
173.817407
70
0
0
VERTEX
8
Layer 1
10
345.361666
20
172.652570
70
0
0
VERTEX
8
Layer 1
10
347.204590
20
171.753517
70
0
0
VERTEX
8
Layer 1
10
349.546797
20
171.171702
70
0
0
VERTEX
8
Layer 1
10
352.316040
20
170.976355
70
0
0
VERTEX
8
Layer 1
10
355.182055
20
171.167712
70
0
0
VERTEX
8
Layer 1
10
357.814575
20
171.746010
70
0
0
VERTEX
8
Layer 1
10
360.241630
20
172.728820
70
0
0
VERTEX
8
Layer 1
10
363.016533
20
174.197703
70
0
0
VERTEX
8
Layer 1
10
365.944226
20
176.039420
70
0
0
VERTEX
8
Layer 1
10
368.829651
20
178.140732
70
0
0
VERTEX
8
Layer 1
10
373.427149
20
182.247648
70
0
0
VERTEX
8
Layer 1
10
379.790024
20
188.473243
70
0
0
VERTEX
8
Layer 1
10
386.068281
20
194.957474
70
0
0
VERTEX
8
Layer 1
10
390.411926
20
199.840294
70
0
0
VERTEX
8
Layer 1
10
394.993136
20
206.003612
70
0
0
VERTEX
8
Layer 1
10
399.044388
20
212.284231
70
0
0
VERTEX
8
Layer 1
10
402.387273
20
218.383448
70
0
0
VERTEX
8
Layer 1
10
403.737326
20
221.271685
70
0
0
VERTEX
8
Layer 1
10
404.843384
20
224.002556
70
0
0
VERTEX
8
Layer 1
10
405.985928
20
227.459997
70
0
0
VERTEX
8
Layer 1
10
406.728431
20
230.634167
70
0
0
VERTEX
8
Layer 1
10
407.101761
20
233.697587
70
0
0
VERTEX
8
Layer 1
10
407.136780
20
236.822777
70
0
0
VERTEX
8
Layer 1
10
406.846779
20
240.114081
70
0
0
VERTEX
8
Layer 1
10
406.516369
20
241.175932
70
0
0
VERTEX
8
Layer 1
10
405.969604
20
242.282479
70
0
0
VERTEX
8
Layer 1
10
404.935264
20
243.871900
70
0
0
VERTEX
8
Layer 1
10
403.828209
20
244.927839
70
0
0
VERTEX
8
Layer 1
10
402.555568
20
245.514396
70
0
0
VERTEX
8
Layer 1
10
401.024475
20
245.695671
70
0
0
VERTEX
8
Layer 1
10
399.403892
20
245.509998
70
0
0
VERTEX
8
Layer 1
10
398.122742
20
244.883934
70
0
0
VERTEX
8
Layer 1
10
396.984680
20
244.072197
70
0
0
VERTEX
8
Layer 1
10
398.196777
20
243.007958
70
0
0
VERTEX
8
Layer 1
10
399.335846
20
241.677849
70
0
0
VERTEX
8
Layer 1
10
400.372375
20
239.974388
70
0
0
VERTEX
8
Layer 1
10
400.878565
20
238.812135
70
0
0
VERTEX
8
Layer 1
10
401.192276
20
237.654662
70
0
0
VERTEX
8
Layer 1
10
401.487122
20
234.053688
70
0
0
VERTEX
8
Layer 1
10
401.467140
20
230.360224
70
0
0
VERTEX
8
Layer 1
10
401.060303
20
227.249367
70
0
0
VERTEX
8
Layer 1
10
400.007171
20
223.128327
70
0
0
VERTEX
8
Layer 1
10
398.503503
20
218.874561
70
0
0
VERTEX
8
Layer 1
10
396.578476
20
214.538940
70
0
0
VERTEX
8
Layer 1
10
394.261269
20
210.172336
70
0
0
VERTEX
8
Layer 1
10
391.581057
20
205.825622
70
0
0
VERTEX
8
Layer 1
10
388.567020
20
201.549669
70
0
0
VERTEX
8
Layer 1
10
385.248333
20
197.395349
70
0
0
VERTEX
8
Layer 1
10
381.654175
20
193.413536
70
0
0
VERTEX
8
Layer 1
10
378.007568
20
189.613663
70
0
0
VERTEX
8
Layer 1
10
379.401123
20
193.788674
70
0
0
VERTEX
8
Layer 1
10
380.392895
20
197.013527
70
0
0
VERTEX
8
Layer 1
10
381.227484
20
200.284407
70
0
0
VERTEX
8
Layer 1
10
381.907987
20
203.625060
70
0
0
VERTEX
8
Layer 1
10
382.437500
20
207.059236
70
0
0
VERTEX
8
Layer 1
10
382.819122
20
210.610681
70
0
0
VERTEX
8
Layer 1
10
383.055948
20
214.303143
70
0
0
VERTEX
8
Layer 1
10
383.107605
20
222.206108
70
0
0
VERTEX
8
Layer 1
10
382.839501
20
227.746854
70
0
0
VERTEX
8
Layer 1
10
382.326309
20
232.051474
70
0
0
VERTEX
8
Layer 1
10
381.495773
20
235.539028
70
0
0
VERTEX
8
Layer 1
10
380.275635
20
238.628578
70
0
0
VERTEX
8
Layer 1
10
379.402061
20
240.245904
70
0
0
VERTEX
8
Layer 1
10
378.416942
20
241.651088
70
0
0
VERTEX
8
Layer 1
10
377.317408
20
242.846114
70
0
0
VERTEX
8
Layer 1
10
376.100594
20
243.832966
70
0
0
VERTEX
8
Layer 1
10
374.763630
20
244.613629
70
0
0
VERTEX
8
Layer 1
10
373.303651
20
245.190086
70
0
0
VERTEX
8
Layer 1
10
371.717788
20
245.564321
70
0
0
VERTEX
8
Layer 1
10
370.003174
20
245.738320
70
0
0
VERTEX
8
Layer 1
10
367.856754
20
245.714169
70
0
0
VERTEX
8
Layer 1
10
366.190552
20
245.509774
70
0
0
VERTEX
8
Layer 1
10
366.190552
20
245.509774
70
0
0
SEQEND
8
Layer 1
0
POLYLINE
8
Layer 1
62
7
70
0
10
0.000000
20
0.000000
66
1
0
VERTEX
8
Layer 1
10
318.027954
20
245.478691
70
0
0
VERTEX
8
Layer 1
10
315.770098
20
244.927083
70
0
0
VERTEX
8
Layer 1
10
313.286281
20
244.023898
70
0
0
VERTEX
8
Layer 1
10
310.802963
20
242.863222
70
0
0
VERTEX
8
Layer 1
10
308.546600
20
241.539147
70
0
0
VERTEX
8
Layer 1
10
306.773428
20
240.262921
70
0
0
VERTEX
8
Layer 1
10
305.082944
20
238.850719
70
0
0
VERTEX
8
Layer 1
10
301.967669
20
235.653488
70
0
0
VERTEX
8
Layer 1
10
299.236032
20
232.017660
70
0
0
VERTEX
8
Layer 1
10
296.923290
20
228.013443
70
0
0
VERTEX
8
Layer 1
10
295.064700
20
223.711045
70
0
0
VERTEX
8
Layer 1
10
293.695518
20
219.180673
70
0
0
VERTEX
8
Layer 1
10
292.851001
20
214.492534
70
0
0
VERTEX
8
Layer 1
10
292.566406
20
209.716835
70
0
0
VERTEX
8
Layer 1
10
292.791605
20
206.131435
70
0
0
VERTEX
8
Layer 1
10
293.445675
20
202.891004
70
0
0
VERTEX
8
Layer 1
10
294.513014
20
200.017038
70
0
0
VERTEX
8
Layer 1
10
295.978020
20
197.531031
70
0
0
VERTEX
8
Layer 1
10
297.825089
20
195.454477
70
0
0
VERTEX
8
Layer 1
10
300.038620
20
193.808870
70
0
0
VERTEX
8
Layer 1
10
302.603010
20
192.615706
70
0
0
VERTEX
8
Layer 1
10
305.502655
20
191.896477
70
0
0
VERTEX
8
Layer 1
10
307.487422
20
191.716723
70
0
0
VERTEX
8
Layer 1
10
309.474914
20
191.788510
70
0
0
VERTEX
8
Layer 1
10
311.458538
20
192.106225
70
0
0
VERTEX
8
Layer 1
10
313.431705
20
192.664259
70
0
0
VERTEX
8
Layer 1
10
315.387820
20
193.457001
70
0
0
VERTEX
8
Layer 1
10
317.320293
20
194.478838
70
0
0
VERTEX
8
Layer 1
10
319.222532
20
195.724161
70
0
0
VERTEX
8
Layer 1
10
321.087944
20
197.187359
70
0
0
VERTEX
8
Layer 1
10
322.909938
20
198.862820
70
0
0
VERTEX
8
Layer 1
10
324.681923
20
200.744934
70
0
0
VERTEX
8
Layer 1
10
326.397305
20
202.828090
70
0
0
VERTEX
8
Layer 1
10
328.049493
20
205.106676
70
0
0
VERTEX
8
Layer 1
10
329.631896
20
207.575082
70
0
0
VERTEX
8
Layer 1
10
331.137920
20
210.227698
70
0
0
VERTEX
8
Layer 1
10
332.560976
20
213.058911
70
0
0
VERTEX
8
Layer 1
10
333.894470
20
216.063111
70
0
0
VERTEX
8
Layer 1
10
334.832363
20
218.231349
70
0
0
VERTEX
8
Layer 1
10
335.228790
20
218.982277
70
0
0
VERTEX
8
Layer 1
10
333.652344
20
212.480820
70
0
0
VERTEX
8
Layer 1
10
332.410088
20
207.235215
70
0
0
VERTEX
8
Layer 1
10
331.693485
20
203.255184
70
0
0
VERTEX
8
Layer 1
10
331.466421
20
200.274283
70
0
0
VERTEX
8
Layer 1
10
331.692780
20
198.026070
70
0
0
VERTEX
8
Layer 1
10
332.006894
20
196.966126
70
0
0
VERTEX
8
Layer 1
10
332.448191
20
196.002517
70
0
0
VERTEX
8
Layer 1
10
333.008570
20
195.137398
70
0
0
VERTEX
8
Layer 1
10
333.679930
20
194.372927
70
0
0
VERTEX
8
Layer 1
10
335.323182
20
193.154550
70
0
0
VERTEX
8
Layer 1
10
337.313137
20
192.364632
70
0
0
VERTEX
8
Layer 1
10
339.584982
20
192.020422
70
0
0
VERTEX
8
Layer 1
10
342.073903
20
192.139166
70
0
0
VERTEX
8
Layer 1
10
344.715088
20
192.738114
70
0
0
VERTEX
8
Layer 1
10
347.443726
20
193.834511
70
0
0
VERTEX
8
Layer 1
10
349.448365
20
194.977773
70
0
0
VERTEX
8
Layer 1
10
351.256256
20
196.261522
70
0
0
VERTEX
8
Layer 1
10
352.466126
20
197.367937
70
0
0
VERTEX
8
Layer 1
10
352.721403
20
197.755325
70
0
0
VERTEX
8
Layer 1
10
352.676697
20
197.979195
70
0
0
VERTEX
8
Layer 1
10
351.776653
20
197.716705
70
0
0
VERTEX
8
Layer 1
10
350.075409
20
196.803597
70
0
0
VERTEX
8
Layer 1
10
347.462221
20
195.482053
70
0
0
VERTEX
8
Layer 1
10
345.044784
20
194.795762
70
0
0
VERTEX
8
Layer 1
10
343.916622
20
194.691974
70
0
0
VERTEX
8
Layer 1
10
342.845976
20
194.748363
70
0
0
VERTEX
8
Layer 1
10
341.835706
20
194.965383
70
0
0
VERTEX
8
Layer 1
10
340.888672
20
195.343491
70
0
0
VERTEX
8
Layer 1
10
340.150961
20
195.789024
70
0
0
VERTEX
8
Layer 1
10
339.524271
20
196.339807
70
0
0
VERTEX
8
Layer 1
10
339.009728
20
197.010475
70
0
0
VERTEX
8
Layer 1
10
338.608457
20
197.815662
70
0
0
VERTEX
8
Layer 1
10
338.150231
20
199.888127
70
0
0
VERTEX
8
Layer 1
10
338.158596
20
202.674273
70
0
0
VERTEX
8
Layer 1
10
338.642552
20
206.291170
70
0
0
VERTEX
8
Layer 1
10
339.611103
20
210.855890
70
0
0
VERTEX
8
Layer 1
10
341.073250
20
216.485503
70
0
0
VERTEX
8
Layer 1
10
343.037994
20
223.297081
70
0
0
VERTEX
8
Layer 1
10
349.599121
20
243.997063
70
0
0
VERTEX
8
Layer 1
10
349.505672
20
244.224294
70
0
0
VERTEX
8
Layer 1
10
348.925369
20
244.366560
70
0
0
VERTEX
8
Layer 1
10
345.771179
20
244.460747
70
0
0
VERTEX
8
Layer 1
10
341.765198
20
244.460381
70
0
0
VERTEX
8
Layer 1
10
339.665894
20
237.030220
70
0
0
VERTEX
8
Layer 1
10
338.100521
20
231.731537
70
0
0
VERTEX
8
Layer 1
10
337.284943
20
229.425988
70
0
0
VERTEX
8
Layer 1
10
337.084495
20
229.749535
70
0
0
VERTEX
8
Layer 1
10
336.998077
20
230.771859
70
0
0
VERTEX
8
Layer 1
10
336.841240
20
232.494898
70
0
0
VERTEX
8
Layer 1
10
336.471497
20
234.503136
70
0
0
VERTEX
8
Layer 1
10
335.496703
20
237.487415
70
0
0
VERTEX
8
Layer 1
10
334.094974
20
240.038847
70
0
0
VERTEX
8
Layer 1
10
332.289687
20
242.143523
70
0
0
VERTEX
8
Layer 1
10
330.104214
20
243.787531
70
0
0
VERTEX
8
Layer 1
10
327.561930
20
244.956962
70
0
0
VERTEX
8
Layer 1
10
324.686209
20
245.637906
70
0
0
VERTEX
8
Layer 1
10
321.500426
20
245.816452
70
0
0
VERTEX
8
Layer 1
10
318.027954
20
245.478691
70
0
0
VERTEX
8
Layer 1
10
318.027954
20
245.478691
70
0
0
SEQEND
8
Layer 1
0
POLYLINE
8
Layer 1
62
7
70
0
10
0.000000
20
0.000000
66
1
0
VERTEX
8
Layer 1
10
327.909912
20
242.817726
70
0
0
VERTEX
8
Layer 1
10
329.585121
20
242.004858
70
0
0
VERTEX
8
Layer 1
10
331.275391
20
240.766075
70
0
0
VERTEX
8
Layer 1
10
332.249558
20
239.776134
70
0
0
VERTEX
8
Layer 1
10
333.099229
20
238.673895
70
0
0
VERTEX
8
Layer 1
10
333.824269
20
237.465395
70
0
0
VERTEX
8
Layer 1
10
334.424546
20
236.156669
70
0
0
VERTEX
8
Layer 1
10
335.250280
20
233.262686
70
0
0
VERTEX
8
Layer 1
10
335.575363
20
230.040232
70
0
0
VERTEX
8
Layer 1
10
335.398732
20
226.537596
70
0
0
VERTEX
8
Layer 1
10
334.719321
20
222.803067
70
0
0
VERTEX
8
Layer 1
10
333.536065
20
218.884930
70
0
0
VERTEX
8
Layer 1
10
331.847900
20
214.831475
70
0
0
VERTEX
8
Layer 1
10
329.717748
20
210.747205
70
0
0
VERTEX
8
Layer 1
10
327.370416
20
207.009337
70
0
0
VERTEX
8
Layer 1
10
324.854000
20
203.665656
70
0
0
VERTEX
8
Layer 1
10
322.216595
20
200.763952
70
0
0
VERTEX
8
Layer 1
10
319.506295
20
198.352010
70
0
0
VERTEX
8
Layer 1
10
316.771195
20
196.477619
70
0
0
VERTEX
8
Layer 1
10
314.059391
20
195.188566
70
0
0
VERTEX
8
Layer 1
10
312.727254
20
194.778475
70
0
0
VERTEX
8
Layer 1
10
311.418976
20
194.532639
70
0
0
VERTEX
8
Layer 1
10
309.547218
20
194.500838
70
0
0
VERTEX
8
Layer 1
10
307.730369
20
194.853272
70
0
0
VERTEX
8
Layer 1
10
306.012669
20
195.555355
70
0
0
VERTEX
8
Layer 1
10
304.438362
20
196.572502
70
0
0
VERTEX
8
Layer 1
10
303.051689
20
197.870125
70
0
0
VERTEX
8
Layer 1
10
301.896893
20
199.413640
70
0
0
VERTEX
8
Layer 1
10
301.018216
20
201.168460
70
0
0
VERTEX
8
Layer 1
10
300.459900
20
203.099999
70
0
0
VERTEX
8
Layer 1
10
300.230202
20
203.860758
70
0
0
VERTEX
8
Layer 1
10
299.984436
20
204.084343
70
0
0
VERTEX
8
Layer 1
10
299.827780
20
204.447951
70
0
0
VERTEX
8
Layer 1
10
299.750990
20
205.635463
70
0
0
VERTEX
8
Layer 1
10
299.802994
20
209.583233
70
0
0
VERTEX
8
Layer 1
10
300.072412
20
214.129718
70
0
0
VERTEX
8
Layer 1
10
300.491211
20
217.476982
70
0
0
VERTEX
8
Layer 1
10
301.888279
20
222.528927
70
0
0
VERTEX
8
Layer 1
10
303.754403
20
227.200477
70
0
0
VERTEX
8
Layer 1
10
306.033478
20
231.422938
70
0
0
VERTEX
8
Layer 1
10
308.669395
20
235.127615
70
0
0
VERTEX
8
Layer 1
10
310.103637
20
236.764317
70
0
0
VERTEX
8
Layer 1
10
311.606050
20
238.245813
70
0
0
VERTEX
8
Layer 1
10
313.169619
20
239.563515
70
0
0
VERTEX
8
Layer 1
10
314.787333
20
240.708837
70
0
0
VERTEX
8
Layer 1
10
316.452178
20
241.673192
70
0
0
VERTEX
8
Layer 1
10
318.157140
20
242.447993
70
0
0
VERTEX
8
Layer 1
10
319.895206
20
243.024653
70
0
0
VERTEX
8
Layer 1
10
321.659363
20
243.394585
70
0
0
VERTEX
8
Layer 1
10
323.199073
20
243.536007
70
0
0
VERTEX
8
Layer 1
10
324.716694
20
243.490454
70
0
0
VERTEX
8
Layer 1
10
326.268286
20
243.252752
70
0
0
VERTEX
8
Layer 1
10
327.909912
20
242.817726
70
0
0
VERTEX
8
Layer 1
10
327.909912
20
242.817726
70
0
0
SEQEND
8
Layer 1
0
POLYLINE
8
Layer 1
62
7
70
0
10
0.000000
20
0.000000
66
1
0
VERTEX
8
Layer 1
10
476.010315
20
254.578224
70
0
0
VERTEX
8
Layer 1
10
474.792355
20
252.265434
70
0
0
VERTEX
8
Layer 1
10
473.536646
20
250.311268
70
0
0
VERTEX
8
Layer 1
10
472.205614
20
248.686294
70
0
0
VERTEX
8
Layer 1
10
470.761688
20
247.361080
70
0
0
VERTEX
8
Layer 1
10
469.167295
20
246.306195
70
0
0
VERTEX
8
Layer 1
10
467.384863
20
245.492205
70
0
0
VERTEX
8
Layer 1
10
465.376819
20
244.889679
70
0
0
VERTEX
8
Layer 1
10
463.105591
20
244.469185
70
0
0
VERTEX
8
Layer 1
10
458.608215
20
244.115364
70
0
0
VERTEX
8
Layer 1
10
456.922600
20
243.990401
70
0
0
VERTEX
8
Layer 1
10
456.645104
20
243.776134
70
0
0
VERTEX
8
Layer 1
10
456.580017
20
243.402901
70
0
0
VERTEX
8
Layer 1
10
456.687492
20
243.009753
70
0
0
VERTEX
8
Layer 1
10
457.263443
20
242.798687
70
0
0
VERTEX
8
Layer 1
10
461.341919
20
242.697441
70
0
0
VERTEX
8
Layer 1
10
464.705002
20
242.604689
70
0
0
VERTEX
8
Layer 1
10
466.103821
20
242.381691
70
0
0
VERTEX
8
Layer 1
10
462.729004
20
231.182396
70
0
0
VERTEX
8
Layer 1
10
458.340393
20
216.386620
70
0
0
VERTEX
8
Layer 1
10
457.486278
20
212.720195
70
0
0
VERTEX
8
Layer 1
10
456.925550
20
209.423382
70
0
0
VERTEX
8
Layer 1
10
456.660100
20
206.470214
70
0
0
VERTEX
8
Layer 1
10
456.691818
20
203.834726
70
0
0
VERTEX
8
Layer 1
10
457.022593
20
201.490950
70
0
0
VERTEX
8
Layer 1
10
457.654314
20
199.412922
70
0
0
VERTEX
8
Layer 1
10
458.588872
20
197.574674
70
0
0
VERTEX
8
Layer 1
10
459.828156
20
195.950241
70
0
0
VERTEX
8
Layer 1
10
461.411939
20
194.529724
70
0
0
VERTEX
8
Layer 1
10
463.291001
20
193.386304
70
0
0
VERTEX
8
Layer 1
10
465.416004
20
192.528475
70
0
0
VERTEX
8
Layer 1
10
467.737606
20
191.964735
70
0
0
VERTEX
8
Layer 1
10
470.206470
20
191.703577
70
0
0
VERTEX
8
Layer 1
10
472.773256
20
191.753500
70
0
0
VERTEX
8
Layer 1
10
475.388624
20
192.122997
70
0
0
VERTEX
8
Layer 1
10
478.003235
20
192.820565
70
0
0
VERTEX
8
Layer 1
10
479.726923
20
193.515224
70
0
0
VERTEX
8
Layer 1
10
481.450060
20
194.439539
70
0
0
VERTEX
8
Layer 1
10
483.138238
20
195.563566
70
0
0
VERTEX
8
Layer 1
10
484.757050
20
196.857358
70
0
0
VERTEX
8
Layer 1
10
486.272086
20
198.290972
70
0
0
VERTEX
8
Layer 1
10
487.648939
20
199.834463
70
0
0
VERTEX
8
Layer 1
10
488.853201
20
201.457886
70
0
0
VERTEX
8
Layer 1
10
489.850464
20
203.131295
70
0
0
VERTEX
8
Layer 1
10
490.958461
20
205.494562
70
0
0
VERTEX
8
Layer 1
10
491.685753
20
207.683431
70
0
0
VERTEX
8
Layer 1
10
492.083444
20
209.897953
70
0
0
VERTEX
8
Layer 1
10
492.202637
20
212.338181
70
0
0
VERTEX
8
Layer 1
10
492.035484
20
215.111763
70
0
0
VERTEX
8
Layer 1
10
491.780479
20
216.119227
70
0
0
VERTEX
8
Layer 1
10
491.367493
20
217.124245
70
0
0
VERTEX
8
Layer 1
10
490.725883
20
218.285681
70
0
0
VERTEX
8
Layer 1
10
489.990269
20
219.261802
70
0
0
VERTEX
8
Layer 1
10
489.173476
20
220.045830
70
0
0
VERTEX
8
Layer 1
10
488.288330
20
220.630989
70
0
0
VERTEX
8
Layer 1
10
487.347658
20
221.010502
70
0
0
VERTEX
8
Layer 1
10
486.364285
20
221.177593
70
0
0
VERTEX
8
Layer 1
10
485.351037
20
221.125483
70
0
0
VERTEX
8
Layer 1
10
484.320740
20
220.847397
70
0
0
VERTEX
8
Layer 1
10
483.444153
20
220.514115
70
0
0
VERTEX
8
Layer 1
10
484.708801
20
219.173188
70
0
0
VERTEX
8
Layer 1
10
485.929099
20
217.637572
70
0
0
VERTEX
8
Layer 1
10
486.774986
20
215.961201
70
0
0
VERTEX
8
Layer 1
10
487.297635
20
214.008410
70
0
0
VERTEX
8
Layer 1
10
487.548218
20
211.643532
70
0
0
VERTEX
8
Layer 1
10
487.546233
20
209.683769
70
0
0
VERTEX
8
Layer 1
10
487.349789
20
207.769638
70
0
0
VERTEX
8
Layer 1
10
486.971601
20
205.915223
70
0
0
VERTEX
8
Layer 1
10
486.424386
20
204.134608
70
0
0
VERTEX
8
Layer 1
10
485.720859
20
202.441876
70
0
0
VERTEX
8
Layer 1
10
484.873736
20
200.851112
70
0
0
VERTEX
8
Layer 1
10
483.895734
20
199.376398
70
0
0
VERTEX
8
Layer 1
10
482.799568
20
198.031819
70
0
0
VERTEX
8
Layer 1
10
481.597954
20
196.831458
70
0
0
VERTEX
8
Layer 1
10
480.303607
20
195.789398
70
0
0
VERTEX
8
Layer 1
10
478.929245
20
194.919724
70
0
0
VERTEX
8
Layer 1
10
477.487582
20
194.236519
70
0
0
VERTEX
8
Layer 1
10
475.991335
20
193.753867
70
0
0
VERTEX
8
Layer 1
10
474.453219
20
193.485851
70
0
0
VERTEX
8
Layer 1
10
472.885951
20
193.446555
70
0
0
VERTEX
8
Layer 1
10
471.302246
20
193.650063
70
0
0
VERTEX
8
Layer 1
10
469.422808
20
194.237412
70
0
0
VERTEX
8
Layer 1
10
467.853474
20
195.166010
70
0
0
VERTEX
8
Layer 1
10
466.564594
20
196.458900
70
0
0
VERTEX
8
Layer 1
10
465.526520
20
198.139122
70
0
0
VERTEX
8
Layer 1
10
464.991205
20
199.349791
70
0
0
VERTEX
8
Layer 1
10
464.669239
20
200.509450
70
0
0
VERTEX
8
Layer 1
10
464.393433
20
204.108147
70
0
0
VERTEX
8
Layer 1
10
464.363662
20
206.345642
70
0
0
VERTEX
8
Layer 1
10
464.477471
20
208.502446
70
0
0
VERTEX
8
Layer 1
10
464.809582
20
210.887576
70
0
0
VERTEX
8
Layer 1
10
465.434719
20
213.810048
70
0
0
VERTEX
8
Layer 1
10
467.862962
20
222.503089
70
0
0
VERTEX
8
Layer 1
10
472.359985
20
237.053704
70
0
0
VERTEX
8
Layer 1
10
474.071777
20
242.521080
70
0
0
VERTEX
8
Layer 1
10
484.267944
20
242.614785
70
0
0
VERTEX
8
Layer 1
10
492.283493
20
242.783604
70
0
0
VERTEX
8
Layer 1
10
494.088349
20
242.933826
70
0
0
VERTEX
8
Layer 1
10
494.740601
20
243.143883
70
0
0
VERTEX
8
Layer 1
10
494.976776
20
243.567759
70
0
0
VERTEX
8
Layer 1
10
495.006611
20
243.889372
70
0
0
VERTEX
8
Layer 1
10
494.726203
20
244.122820
70
0
0
VERTEX
8
Layer 1
10
494.031647
20
244.282206
70
0
0
VERTEX
8
Layer 1
10
490.984478
20
244.435186
70
0
0
VERTEX
8
Layer 1
10
485.033875
20
244.461113
70
0
0
VERTEX
8
Layer 1
10
477.919937
20
244.516693
70
0
0
VERTEX
8
Layer 1
10
474.850525
20
244.650322
70
0
0
VERTEX
8
Layer 1
10
475.365921
20
246.800671
70
0
0
VERTEX
8
Layer 1
10
476.870728
20
251.704995
70
0
0
VERTEX
8
Layer 1
10
478.549698
20
257.260279
70
0
0
VERTEX
8
Layer 1
10
478.704466
20
258.283520
70
0
0
VERTEX
8
Layer 1
10
478.642659
20
258.490845
70
0
0
VERTEX
8
Layer 1
10
478.500244
20
258.546471
70
0
0
VERTEX
8
Layer 1
10
478.126917
20
258.283516
70
0
0
VERTEX
8
Layer 1
10
477.582397
20
257.526369
70
0
0
VERTEX
8
Layer 1
10
476.010315
20
254.578224
70
0
0
VERTEX
8
Layer 1
10
476.010315
20
254.578224
70
0
0
SEQEND
8
Layer 1
0
POLYLINE
8
Layer 1
62
7
70
0
10
0.000000
20
0.000000
66
1
0
VERTEX
8
Layer 1
10
581.219849
20
265.112877
70
0
0
VERTEX
8
Layer 1
10
581.620573
20
264.646650
70
0
0
VERTEX
8
Layer 1
10
581.909169
20
264.083184
70
0
0
VERTEX
8
Layer 1
10
582.150688
20
262.595124
70
0
0
VERTEX
8
Layer 1
10
581.945830
20
260.509876
70
0
0
VERTEX
8
Layer 1
10
581.296021
20
257.688622
70
0
0
VERTEX
8
Layer 1
10
572.392128
20
227.043776
70
0
0
VERTEX
8
Layer 1
10
567.323497
20
210.149349
70
0
0
VERTEX
8
Layer 1
10
564.635254
20
201.603966
70
0
0
VERTEX
8
Layer 1
10
563.524201
20
198.986085
70
0
0
VERTEX
8
Layer 1
10
562.431916
20
196.791729
70
0
0
VERTEX
8
Layer 1
10
561.363388
20
195.030035
70
0
0
VERTEX
8
Layer 1
10
560.323608
20
193.710137
70
0
0
VERTEX
8
Layer 1
10
559.736524
20
193.008323
70
0
0
VERTEX
8
Layer 1
10
559.646595
20
192.771279
70
0
0
VERTEX
8
Layer 1
10
559.712662
20
192.588195
70
0
0
VERTEX
8
Layer 1
10
560.373545
20
192.318069
70
0
0
VERTEX
8
Layer 1
10
561.840698
20
192.066262
70
0
0
VERTEX
8
Layer 1
10
563.557106
20
192.042592
70
0
0
VERTEX
8
Layer 1
10
565.180980
20
192.498076
70
0
0
VERTEX
8
Layer 1
10
566.709886
20
193.429823
70
0
0
VERTEX
8
Layer 1
10
568.141388
20
194.834940
70
0
0
VERTEX
8
Layer 1
10
569.473051
20
196.710538
70
0
0
VERTEX
8
Layer 1
10
570.702442
20
199.053725
70
0
0
VERTEX
8
Layer 1
10
571.827125
20
201.861610
70
0
0
VERTEX
8
Layer 1
10
572.844666
20
205.131302
70
0
0
VERTEX
8
Layer 1
10
574.104248
20
208.993737
70
0
0
VERTEX
8
Layer 1
10
574.216883
20
208.972159
70
0
0
VERTEX
8
Layer 1
10
574.310028
20
208.665694
70
0
0
VERTEX
8
Layer 1
10
574.399170
20
207.406433
70
0
0
VERTEX
8
Layer 1
10
574.555300
20
205.022818
70
0
0
VERTEX
8
Layer 1
10
574.993244
20
202.720971
70
0
0
VERTEX
8
Layer 1
10
575.690403
20
200.542383
70
0
0
VERTEX
8
Layer 1
10
576.624176
20
198.528544
70
0
0
VERTEX
8
Layer 1
10
577.771966
20
196.720943
70
0
0
VERTEX
8
Layer 1
10
579.111172
20
195.161072
70
0
0
VERTEX
8
Layer 1
10
580.619196
20
193.890420
70
0
0
VERTEX
8
Layer 1
10
582.273438
20
192.950478
70
0
0
VERTEX
8
Layer 1
10
584.272927
20
192.279116
70
0
0
VERTEX
8
Layer 1
10
586.545575
20
191.883364
70
0
0
VERTEX
8
Layer 1
10
589.008932
20
191.755043
70
0
0
VERTEX
8
Layer 1
10
591.580551
20
191.885971
70
0
0
VERTEX
8
Layer 1
10
594.177982
20
192.267965
70
0
0
VERTEX
8
Layer 1
10
596.718777
20
192.892846
70
0
0
VERTEX
8
Layer 1
10
599.120485
20
193.752431
70
0
0
VERTEX
8
Layer 1
10
601.300659
20
194.838539
70
0
0
VERTEX
8
Layer 1
10
604.566096
20
197.038997
70
0
0
VERTEX
8
Layer 1
10
607.530577
20
199.628374
70
0
0
VERTEX
8
Layer 1
10
610.181979
20
202.587151
70
0
0
VERTEX
8
Layer 1
10
612.508179
20
205.895810
70
0
0
VERTEX
8
Layer 1
10
614.497052
20
209.534832
70
0
0
VERTEX
8
Layer 1
10
616.136476
20
213.484697
70
0
0
VERTEX
8
Layer 1
10
617.414327
20
217.725888
70
0
0
VERTEX
8
Layer 1
10
618.318481
20
222.238884
70
0
0
VERTEX
8
Layer 1
10
618.632482
20
224.759549
70
0
0
VERTEX
8
Layer 1
10
618.784005
20
227.162092
70
0
0
VERTEX
8
Layer 1
10
618.775670
20
229.441774
70
0
0
VERTEX
8
Layer 1
10
618.610099
20
231.593861
70
0
0
VERTEX
8
Layer 1
10
618.289911
20
233.613614
70
0
0
VERTEX
8
Layer 1
10
617.817729
20
235.496298
70
0
0
VERTEX
8
Layer 1
10
617.196173
20
237.237176
70
0
0
VERTEX
8
Layer 1
10
616.427864
20
238.831511
70
0
0
VERTEX
8
Layer 1
10
615.515423
20
240.274566
70
0
0
VERTEX
8
Layer 1
10
614.461471
20
241.561604
70
0
0
VERTEX
8
Layer 1
10
613.268630
20
242.687890
70
0
0
VERTEX
8
Layer 1
10
611.939519
20
243.648686
70
0
0
VERTEX
8
Layer 1
10
610.476760
20
244.439256
70
0
0
VERTEX
8
Layer 1
10
608.882974
20
245.054863
70
0
0
VERTEX
8
Layer 1
10
607.160782
20
245.490770
70
0
0
VERTEX
8
Layer 1
10
605.312805
20
245.742241
70
0
0
VERTEX
8
Layer 1
10
602.928728
20
245.787787
70
0
0
VERTEX
8
Layer 1
10
600.625458
20
245.511526
70
0
0
VERTEX
8
Layer 1
10
598.334410
20
244.900214
70
0
0
VERTEX
8
Layer 1
10
595.987000
20
243.940605
70
0
0
VERTEX
8
Layer 1
10
593.520841
20
242.597872
70
0
0
VERTEX
8
Layer 1
10
591.160211
20
240.958429
70
0
0
VERTEX
8
Layer 1
10
588.900542
20
239.017089
70
0
0
VERTEX
8
Layer 1
10
586.737267
20
236.768661
70
0
0
VERTEX
8
Layer 1
10
584.665815
20
234.207959
70
0
0
VERTEX
8
Layer 1
10
582.681621
20
231.329794
70
0
0
VERTEX
8
Layer 1
10
580.780113
20
228.128977
70
0
0
VERTEX
8
Layer 1
10
578.956726
20
224.600319
70
0
0
VERTEX
8
Layer 1
10
576.875969
20
220.480775
70
0
0
VERTEX
8
Layer 1
10
576.691444
20
220.211259
70
0
0
VERTEX
8
Layer 1
10
576.631101
20
220.229004
70
0
0
VERTEX
8
Layer 1
10
576.862793
20
221.092499
70
0
0
VERTEX
8
Layer 1
10
580.043457
20
231.586327
70
0
0
VERTEX
8
Layer 1
10
585.580025
20
249.664277
70
0
0
VERTEX
8
Layer 1
10
589.544312
20
262.009606
70
0
0
VERTEX
8
Layer 1
10
590.900818
20
265.977867
70
0
0
VERTEX
8
Layer 1
10
585.593628
20
265.977867
70
0
0
VERTEX
8
Layer 1
10
580.286560
20
265.977867
70
0
0
VERTEX
8
Layer 1
10
581.219849
20
265.112877
70
0
0
VERTEX
8
Layer 1
10
581.219849
20
265.112877
70
0
0
SEQEND
8
Layer 1
0
POLYLINE
8
Layer 1
62
7
70
0
10
0.000000
20
0.000000
66
1
0
VERTEX
8
Layer 1
10
604.042297
20
242.514153
70
0
0
VERTEX
8
Layer 1
10
605.198418
20
242.022035
70
0
0
VERTEX
8
Layer 1
10
606.259347
20
241.393598
70
0
0
VERTEX
8
Layer 1
10
607.227752
20
240.625705
70
0
0
VERTEX
8
Layer 1
10
608.106301
20
239.715218
70
0
0
VERTEX
8
Layer 1
10
608.897659
20
238.658999
70
0
0
VERTEX
8
Layer 1
10
609.604495
20
237.453910
70
0
0
VERTEX
8
Layer 1
10
610.775269
20
234.584572
70
0
0
VERTEX
8
Layer 1
10
611.228083
20
232.710247
70
0
0
VERTEX
8
Layer 1
10
611.492969
20
230.564613
70
0
0
VERTEX
8
Layer 1
10
611.574045
20
228.204377
70
0
0
VERTEX
8
Layer 1
10
611.475426
20
225.686250
70
0
0
VERTEX
8
Layer 1
10
611.201229
20
223.066940
70
0
0
VERTEX
8
Layer 1
10
610.755571
20
220.403157
70
0
0
VERTEX
8
Layer 1
10
610.142566
20
217.751610
70
0
0
VERTEX
8
Layer 1
10
609.366333
20
215.169007
70
0
0
VERTEX
8
Layer 1
10
608.041517
20
211.701662
70
0
0
VERTEX
8
Layer 1
10
606.500680
20
208.464848
70
0
0
VERTEX
8
Layer 1
10
604.762915
20
205.482974
70
0
0
VERTEX
8
Layer 1
10
602.847313
20
202.780450
70
0
0
VERTEX
8
Layer 1
10
600.772967
20
200.381688
70
0
0
VERTEX
8
Layer 1
10
598.558970
20
198.311097
70
0
0
VERTEX
8
Layer 1
10
596.224414
20
196.593087
70
0
0
VERTEX
8
Layer 1
10
593.788391
20
195.252068
70
0
0
VERTEX
8
Layer 1
10
592.456424
20
194.685994
70
0
0
VERTEX
8
Layer 1
10
591.295540
20
194.367734
70
0
0
VERTEX
8
Layer 1
10
589.921075
20
194.227763
70
0
0
VERTEX
8
Layer 1
10
587.948364
20
194.196556
70
0
0
VERTEX
8
Layer 1
10
585.962544
20
194.225646
70
0
0
VERTEX
8
Layer 1
10
584.625862
20
194.362834
70
0
0
VERTEX
8
Layer 1
10
583.542014
20
194.683001
70
0
0
VERTEX
8
Layer 1
10
582.314697
20
195.261025
70
0
0
VERTEX
8
Layer 1
10
580.980460
20
196.080279
70
0
0
VERTEX
8
Layer 1
10
579.794921
20
197.095512
70
0
0
VERTEX
8
Layer 1
10
578.760076
20
198.303029
70
0
0
VERTEX
8
Layer 1
10
577.877922
20
199.699134
70
0
0
VERTEX
8
Layer 1
10
577.150455
20
201.280135
70
0
0
VERTEX
8
Layer 1
10
576.579671
20
203.042335
70
0
0
VERTEX
8
Layer 1
10
576.167567
20
204.982041
70
0
0
VERTEX
8
Layer 1
10
575.916138
20
207.095558
70
0
0
VERTEX
8
Layer 1
10
575.861119
20
208.873665
70
0
0
VERTEX
8
Layer 1
10
575.968059
20
210.715839
70
0
0
VERTEX
8
Layer 1
10
576.674370
20
214.618044
70
0
0
VERTEX
8
Layer 1
10
578.048181
20
218.853481
70
0
0
VERTEX
8
Layer 1
10
580.102600
20
223.473458
70
0
0
VERTEX
8
Layer 1
10
582.006668
20
227.007407
70
0
0
VERTEX
8
Layer 1
10
584.072968
20
230.293590
70
0
0
VERTEX
8
Layer 1
10
586.263942
20
233.291486
70
0
0
VERTEX
8
Layer 1
10
588.542030
20
235.960575
70
0
0
VERTEX
8
Layer 1
10
590.869674
20
238.260336
70
0
0
VERTEX
8
Layer 1
10
593.209315
20
240.150249
70
0
0
VERTEX
8
Layer 1
10
595.523394
20
241.589792
70
0
0
VERTEX
8
Layer 1
10
597.774353
20
242.538445
70
0
0
VERTEX
8
Layer 1
10
599.347642
20
242.891432
70
0
0
VERTEX
8
Layer 1
10
600.978890
20
243.004805
70
0
0
VERTEX
8
Layer 1
10
602.574855
20
242.878925
70
0
0
VERTEX
8
Layer 1
10
604.042297
20
242.514153
70
0
0
VERTEX
8
Layer 1
10
604.042297
20
242.514153
70
0
0
SEQEND
8
Layer 1
0
POLYLINE
8
Layer 1
62
7
70
0
10
0.000000
20
0.000000
66
1
0
VERTEX
8
Layer 1
10
287.396820
20
263.478737
70
0
0
VERTEX
8
Layer 1
10
283.962738
20
260.687767
70
0
0
VERTEX
8
Layer 1
10
283.976054
20
260.399077
70
0
0
VERTEX
8
Layer 1
10
284.244320
20
259.832962
70
0
0
VERTEX
8
Layer 1
10
285.373657
20
258.174874
70
0
0
VERTEX
8
Layer 1
10
287.493958
20
255.426644
70
0
0
VERTEX
8
Layer 1
10
287.826631
20
255.255139
70
0
0
VERTEX
8
Layer 1
10
288.441910
20
255.493783
70
0
0
VERTEX
8
Layer 1
10
291.295624
20
257.656197
70
0
0
VERTEX
8
Layer 1
10
294.694763
20
260.418297
70
0
0
VERTEX
8
Layer 1
10
293.734985
20
261.698967
70
0
0
VERTEX
8
Layer 1
10
291.649597
20
264.476052
70
0
0
VERTEX
8
Layer 1
10
290.524017
20
265.972481
70
0
0
VERTEX
8
Layer 1
10
287.396820
20
263.478737
70
0
0
VERTEX
8
Layer 1
10
287.396820
20
263.478737
70
0
0
SEQEND
8
Layer 1
 0 
ENDSEC
 0 
EOF