ISO-10303-21;
HEADER;
/* Generated by software containing ST-Developer
 * from STEP Tools, Inc. (www.steptools.com) 
 */
/* OPTION: using custom renumber hook */

FILE_DESCRIPTION(
/* description */ ('STEP AP242 Edition 2',
'CAx-IF Rec.Pracs.---Representation and Presentation of Product Manufa
cturing Information (PMI)---4.0---2014-10-13',
'CAx-IF Rec.Pracs.---3D Tessellated Geometry---0.4---2014-09-14','2;1',
'CAx-IF Rec.Pracs.---User Defined Attributes---1.5---2016-08-15'),
/* implementation_level */ '2;1');

FILE_NAME(
/* name */ 'Part Studio 1',
/* time_stamp */ '2026-09-19T00:53:38Z',
/* author */ (''),
/* organization */ (''),
/* preprocessor_version */ 'ST-DEVELOPER v20',
/* originating_system */ 'ONSHAPE BY PTC INC, 1.221',
/* authorisation */ '  ');

FILE_SCHEMA (('AP242_MANAGED_MODEL_BASED_3D_ENGINEERING_MIM_LF { 1 0 10303 442 3 1 4 }'));
ENDSEC;

DATA;
#10=SHAPE_REPRESENTATION_RELATIONSHIP('','',#270,#11);
#11=ADVANCED_BREP_SHAPE_REPRESENTATION('',(#268),#476);
#12=CYLINDRICAL_SURFACE('',#280,0.0081);
#13=CIRCLE('',#276,0.0081);
#14=CIRCLE('',#281,0.0081);
#15=B_SPLINE_CURVE_WITH_KNOTS('',3,(#366,#367,#368,#369,#370,#371,#372,
#373,#374,#375,#376,#377,#378),.UNSPECIFIED.,.F.,.F.,(4,1,1,1,1,1,1,1,1,
1,4),(0.199053354617378,0.396843662258914,0.495821233255446,0.594798804251978,
0.69377637524851,0.743265160746776,0.792753946245042,0.842242731743308,
0.891731517241574,0.94122030273984,0.964624722938032),.UNSPECIFIED.);
#16=B_SPLINE_CURVE_WITH_KNOTS('',3,(#382,#383,#384,#385,#386,#387,#388,
#389,#390,#391,#392,#393,#394),.UNSPECIFIED.,.F.,.F.,(4,1,1,1,1,1,1,1,1,
1,4),(0.199053354617378,0.396843662258914,0.495821233255446,0.594798804251978,
0.69377637524851,0.743265160746776,0.792753946245042,0.842242731743308,
0.891731517241574,0.94122030273984,0.964624722938032),.UNSPECIFIED.);
#17=B_SPLINE_CURVE_WITH_KNOTS('',3,(#398,#399,#400,#401,#402,#403,#404,
#405,#406,#407,#408,#409,#410),.UNSPECIFIED.,.F.,.F.,(4,1,1,1,1,1,1,1,1,
1,4),(0.199053354617378,0.396843662258914,0.495821233255446,0.594798804251978,
0.69377637524851,0.743265160746776,0.792753946245042,0.842242731743308,
0.891731517241574,0.94122030273984,0.964624722938032),.UNSPECIFIED.);
#18=B_SPLINE_CURVE_WITH_KNOTS('',3,(#414,#415,#416,#417,#418,#419,#420,
#421,#422,#423,#424,#425,#426),.UNSPECIFIED.,.F.,.F.,(4,1,1,1,1,1,1,1,1,
1,4),(0.199053354617378,0.396843662258914,0.495821233255446,0.594798804251978,
0.69377637524851,0.743265160746776,0.792753946245042,0.842242731743308,
0.891731517241574,0.94122030273984,0.964624722938032),.UNSPECIFIED.);
#19=B_SPLINE_SURFACE_WITH_KNOTS('',3,1,((#352,#353),(#354,#355),(#356,#357),
(#358,#359),(#360,#361),(#362,#363),(#364,#365)),
 .SURF_OF_LINEAR_EXTRUSION.,.F.,.F.,.F.,(4,1,1,1,4),(2,2),(0.199053354617378,
0.390446196697542,0.581839038777705,0.773231880857869,0.964624722938032),
(0.,1.),.UNSPECIFIED.);
#20=ORIENTED_EDGE('',*,*,#90,.F.);
#21=ORIENTED_EDGE('',*,*,#91,.T.);
#22=ORIENTED_EDGE('',*,*,#92,.T.);
#23=ORIENTED_EDGE('',*,*,#93,.T.);
#24=ORIENTED_EDGE('',*,*,#93,.F.);
#25=ORIENTED_EDGE('',*,*,#94,.T.);
#26=ORIENTED_EDGE('',*,*,#95,.T.);
#27=ORIENTED_EDGE('',*,*,#96,.T.);
#28=ORIENTED_EDGE('',*,*,#97,.F.);
#29=ORIENTED_EDGE('',*,*,#98,.F.);
#30=ORIENTED_EDGE('',*,*,#99,.T.);
#31=ORIENTED_EDGE('',*,*,#100,.F.);
#32=ORIENTED_EDGE('',*,*,#91,.F.);
#33=ORIENTED_EDGE('',*,*,#101,.F.);
#34=ORIENTED_EDGE('',*,*,#102,.F.);
#35=ORIENTED_EDGE('',*,*,#103,.F.);
#36=ORIENTED_EDGE('',*,*,#97,.T.);
#37=ORIENTED_EDGE('',*,*,#104,.T.);
#38=ORIENTED_EDGE('',*,*,#105,.F.);
#39=ORIENTED_EDGE('',*,*,#106,.T.);
#40=ORIENTED_EDGE('',*,*,#107,.F.);
#41=ORIENTED_EDGE('',*,*,#108,.T.);
#42=ORIENTED_EDGE('',*,*,#105,.T.);
#43=ORIENTED_EDGE('',*,*,#109,.T.);
#44=ORIENTED_EDGE('',*,*,#110,.F.);
#45=ORIENTED_EDGE('',*,*,#111,.F.);
#46=ORIENTED_EDGE('',*,*,#102,.T.);
#47=ORIENTED_EDGE('',*,*,#112,.F.);
#48=ORIENTED_EDGE('',*,*,#113,.F.);
#49=ORIENTED_EDGE('',*,*,#111,.T.);
#50=ORIENTED_EDGE('',*,*,#114,.T.);
#51=ORIENTED_EDGE('',*,*,#115,.T.);
#52=ORIENTED_EDGE('',*,*,#98,.T.);
#53=ORIENTED_EDGE('',*,*,#103,.T.);
#54=ORIENTED_EDGE('',*,*,#116,.T.);
#55=ORIENTED_EDGE('',*,*,#117,.T.);
#56=ORIENTED_EDGE('',*,*,#99,.F.);
#57=ORIENTED_EDGE('',*,*,#115,.F.);
#58=ORIENTED_EDGE('',*,*,#118,.T.);
#59=ORIENTED_EDGE('',*,*,#119,.T.);
#60=ORIENTED_EDGE('',*,*,#95,.F.);
#61=ORIENTED_EDGE('',*,*,#120,.F.);
#62=ORIENTED_EDGE('',*,*,#119,.F.);
#63=ORIENTED_EDGE('',*,*,#121,.F.);
#64=ORIENTED_EDGE('',*,*,#109,.F.);
#65=ORIENTED_EDGE('',*,*,#104,.F.);
#66=ORIENTED_EDGE('',*,*,#96,.F.);
#67=ORIENTED_EDGE('',*,*,#110,.T.);
#68=ORIENTED_EDGE('',*,*,#121,.T.);
#69=ORIENTED_EDGE('',*,*,#118,.F.);
#70=ORIENTED_EDGE('',*,*,#114,.F.);
#71=ORIENTED_EDGE('',*,*,#113,.T.);
#72=ORIENTED_EDGE('',*,*,#122,.T.);
#73=ORIENTED_EDGE('',*,*,#92,.F.);
#74=ORIENTED_EDGE('',*,*,#106,.F.);
#75=ORIENTED_EDGE('',*,*,#108,.F.);
#76=ORIENTED_EDGE('',*,*,#123,.T.);
#77=ORIENTED_EDGE('',*,*,#120,.T.);
#78=ORIENTED_EDGE('',*,*,#94,.F.);
#79=ORIENTED_EDGE('',*,*,#122,.F.);
#80=ORIENTED_EDGE('',*,*,#100,.T.);
#81=ORIENTED_EDGE('',*,*,#117,.F.);
#82=ORIENTED_EDGE('',*,*,#124,.F.);
#83=ORIENTED_EDGE('',*,*,#112,.T.);
#84=ORIENTED_EDGE('',*,*,#101,.T.);
#85=ORIENTED_EDGE('',*,*,#90,.T.);
#86=ORIENTED_EDGE('',*,*,#107,.T.);
#87=ORIENTED_EDGE('',*,*,#124,.T.);
#88=ORIENTED_EDGE('',*,*,#116,.F.);
#89=ORIENTED_EDGE('',*,*,#123,.F.);
#90=EDGE_CURVE('',#125,#126,#149,.T.);
#91=EDGE_CURVE('',#125,#127,#150,.T.);
#92=EDGE_CURVE('',#127,#128,#151,.T.);
#93=EDGE_CURVE('',#128,#126,#152,.F.);
#94=EDGE_CURVE('',#128,#129,#15,.F.);
#95=EDGE_CURVE('',#129,#130,#153,.T.);
#96=EDGE_CURVE('',#130,#131,#16,.T.);
#97=EDGE_CURVE('',#132,#131,#154,.T.);
#98=EDGE_CURVE('',#133,#132,#17,.T.);
#99=EDGE_CURVE('',#133,#134,#155,.T.);
#100=EDGE_CURVE('',#126,#134,#18,.F.);
#101=EDGE_CURVE('',#135,#125,#156,.T.);
#102=EDGE_CURVE('',#136,#135,#157,.T.);
#103=EDGE_CURVE('',#132,#136,#158,.T.);
#104=EDGE_CURVE('',#131,#137,#159,.T.);
#105=EDGE_CURVE('',#138,#137,#160,.T.);
#106=EDGE_CURVE('',#138,#127,#161,.T.);
#107=EDGE_CURVE('',#139,#140,#162,.T.);
#108=EDGE_CURVE('',#139,#138,#163,.T.);
#109=EDGE_CURVE('',#137,#141,#164,.T.);
#110=EDGE_CURVE('',#142,#141,#165,.T.);
#111=EDGE_CURVE('',#136,#142,#166,.T.);
#112=EDGE_CURVE('',#140,#135,#167,.T.);
#113=EDGE_CURVE('',#143,#143,#13,.T.);
#114=EDGE_CURVE('',#142,#144,#168,.T.);
#115=EDGE_CURVE('',#144,#133,#169,.T.);
#116=EDGE_CURVE('',#145,#146,#170,.T.);
#117=EDGE_CURVE('',#146,#134,#171,.T.);
#118=EDGE_CURVE('',#144,#147,#172,.T.);
#119=EDGE_CURVE('',#147,#130,#173,.T.);
#120=EDGE_CURVE('',#145,#129,#174,.T.);
#121=EDGE_CURVE('',#141,#147,#175,.T.);
#122=EDGE_CURVE('',#148,#148,#14,.T.);
#123=EDGE_CURVE('',#139,#145,#176,.T.);
#124=EDGE_CURVE('',#140,#146,#177,.T.);
#125=VERTEX_POINT('',#345);
#126=VERTEX_POINT('',#346);
#127=VERTEX_POINT('',#348);
#128=VERTEX_POINT('',#350);
#129=VERTEX_POINT('',#379);
#130=VERTEX_POINT('',#381);
#131=VERTEX_POINT('',#395);
#132=VERTEX_POINT('',#397);
#133=VERTEX_POINT('',#411);
#134=VERTEX_POINT('',#413);
#135=VERTEX_POINT('',#429);
#136=VERTEX_POINT('',#431);
#137=VERTEX_POINT('',#434);
#138=VERTEX_POINT('',#436);
#139=VERTEX_POINT('',#440);
#140=VERTEX_POINT('',#441);
#141=VERTEX_POINT('',#444);
#142=VERTEX_POINT('',#446);
#143=VERTEX_POINT('',#451);
#144=VERTEX_POINT('',#453);
#145=VERTEX_POINT('',#457);
#146=VERTEX_POINT('',#458);
#147=VERTEX_POINT('',#461);
#148=VERTEX_POINT('',#469);
#149=LINE('',#344,#178);
#150=LINE('',#347,#179);
#151=LINE('',#349,#180);
#152=LINE('',#351,#181);
#153=LINE('',#380,#182);
#154=LINE('',#396,#183);
#155=LINE('',#412,#184);
#156=LINE('',#428,#185);
#157=LINE('',#430,#186);
#158=LINE('',#432,#187);
#159=LINE('',#433,#188);
#160=LINE('',#435,#189);
#161=LINE('',#437,#190);
#162=LINE('',#439,#191);
#163=LINE('',#442,#192);
#164=LINE('',#443,#193);
#165=LINE('',#445,#194);
#166=LINE('',#447,#195);
#167=LINE('',#448,#196);
#168=LINE('',#452,#197);
#169=LINE('',#454,#198);
#170=LINE('',#456,#199);
#171=LINE('',#459,#200);
#172=LINE('',#460,#201);
#173=LINE('',#462,#202);
#174=LINE('',#463,#203);
#175=LINE('',#465,#204);
#176=LINE('',#471,#205);
#177=LINE('',#473,#206);
#178=VECTOR('',#289,1.);
#179=VECTOR('',#290,1.);
#180=VECTOR('',#291,1.);
#181=VECTOR('',#292,1.);
#182=VECTOR('',#293,1.);
#183=VECTOR('',#294,1.);
#184=VECTOR('',#295,1.);
#185=VECTOR('',#298,1.);
#186=VECTOR('',#299,1.);
#187=VECTOR('',#300,1.);
#188=VECTOR('',#301,1.);
#189=VECTOR('',#302,1.);
#190=VECTOR('',#303,1.);
#191=VECTOR('',#306,1.);
#192=VECTOR('',#307,1.);
#193=VECTOR('',#308,1.);
#194=VECTOR('',#309,1.);
#195=VECTOR('',#310,1.);
#196=VECTOR('',#311,1.);
#197=VECTOR('',#316,1.);
#198=VECTOR('',#317,1.);
#199=VECTOR('',#320,1.);
#200=VECTOR('',#321,1.);
#201=VECTOR('',#322,1.);
#202=VECTOR('',#323,1.);
#203=VECTOR('',#324,1.);
#204=VECTOR('',#327,1.);
#205=VECTOR('',#336,1.);
#206=VECTOR('',#339,1.);
#207=EDGE_LOOP('',(#20,#21,#22,#23));
#208=EDGE_LOOP('',(#24,#25,#26,#27,#28,#29,#30,#31));
#209=EDGE_LOOP('',(#32,#33,#34,#35,#36,#37,#38,#39));
#210=EDGE_LOOP('',(#40,#41,#42,#43,#44,#45,#46,#47));
#211=EDGE_LOOP('',(#48));
#212=EDGE_LOOP('',(#49,#50,#51,#52,#53));
#213=EDGE_LOOP('',(#54,#55,#56,#57,#58,#59,#60,#61));
#214=EDGE_LOOP('',(#62,#63,#64,#65,#66));
#215=EDGE_LOOP('',(#67,#68,#69,#70));
#216=EDGE_LOOP('',(#71));
#217=EDGE_LOOP('',(#72));
#218=EDGE_LOOP('',(#73,#74,#75,#76,#77,#78));
#219=EDGE_LOOP('',(#79));
#220=EDGE_LOOP('',(#80,#81,#82,#83,#84,#85));
#221=EDGE_LOOP('',(#86,#87,#88,#89));
#222=FACE_BOUND('',#207,.T.);
#223=FACE_BOUND('',#208,.T.);
#224=FACE_BOUND('',#209,.T.);
#225=FACE_BOUND('',#210,.T.);
#226=FACE_BOUND('',#211,.T.);
#227=FACE_BOUND('',#212,.T.);
#228=FACE_BOUND('',#213,.T.);
#229=FACE_BOUND('',#214,.T.);
#230=FACE_BOUND('',#215,.T.);
#231=FACE_BOUND('',#216,.T.);
#232=FACE_BOUND('',#217,.T.);
#233=FACE_BOUND('',#218,.T.);
#234=FACE_BOUND('',#219,.T.);
#235=FACE_BOUND('',#220,.T.);
#236=FACE_BOUND('',#221,.T.);
#237=PLANE('',#272);
#238=PLANE('',#273);
#239=PLANE('',#274);
#240=PLANE('',#275);
#241=PLANE('',#277);
#242=PLANE('',#278);
#243=PLANE('',#279);
#244=PLANE('',#282);
#245=PLANE('',#283);
#246=PLANE('',#284);
#247=ADVANCED_FACE('',(#222),#237,.T.);
#248=ADVANCED_FACE('',(#223),#19,.F.);
#249=ADVANCED_FACE('',(#224),#238,.F.);
#250=ADVANCED_FACE('',(#225),#239,.F.);
#251=ADVANCED_FACE('',(#226,#227),#240,.T.);
#252=ADVANCED_FACE('',(#228),#241,.F.);
#253=ADVANCED_FACE('',(#229),#242,.F.);
#254=ADVANCED_FACE('',(#230),#243,.F.);
#255=ADVANCED_FACE('',(#231,#232),#12,.F.);
#256=ADVANCED_FACE('',(#233),#244,.F.);
#257=ADVANCED_FACE('',(#234,#235),#245,.T.);
#258=ADVANCED_FACE('',(#236),#246,.T.);
#259=CLOSED_SHELL('',(#247,#248,#249,#250,#251,#252,#253,#254,#255,#256,
#257,#258));
#260=STYLED_ITEM('',(#261),#268);
#261=PRESENTATION_STYLE_ASSIGNMENT((#262));
#262=SURFACE_STYLE_USAGE(.BOTH.,#263);
#263=SURFACE_SIDE_STYLE('',(#264));
#264=SURFACE_STYLE_FILL_AREA(#265);
#265=FILL_AREA_STYLE('',(#266));
#266=FILL_AREA_STYLE_COLOUR('',#267);
#267=DRAUGHTING_PRE_DEFINED_COLOUR('white');
#268=MANIFOLD_SOLID_BREP('Bottom Weight',#259);
#269=SHAPE_DEFINITION_REPRESENTATION(#481,#270);
#270=SHAPE_REPRESENTATION('Bottom Weight',(#271),#476);
#271=AXIS2_PLACEMENT_3D('',#342,#285,#286);
#272=AXIS2_PLACEMENT_3D('',#343,#287,#288);
#273=AXIS2_PLACEMENT_3D('',#427,#296,#297);
#274=AXIS2_PLACEMENT_3D('',#438,#304,#305);
#275=AXIS2_PLACEMENT_3D('',#449,#312,#313);
#276=AXIS2_PLACEMENT_3D('',#450,#314,#315);
#277=AXIS2_PLACEMENT_3D('',#455,#318,#319);
#278=AXIS2_PLACEMENT_3D('',#464,#325,#326);
#279=AXIS2_PLACEMENT_3D('',#466,#328,#329);
#280=AXIS2_PLACEMENT_3D('',#467,#330,#331);
#281=AXIS2_PLACEMENT_3D('',#468,#332,#333);
#282=AXIS2_PLACEMENT_3D('',#470,#334,#335);
#283=AXIS2_PLACEMENT_3D('',#472,#337,#338);
#284=AXIS2_PLACEMENT_3D('',#474,#340,#341);
#285=DIRECTION('',(0.,0.,1.));
#286=DIRECTION('',(1.,0.,0.));
#287=DIRECTION('',(-1.36395583368615E-16,-0.0113692745015042,-0.999935367709988));
#288=DIRECTION('',(0.,0.999935367709988,-0.0113692745015043));
#289=DIRECTION('',(-3.883370896199E-17,0.999935367709988,-0.0113692745015042));
#290=DIRECTION('',(-1.,4.94425309903326E-17,1.35842237456624E-16));
#291=DIRECTION('',(-3.883370896199E-17,0.999935367709988,-0.0113692745015042));
#292=DIRECTION('',(-1.,-4.00885386408101E-17,-1.1014235469456E-16));
#293=DIRECTION('',(-1.,-4.00885386408101E-17,-1.1014235469456E-16));
#294=DIRECTION('',(-1.,-4.00885386408101E-17,-1.1014235469456E-16));
#295=DIRECTION('',(-1.,-4.00885386408101E-17,-1.1014235469456E-16));
#296=DIRECTION('',(0.,0.939692620785909,-0.342020143325668));
#297=DIRECTION('',(-1.,0.,0.));
#298=DIRECTION('',(-1.28661675448022E-17,0.342020143325668,0.939692620785909));
#299=DIRECTION('',(-1.,-4.00885386408101E-17,-1.1014235469456E-16));
#300=DIRECTION('',(1.17211045674109E-16,-0.342020143325668,-0.939692620785909));
#301=DIRECTION('',(1.17211045674109E-16,-0.342020143325668,-0.939692620785909));
#302=DIRECTION('',(-1.,-4.00885386408101E-17,-1.1014235469456E-16));
#303=DIRECTION('',(-1.28661675448022E-17,0.342020143325668,0.939692620785909));
#304=DIRECTION('',(-3.883370896199E-17,0.999935367709988,-0.0113692745015042));
#305=DIRECTION('',(0.,0.0113692745015042,0.999935367709988));
#306=DIRECTION('',(1.,3.88311990504502E-17,-4.41511097100389E-19));
#307=DIRECTION('',(3.08148791101958E-33,0.0113692745015042,0.999935367709988));
#308=DIRECTION('',(1.1059101354212E-16,-0.0113692745015042,-0.999935367709988));
#309=DIRECTION('',(-1.,-4.00885386408101E-17,-1.1014235469456E-16));
#310=DIRECTION('',(1.1059101354212E-16,-0.0113692745015042,-0.999935367709988));
#311=DIRECTION('',(4.62223186652937E-33,0.0113692745015042,0.999935367709988));
#312=DIRECTION('',(1.,4.00885386408101E-17,1.1014235469456E-16));
#313=DIRECTION('',(-1.17211045674109E-16,0.342020143325668,0.939692620785909));
#314=DIRECTION('',(1.,4.00885386408101E-17,1.1014235469456E-16));
#315=DIRECTION('',(1.1014235469456E-16,0.,-1.));
#316=DIRECTION('',(-3.883370896199E-17,0.999935367709988,-0.0113692745015044));
#317=DIRECTION('',(-1.1059101354212E-16,0.0113692745015042,0.999935367709988));
#318=DIRECTION('',(3.883370896199E-17,-0.999935367709988,0.0113692745015043));
#319=DIRECTION('',(0.,-0.0113692745015043,-0.999935367709988));
#320=DIRECTION('',(1.,3.88311990504502E-17,-4.41511097100389E-19));
#321=DIRECTION('',(2.15570389105968E-33,0.0113692745015043,0.999935367709988));
#322=DIRECTION('',(-1.,-4.00885386408101E-17,-1.1014235469456E-16));
#323=DIRECTION('',(-1.1059101354212E-16,0.0113692745015042,0.999935367709988));
#324=DIRECTION('',(0.,0.0113692745015043,0.999935367709988));
#325=DIRECTION('',(1.,4.00885386408101E-17,1.1014235469456E-16));
#326=DIRECTION('',(-1.17211045674109E-16,0.342020143325668,0.939692620785909));
#327=DIRECTION('',(-3.883370896199E-17,0.999935367709988,-0.0113692745015044));
#328=DIRECTION('',(-1.1059101354212E-16,0.0113692745015043,0.999935367709988));
#329=DIRECTION('',(0.,-0.999935367709988,0.0113692745015043));
#330=DIRECTION('',(1.,4.00885386408101E-17,1.1014235469456E-16));
#331=DIRECTION('',(1.1014235469456E-16,0.,-1.));
#332=DIRECTION('',(-1.,-3.88311990504502E-17,4.41511097100391E-19));
#333=DIRECTION('',(3.88311990504502E-17,-1.,0.));
#334=DIRECTION('',(-1.,-3.88311990504502E-17,4.41511097100389E-19));
#335=DIRECTION('',(3.66403968926869E-17,-0.939692620785909,0.342020143325668));
#336=DIRECTION('',(-3.883370896199E-17,0.999935367709988,-0.0113692745015042));
#337=DIRECTION('',(-1.,-3.88311990504502E-17,4.41511097100391E-19));
#338=DIRECTION('',(3.66403968926869E-17,-0.939692620785909,0.342020143325668));
#339=DIRECTION('',(-3.883370896199E-17,0.999935367709988,-0.0113692745015042));
#340=DIRECTION('',(1.57863110195675E-33,0.0113692745015042,0.999935367709988));
#341=DIRECTION('',(0.,-0.999935367709988,0.0113692745015043));
#342=CARTESIAN_POINT('',(0.,0.,0.));
#343=CARTESIAN_POINT('',(-0.20704,-0.125487386800654,0.0235711565147082));
#344=CARTESIAN_POINT('',(-0.19604,-0.125487386800654,0.0235711565147082));
#345=CARTESIAN_POINT('',(-0.19604,-0.0825702335122495,0.0230831880796319));
#346=CARTESIAN_POINT('',(-0.19604,-0.0645745581988153,0.0228785770826762));
#347=CARTESIAN_POINT('',(-0.16608,-0.0825702335122495,0.0230831880796318));
#348=CARTESIAN_POINT('',(-0.20604,-0.0825702335122495,0.0230831880796318));
#349=CARTESIAN_POINT('',(-0.20604,-0.125487386800654,0.0235711565147082));
#350=CARTESIAN_POINT('',(-0.20604,-0.0645745581984935,0.0228785770826724));
#351=CARTESIAN_POINT('',(-0.16608,-0.0645745581984935,0.0228785770826724));
#352=CARTESIAN_POINT('',(-0.16608,-0.064505239271267,0.0216542456025612));
#353=CARTESIAN_POINT('',(-0.236,-0.064505239271267,0.0216542456025612));
#354=CARTESIAN_POINT('',(-0.16608,-0.0647278902589184,0.0255901696752067));
#355=CARTESIAN_POINT('',(-0.236,-0.0647278902589184,0.0255901696752067));
#356=CARTESIAN_POINT('',(-0.16608,-0.0651726246831949,0.0334425964279165));
#357=CARTESIAN_POINT('',(-0.236,-0.0651726246831949,0.0334425964279165));
#358=CARTESIAN_POINT('',(-0.16608,-0.0660452202022579,0.0443440070842762));
#359=CARTESIAN_POINT('',(-0.236,-0.0660452202022579,0.0443440070842762));
#360=CARTESIAN_POINT('',(-0.16608,-0.0673150276364524,0.0535847101450533));
#361=CARTESIAN_POINT('',(-0.236,-0.0673150276364524,0.0535847101450533));
#362=CARTESIAN_POINT('',(-0.16608,-0.0685330197517042,0.0578846551572316));
#363=CARTESIAN_POINT('',(-0.236,-0.0685330197517042,0.0578846551572316));
#364=CARTESIAN_POINT('',(-0.16608,-0.0692148204727197,0.0597768862690872));
#365=CARTESIAN_POINT('',(-0.236,-0.0692148204727197,0.0597768862690872));
#366=CARTESIAN_POINT('',(-0.20604,-0.064505239271267,0.0216542456025612));
#367=CARTESIAN_POINT('',(-0.20604,-0.0647353325540963,0.0257217312238689));
#368=CARTESIAN_POINT('',(-0.20604,-0.0650802575580412,0.0318076433736251));
#369=CARTESIAN_POINT('',(-0.20604,-0.0656531241696163,0.039446036144262));
#370=CARTESIAN_POINT('',(-0.20604,-0.066166626959069,0.044823031677682));
#371=CARTESIAN_POINT('',(-0.20604,-0.0666859574868468,0.0489105495596191));
#372=CARTESIAN_POINT('',(-0.20604,-0.0671668977904298,0.0518800841767176));
#373=CARTESIAN_POINT('',(-0.20604,-0.0675621581057197,0.0539415114381862));
#374=CARTESIAN_POINT('',(-0.20604,-0.0679925389271371,0.0558122501217302));
#375=CARTESIAN_POINT('',(-0.20604,-0.0684610270748819,0.0575168781504695));
#376=CARTESIAN_POINT('',(-0.20604,-0.0688742710674281,0.0588119025604934));
#377=CARTESIAN_POINT('',(-0.20604,-0.0691314466621182,0.0595454953164652));
#378=CARTESIAN_POINT('',(-0.20604,-0.0692148204727197,0.0597768862690872));
#379=CARTESIAN_POINT('',(-0.20604,-0.064505239271267,0.0216542456025612));
#380=CARTESIAN_POINT('',(-0.16608,-0.064505239271267,0.0216542456025612));
#381=CARTESIAN_POINT('',(-0.236,-0.064505239271267,0.0216542456025612));
#382=CARTESIAN_POINT('',(-0.236,-0.064505239271267,0.0216542456025612));
#383=CARTESIAN_POINT('',(-0.236,-0.0647353325540963,0.0257217312238689));
#384=CARTESIAN_POINT('',(-0.236,-0.0650802575580412,0.0318076433736251));
#385=CARTESIAN_POINT('',(-0.236,-0.0656531241696163,0.039446036144262));
#386=CARTESIAN_POINT('',(-0.236,-0.066166626959069,0.044823031677682));
#387=CARTESIAN_POINT('',(-0.236,-0.0666859574868468,0.0489105495596191));
#388=CARTESIAN_POINT('',(-0.236,-0.0671668977904298,0.0518800841767176));
#389=CARTESIAN_POINT('',(-0.236,-0.0675621581057197,0.0539415114381862));
#390=CARTESIAN_POINT('',(-0.236,-0.0679925389271371,0.0558122501217302));
#391=CARTESIAN_POINT('',(-0.236,-0.0684610270748819,0.0575168781504695));
#392=CARTESIAN_POINT('',(-0.236,-0.0688742710674281,0.0588119025604934));
#393=CARTESIAN_POINT('',(-0.236,-0.0691314466621182,0.0595454953164652));
#394=CARTESIAN_POINT('',(-0.236,-0.0692148204727197,0.0597768862690872));
#395=CARTESIAN_POINT('',(-0.236,-0.0692148194523206,0.0597768866367533));
#396=CARTESIAN_POINT('',(-0.16608,-0.0692148194523206,0.0597768866367533));
#397=CARTESIAN_POINT('',(-0.16608,-0.0692148194523206,0.0597768866367533));
#398=CARTESIAN_POINT('',(-0.16608,-0.064505239271267,0.0216542456025612));
#399=CARTESIAN_POINT('',(-0.16608,-0.0647353325540963,0.0257217312238689));
#400=CARTESIAN_POINT('',(-0.16608,-0.0650802575580412,0.0318076433736251));
#401=CARTESIAN_POINT('',(-0.16608,-0.0656531241696163,0.039446036144262));
#402=CARTESIAN_POINT('',(-0.16608,-0.066166626959069,0.044823031677682));
#403=CARTESIAN_POINT('',(-0.16608,-0.0666859574868468,0.0489105495596191));
#404=CARTESIAN_POINT('',(-0.16608,-0.0671668977904298,0.0518800841767176));
#405=CARTESIAN_POINT('',(-0.16608,-0.0675621581057197,0.0539415114381862));
#406=CARTESIAN_POINT('',(-0.16608,-0.0679925389271371,0.0558122501217302));
#407=CARTESIAN_POINT('',(-0.16608,-0.0684610270748819,0.0575168781504695));
#408=CARTESIAN_POINT('',(-0.16608,-0.0688742710674281,0.0588119025604934));
#409=CARTESIAN_POINT('',(-0.16608,-0.0691314466621182,0.0595454953164652));
#410=CARTESIAN_POINT('',(-0.16608,-0.0692148204727197,0.0597768862690872));
#411=CARTESIAN_POINT('',(-0.16608,-0.064505239271267,0.0216542456025612));
#412=CARTESIAN_POINT('',(-0.16608,-0.064505239271267,0.0216542456025612));
#413=CARTESIAN_POINT('',(-0.19604,-0.0645052392711645,0.02165424560256));
#414=CARTESIAN_POINT('',(-0.19604,-0.064505239271267,0.0216542456025612));
#415=CARTESIAN_POINT('',(-0.19604,-0.0647353325540963,0.0257217312238689));
#416=CARTESIAN_POINT('',(-0.19604,-0.0650802575580412,0.0318076433736251));
#417=CARTESIAN_POINT('',(-0.19604,-0.0656531241696163,0.039446036144262));
#418=CARTESIAN_POINT('',(-0.19604,-0.066166626959069,0.044823031677682));
#419=CARTESIAN_POINT('',(-0.19604,-0.0666859574868468,0.0489105495596191));
#420=CARTESIAN_POINT('',(-0.19604,-0.0671668977904298,0.0518800841767176));
#421=CARTESIAN_POINT('',(-0.19604,-0.0675621581057197,0.0539415114381862));
#422=CARTESIAN_POINT('',(-0.19604,-0.0679925389271371,0.0558122501217302));
#423=CARTESIAN_POINT('',(-0.19604,-0.0684610270748819,0.0575168781504695));
#424=CARTESIAN_POINT('',(-0.19604,-0.0688742710674281,0.0588119025604934));
#425=CARTESIAN_POINT('',(-0.19604,-0.0691314466621182,0.0595454953164652));
#426=CARTESIAN_POINT('',(-0.19604,-0.0692148204727197,0.0597768862690872));
#427=CARTESIAN_POINT('',(-0.16608,-0.0835770273193326,0.0203170448286244));
#428=CARTESIAN_POINT('',(-0.19604,-0.0835770273193326,0.0203170448286244));
#429=CARTESIAN_POINT('',(-0.19604,-0.0979392351863445,-0.0191427969795046));
#430=CARTESIAN_POINT('',(-0.16608,-0.0979392351863445,-0.0191427969795046));
#431=CARTESIAN_POINT('',(-0.16608,-0.0979392351863445,-0.0191427969795046));
#432=CARTESIAN_POINT('',(-0.16608,-0.0835770273193326,0.0203170448286244));
#433=CARTESIAN_POINT('',(-0.236,-0.0835770273193326,0.0203170448286244));
#434=CARTESIAN_POINT('',(-0.236,-0.0979392351863445,-0.0191427969795046));
#435=CARTESIAN_POINT('',(-0.16608,-0.0979392351863445,-0.0191427969795046));
#436=CARTESIAN_POINT('',(-0.20604,-0.0979392351863445,-0.0191427969795046));
#437=CARTESIAN_POINT('',(-0.20604,-0.0835770273193326,0.0203170448286244));
#438=CARTESIAN_POINT('',(-0.16608,-0.0980222423146445,-0.0264433299509062));
#439=CARTESIAN_POINT('',(-0.16608,-0.0981962036389564,-0.0417433458639877));
#440=CARTESIAN_POINT('',(-0.20604,-0.0981962036389564,-0.0417433458639877));
#441=CARTESIAN_POINT('',(-0.19604,-0.0981962036389564,-0.0417433458639876));
#442=CARTESIAN_POINT('',(-0.20604,-0.0980222423146445,-0.0264433299509062));
#443=CARTESIAN_POINT('',(-0.236,-0.0980222423146445,-0.0264433299509062));
#444=CARTESIAN_POINT('',(-0.236,-0.0982530500114639,-0.0467430227025376));
#445=CARTESIAN_POINT('',(-0.16608,-0.0982530500114639,-0.0467430227025376));
#446=CARTESIAN_POINT('',(-0.16608,-0.0982530500114639,-0.0467430227025376));
#447=CARTESIAN_POINT('',(-0.16608,-0.0980222423146445,-0.0264433299509062));
#448=CARTESIAN_POINT('',(-0.19604,-0.0980222423146445,-0.0264433299509062));
#449=CARTESIAN_POINT('',(-0.16608,-0.0689306127081313,0.00803709437048033));
#450=CARTESIAN_POINT('',(-0.16608,-0.0825845471677488,-0.0265580998237536));
#451=CARTESIAN_POINT('',(-0.16608,-0.0825845471677488,-0.0346580998237536));
#452=CARTESIAN_POINT('',(-0.16608,-0.081770114298457,-0.0469304338360602));
#453=CARTESIAN_POINT('',(-0.16608,-0.06528717858545,-0.0471178449695827));
#454=CARTESIAN_POINT('',(-0.16608,-0.0648223086440474,-0.00623221979339295));
#455=CARTESIAN_POINT('',(-0.16608,-0.0648223086440474,-0.00623221979339295));
#456=CARTESIAN_POINT('',(-0.19504,-0.0652303322129425,-0.0421181681310328));
#457=CARTESIAN_POINT('',(-0.20604,-0.0652303322129425,-0.0421181681310328));
#458=CARTESIAN_POINT('',(-0.19604,-0.0652303322129425,-0.0421181681310328));
#459=CARTESIAN_POINT('',(-0.19604,-0.0648324076053898,-0.00712043026118318));
#460=CARTESIAN_POINT('',(-0.16608,-0.06528717858545,-0.0471178449695827));
#461=CARTESIAN_POINT('',(-0.236,-0.06528717858545,-0.0471178449695827));
#462=CARTESIAN_POINT('',(-0.236,-0.0648223086440474,-0.00623221979339296));
#463=CARTESIAN_POINT('',(-0.20604,-0.0648324076053898,-0.0071204302611832));
#464=CARTESIAN_POINT('',(-0.236,-0.0689306127081313,0.00803709437048032));
#465=CARTESIAN_POINT('',(-0.236,-0.081770114298457,-0.0469304338360602));
#466=CARTESIAN_POINT('',(-0.113298,-0.081770114298457,-0.0469304338360602));
#467=CARTESIAN_POINT('',(-0.2029,-0.0825845471677488,-0.0265580998237536));
#468=CARTESIAN_POINT('',(-0.19604,-0.0825845471677488,-0.0265580998237536));
#469=CARTESIAN_POINT('',(-0.19604,-0.0906845471677488,-0.0265580998237536));
#470=CARTESIAN_POINT('',(-0.20604,-0.125828465035699,-0.00642690451659144));
#471=CARTESIAN_POINT('',(-0.20604,-0.126226389643252,-0.0414246423864411));
#472=CARTESIAN_POINT('',(-0.19604,-0.125828465035699,-0.00642690451659143));
#473=CARTESIAN_POINT('',(-0.19604,-0.126226389643252,-0.0414246423864411));
#474=CARTESIAN_POINT('',(-0.19504,-0.126226389643252,-0.0414246423864411));
#475=MECHANICAL_DESIGN_GEOMETRIC_PRESENTATION_REPRESENTATION('',(#260),
#476);
#476=(
GEOMETRIC_REPRESENTATION_CONTEXT(3)
GLOBAL_UNCERTAINTY_ASSIGNED_CONTEXT((#477))
GLOBAL_UNIT_ASSIGNED_CONTEXT((#480,#479,#478))
REPRESENTATION_CONTEXT('Bottom Weight','TOP_LEVEL_ASSEMBLY_PART')
);
#477=UNCERTAINTY_MEASURE_WITH_UNIT(LENGTH_MEASURE(2.E-5),#480,
'DISTANCE_ACCURACY_VALUE','Maximum Tolerance applied to model');
#478=(
NAMED_UNIT(*)
SI_UNIT($,.STERADIAN.)
SOLID_ANGLE_UNIT()
);
#479=(
NAMED_UNIT(*)
PLANE_ANGLE_UNIT()
SI_UNIT($,.RADIAN.)
);
#480=(
LENGTH_UNIT()
NAMED_UNIT(*)
SI_UNIT($,.METRE.)
);
#481=PRODUCT_DEFINITION_SHAPE('','',#482);
#482=PRODUCT_DEFINITION('','',#484,#483);
#483=PRODUCT_DEFINITION_CONTEXT('',#490,'design');
#484=PRODUCT_DEFINITION_FORMATION_WITH_SPECIFIED_SOURCE('','',#486,
 .NOT_KNOWN.);
#485=PRODUCT_RELATED_PRODUCT_CATEGORY('','',(#486));
#486=PRODUCT('Bottom Weight','Bottom Weight','Bottom Weight',(#488));
#487=PRODUCT_CATEGORY('','');
#488=PRODUCT_CONTEXT('',#490,'mechanical');
#489=APPLICATION_PROTOCOL_DEFINITION('international standard',
'ap242_managed_model_based_3d_engineering',2020,#490);
#490=APPLICATION_CONTEXT('managed model based 3d engineering');
ENDSEC;
END-ISO-10303-21;
