ISO-10303-21;
HEADER;
/* Generated by software containing ST-Developer
 * from STEP Tools, Inc. (www.steptools.com) 
 */
/* OPTION: using custom renumber hook */

FILE_DESCRIPTION(
/* description */ ('STEP AP242 Edition 2',
'CAx-IF Rec.Pracs.---Representation and Presentation of Product Manufa
cturing Information (PMI)---4.0---2014-10-13',
'CAx-IF Rec.Pracs.---3D Tessellated Geometry---0.4---2014-09-14','2;1',
'CAx-IF Rec.Pracs.---User Defined Attributes---1.5---2016-08-15'),
/* implementation_level */ '2;1');

FILE_NAME(
/* name */ 'Part Studio 1',
/* time_stamp */ '2026-09-15T01:54:36Z',
/* author */ (''),
/* organization */ (''),
/* preprocessor_version */ 'ST-DEVELOPER v20',
/* originating_system */ 'ONSHAPE BY PTC INC, 1.220',
/* authorisation */ '  ');

FILE_SCHEMA (('AP242_MANAGED_MODEL_BASED_3D_ENGINEERING_MIM_LF { 1 0 10303 442 3 1 4 }'));
ENDSEC;

DATA;
#10=SHAPE_REPRESENTATION_RELATIONSHIP('','',#250,#11);
#11=ADVANCED_BREP_SHAPE_REPRESENTATION('',(#248),#442);
#12=PLANE('',#252);
#13=PLANE('',#253);
#14=PLANE('',#254);
#15=PLANE('',#255);
#16=PLANE('',#256);
#17=PLANE('',#257);
#18=PLANE('',#258);
#19=PLANE('',#259);
#20=PLANE('',#260);
#21=PLANE('',#261);
#22=LINE('',#343,#51);
#23=LINE('',#359,#52);
#24=LINE('',#375,#53);
#25=LINE('',#391,#54);
#26=LINE('',#393,#55);
#27=LINE('',#396,#56);
#28=LINE('',#398,#57);
#29=LINE('',#399,#58);
#30=LINE('',#401,#59);
#31=LINE('',#403,#60);
#32=LINE('',#405,#61);
#33=LINE('',#407,#62);
#34=LINE('',#409,#63);
#35=LINE('',#411,#64);
#36=LINE('',#412,#65);
#37=LINE('',#414,#66);
#38=LINE('',#416,#67);
#39=LINE('',#418,#68);
#40=LINE('',#420,#69);
#41=LINE('',#422,#70);
#42=LINE('',#425,#71);
#43=LINE('',#426,#72);
#44=LINE('',#428,#73);
#45=LINE('',#429,#74);
#46=LINE('',#431,#75);
#47=LINE('',#434,#76);
#48=LINE('',#435,#77);
#49=LINE('',#437,#78);
#50=LINE('',#439,#79);
#51=VECTOR('',#264,1.);
#52=VECTOR('',#265,1.);
#53=VECTOR('',#266,1.);
#54=VECTOR('',#267,1.);
#55=VECTOR('',#270,1.);
#56=VECTOR('',#271,1.);
#57=VECTOR('',#272,1.);
#58=VECTOR('',#273,1.);
#59=VECTOR('',#274,1.);
#60=VECTOR('',#275,1.);
#61=VECTOR('',#276,1.);
#62=VECTOR('',#279,1.);
#63=VECTOR('',#280,1.);
#64=VECTOR('',#281,1.);
#65=VECTOR('',#282,1.);
#66=VECTOR('',#283,1.);
#67=VECTOR('',#284,1.);
#68=VECTOR('',#287,1.);
#69=VECTOR('',#288,1.);
#70=VECTOR('',#291,1.);
#71=VECTOR('',#292,1.);
#72=VECTOR('',#293,1.);
#73=VECTOR('',#294,1.);
#74=VECTOR('',#295,1.);
#75=VECTOR('',#298,1.);
#76=VECTOR('',#303,1.);
#77=VECTOR('',#304,1.);
#78=VECTOR('',#307,1.);
#79=VECTOR('',#310,1.);
#80=ORIENTED_EDGE('',*,*,#146,.F.);
#81=ORIENTED_EDGE('',*,*,#147,.F.);
#82=ORIENTED_EDGE('',*,*,#148,.T.);
#83=ORIENTED_EDGE('',*,*,#149,.T.);
#84=ORIENTED_EDGE('',*,*,#150,.T.);
#85=ORIENTED_EDGE('',*,*,#151,.F.);
#86=ORIENTED_EDGE('',*,*,#152,.F.);
#87=ORIENTED_EDGE('',*,*,#153,.T.);
#88=ORIENTED_EDGE('',*,*,#154,.F.);
#89=ORIENTED_EDGE('',*,*,#155,.F.);
#90=ORIENTED_EDGE('',*,*,#156,.F.);
#91=ORIENTED_EDGE('',*,*,#151,.T.);
#92=ORIENTED_EDGE('',*,*,#157,.T.);
#93=ORIENTED_EDGE('',*,*,#158,.F.);
#94=ORIENTED_EDGE('',*,*,#159,.T.);
#95=ORIENTED_EDGE('',*,*,#160,.F.);
#96=ORIENTED_EDGE('',*,*,#161,.F.);
#97=ORIENTED_EDGE('',*,*,#162,.F.);
#98=ORIENTED_EDGE('',*,*,#163,.T.);
#99=ORIENTED_EDGE('',*,*,#158,.T.);
#100=ORIENTED_EDGE('',*,*,#164,.T.);
#101=ORIENTED_EDGE('',*,*,#165,.F.);
#102=ORIENTED_EDGE('',*,*,#166,.F.);
#103=ORIENTED_EDGE('',*,*,#155,.T.);
#104=ORIENTED_EDGE('',*,*,#166,.T.);
#105=ORIENTED_EDGE('',*,*,#167,.T.);
#106=ORIENTED_EDGE('',*,*,#168,.T.);
#107=ORIENTED_EDGE('',*,*,#152,.T.);
#108=ORIENTED_EDGE('',*,*,#156,.T.);
#109=ORIENTED_EDGE('',*,*,#169,.T.);
#110=ORIENTED_EDGE('',*,*,#170,.T.);
#111=ORIENTED_EDGE('',*,*,#153,.F.);
#112=ORIENTED_EDGE('',*,*,#168,.F.);
#113=ORIENTED_EDGE('',*,*,#171,.T.);
#114=ORIENTED_EDGE('',*,*,#172,.T.);
#115=ORIENTED_EDGE('',*,*,#149,.F.);
#116=ORIENTED_EDGE('',*,*,#173,.F.);
#117=ORIENTED_EDGE('',*,*,#172,.F.);
#118=ORIENTED_EDGE('',*,*,#174,.F.);
#119=ORIENTED_EDGE('',*,*,#164,.F.);
#120=ORIENTED_EDGE('',*,*,#157,.F.);
#121=ORIENTED_EDGE('',*,*,#150,.F.);
#122=ORIENTED_EDGE('',*,*,#165,.T.);
#123=ORIENTED_EDGE('',*,*,#174,.T.);
#124=ORIENTED_EDGE('',*,*,#171,.F.);
#125=ORIENTED_EDGE('',*,*,#167,.F.);
#126=ORIENTED_EDGE('',*,*,#147,.T.);
#127=ORIENTED_EDGE('',*,*,#175,.F.);
#128=ORIENTED_EDGE('',*,*,#160,.T.);
#129=ORIENTED_EDGE('',*,*,#176,.T.);
#130=ORIENTED_EDGE('',*,*,#146,.T.);
#131=ORIENTED_EDGE('',*,*,#170,.F.);
#132=ORIENTED_EDGE('',*,*,#177,.F.);
#133=ORIENTED_EDGE('',*,*,#161,.T.);
#134=ORIENTED_EDGE('',*,*,#154,.T.);
#135=ORIENTED_EDGE('',*,*,#175,.T.);
#136=ORIENTED_EDGE('',*,*,#162,.T.);
#137=ORIENTED_EDGE('',*,*,#177,.T.);
#138=ORIENTED_EDGE('',*,*,#169,.F.);
#139=ORIENTED_EDGE('',*,*,#178,.F.);
#140=ORIENTED_EDGE('',*,*,#176,.F.);
#141=ORIENTED_EDGE('',*,*,#159,.F.);
#142=ORIENTED_EDGE('',*,*,#163,.F.);
#143=ORIENTED_EDGE('',*,*,#178,.T.);
#144=ORIENTED_EDGE('',*,*,#173,.T.);
#145=ORIENTED_EDGE('',*,*,#148,.F.);
#146=EDGE_CURVE('',#179,#180,#201,.F.);
#147=EDGE_CURVE('',#181,#179,#22,.F.);
#148=EDGE_CURVE('',#181,#182,#202,.F.);
#149=EDGE_CURVE('',#182,#183,#23,.T.);
#150=EDGE_CURVE('',#183,#184,#203,.T.);
#151=EDGE_CURVE('',#185,#184,#24,.T.);
#152=EDGE_CURVE('',#186,#185,#204,.T.);
#153=EDGE_CURVE('',#186,#180,#25,.T.);
#154=EDGE_CURVE('',#187,#188,#26,.T.);
#155=EDGE_CURVE('',#189,#187,#27,.T.);
#156=EDGE_CURVE('',#185,#189,#28,.T.);
#157=EDGE_CURVE('',#184,#190,#29,.T.);
#158=EDGE_CURVE('',#191,#190,#30,.T.);
#159=EDGE_CURVE('',#191,#192,#31,.T.);
#160=EDGE_CURVE('',#188,#192,#32,.T.);
#161=EDGE_CURVE('',#193,#187,#33,.T.);
#162=EDGE_CURVE('',#194,#193,#34,.T.);
#163=EDGE_CURVE('',#194,#191,#35,.T.);
#164=EDGE_CURVE('',#190,#195,#36,.T.);
#165=EDGE_CURVE('',#196,#195,#37,.T.);
#166=EDGE_CURVE('',#189,#196,#38,.T.);
#167=EDGE_CURVE('',#196,#197,#39,.T.);
#168=EDGE_CURVE('',#197,#186,#40,.T.);
#169=EDGE_CURVE('',#198,#199,#41,.T.);
#170=EDGE_CURVE('',#199,#180,#42,.T.);
#171=EDGE_CURVE('',#197,#200,#43,.T.);
#172=EDGE_CURVE('',#200,#183,#44,.T.);
#173=EDGE_CURVE('',#198,#182,#45,.T.);
#174=EDGE_CURVE('',#195,#200,#46,.T.);
#175=EDGE_CURVE('',#188,#179,#47,.T.);
#176=EDGE_CURVE('',#192,#181,#48,.T.);
#177=EDGE_CURVE('',#193,#199,#49,.T.);
#178=EDGE_CURVE('',#194,#198,#50,.T.);
#179=VERTEX_POINT('',#341);
#180=VERTEX_POINT('',#342);
#181=VERTEX_POINT('',#344);
#182=VERTEX_POINT('',#358);
#183=VERTEX_POINT('',#360);
#184=VERTEX_POINT('',#374);
#185=VERTEX_POINT('',#376);
#186=VERTEX_POINT('',#390);
#187=VERTEX_POINT('',#394);
#188=VERTEX_POINT('',#395);
#189=VERTEX_POINT('',#397);
#190=VERTEX_POINT('',#400);
#191=VERTEX_POINT('',#402);
#192=VERTEX_POINT('',#404);
#193=VERTEX_POINT('',#408);
#194=VERTEX_POINT('',#410);
#195=VERTEX_POINT('',#413);
#196=VERTEX_POINT('',#415);
#197=VERTEX_POINT('',#419);
#198=VERTEX_POINT('',#423);
#199=VERTEX_POINT('',#424);
#200=VERTEX_POINT('',#427);
#201=B_SPLINE_CURVE_WITH_KNOTS('',3,(#328,#329,#330,#331,#332,#333,#334,
#335,#336,#337,#338,#339,#340),.UNSPECIFIED.,.F.,.F.,(4,1,1,1,1,1,1,1,1,
1,4),(0.199053354617378,0.396843662258914,0.495821233255446,0.594798804251978,
0.69377637524851,0.743265160746776,0.792753946245042,0.842242731743308,
0.891731517241574,0.94122030273984,0.964624722938032),.UNSPECIFIED.);
#202=B_SPLINE_CURVE_WITH_KNOTS('',3,(#345,#346,#347,#348,#349,#350,#351,
#352,#353,#354,#355,#356,#357),.UNSPECIFIED.,.F.,.F.,(4,1,1,1,1,1,1,1,1,
1,4),(0.199053354617378,0.396843662258914,0.495821233255446,0.594798804251978,
0.69377637524851,0.743265160746776,0.792753946245042,0.842242731743308,
0.891731517241574,0.94122030273984,0.964624722938032),.UNSPECIFIED.);
#203=B_SPLINE_CURVE_WITH_KNOTS('',3,(#361,#362,#363,#364,#365,#366,#367,
#368,#369,#370,#371,#372,#373),.UNSPECIFIED.,.F.,.F.,(4,1,1,1,1,1,1,1,1,
1,4),(0.199053354617378,0.396843662258914,0.495821233255446,0.594798804251978,
0.69377637524851,0.743265160746776,0.792753946245042,0.842242731743308,
0.891731517241574,0.94122030273984,0.964624722938032),.UNSPECIFIED.);
#204=B_SPLINE_CURVE_WITH_KNOTS('',3,(#377,#378,#379,#380,#381,#382,#383,
#384,#385,#386,#387,#388,#389),.UNSPECIFIED.,.F.,.F.,(4,1,1,1,1,1,1,1,1,
1,4),(0.199053354617378,0.396843662258914,0.495821233255446,0.594798804251978,
0.69377637524851,0.743265160746776,0.792753946245042,0.842242731743308,
0.891731517241574,0.94122030273984,0.964624722938032),.UNSPECIFIED.);
#205=EDGE_LOOP('',(#80,#81,#82,#83,#84,#85,#86,#87));
#206=EDGE_LOOP('',(#88,#89,#90,#91,#92,#93,#94,#95));
#207=EDGE_LOOP('',(#96,#97,#98,#99,#100,#101,#102,#103));
#208=EDGE_LOOP('',(#104,#105,#106,#107,#108));
#209=EDGE_LOOP('',(#109,#110,#111,#112,#113,#114,#115,#116));
#210=EDGE_LOOP('',(#117,#118,#119,#120,#121));
#211=EDGE_LOOP('',(#122,#123,#124,#125));
#212=EDGE_LOOP('',(#126,#127,#128,#129));
#213=EDGE_LOOP('',(#130,#131,#132,#133,#134,#135));
#214=EDGE_LOOP('',(#136,#137,#138,#139));
#215=EDGE_LOOP('',(#140,#141,#142,#143,#144,#145));
#216=FACE_BOUND('',#205,.T.);
#217=FACE_BOUND('',#206,.T.);
#218=FACE_BOUND('',#207,.T.);
#219=FACE_BOUND('',#208,.T.);
#220=FACE_BOUND('',#209,.T.);
#221=FACE_BOUND('',#210,.T.);
#222=FACE_BOUND('',#211,.T.);
#223=FACE_BOUND('',#212,.T.);
#224=FACE_BOUND('',#213,.T.);
#225=FACE_BOUND('',#214,.T.);
#226=FACE_BOUND('',#215,.T.);
#227=B_SPLINE_SURFACE_WITH_KNOTS('',3,1,((#314,#315),(#316,#317),(#318,
#319),(#320,#321),(#322,#323),(#324,#325),(#326,#327)),
 .SURF_OF_LINEAR_EXTRUSION.,.F.,.F.,.F.,(4,1,1,1,4),(2,2),(0.199053354617378,
0.390446196697542,0.581839038777705,0.773231880857869,0.964624722938032),
(0.,1.),.UNSPECIFIED.);
#228=ADVANCED_FACE('',(#216),#227,.F.);
#229=ADVANCED_FACE('',(#217),#12,.F.);
#230=ADVANCED_FACE('',(#218),#13,.F.);
#231=ADVANCED_FACE('',(#219),#14,.T.);
#232=ADVANCED_FACE('',(#220),#15,.F.);
#233=ADVANCED_FACE('',(#221),#16,.F.);
#234=ADVANCED_FACE('',(#222),#17,.F.);
#235=ADVANCED_FACE('',(#223),#18,.T.);
#236=ADVANCED_FACE('',(#224),#19,.T.);
#237=ADVANCED_FACE('',(#225),#20,.T.);
#238=ADVANCED_FACE('',(#226),#21,.F.);
#239=CLOSED_SHELL('',(#228,#229,#230,#231,#232,#233,#234,#235,#236,#237,
#238));
#240=STYLED_ITEM('',(#241),#248);
#241=PRESENTATION_STYLE_ASSIGNMENT((#242));
#242=SURFACE_STYLE_USAGE(.BOTH.,#243);
#243=SURFACE_SIDE_STYLE('',(#244));
#244=SURFACE_STYLE_FILL_AREA(#245);
#245=FILL_AREA_STYLE('',(#246));
#246=FILL_AREA_STYLE_COLOUR('',#247);
#247=COLOUR_RGB('',0.231372549019608,0.380392156862745,0.705882352941177);
#248=MANIFOLD_SOLID_BREP('Bottom Weight',#239);
#249=SHAPE_DEFINITION_REPRESENTATION(#447,#250);
#250=SHAPE_REPRESENTATION('Bottom Weight',(#251),#442);
#251=AXIS2_PLACEMENT_3D('',#313,#262,#263);
#252=AXIS2_PLACEMENT_3D('',#392,#268,#269);
#253=AXIS2_PLACEMENT_3D('',#406,#277,#278);
#254=AXIS2_PLACEMENT_3D('',#417,#285,#286);
#255=AXIS2_PLACEMENT_3D('',#421,#289,#290);
#256=AXIS2_PLACEMENT_3D('',#430,#296,#297);
#257=AXIS2_PLACEMENT_3D('',#432,#299,#300);
#258=AXIS2_PLACEMENT_3D('',#433,#301,#302);
#259=AXIS2_PLACEMENT_3D('',#436,#305,#306);
#260=AXIS2_PLACEMENT_3D('',#438,#308,#309);
#261=AXIS2_PLACEMENT_3D('',#440,#311,#312);
#262=DIRECTION('',(0.,0.,1.));
#263=DIRECTION('',(1.,0.,0.));
#264=DIRECTION('',(-1.,-1.17211045674109E-16,0.));
#265=DIRECTION('',(-1.,-1.17211045674109E-16,0.));
#266=DIRECTION('',(-1.,-1.17211045674109E-16,0.));
#267=DIRECTION('',(-1.,-1.17211045674109E-16,0.));
#268=DIRECTION('',(0.,0.,-1.));
#269=DIRECTION('',(-1.,0.,0.));
#270=DIRECTION('',(-1.28661675448022E-17,1.,0.));
#271=DIRECTION('',(-1.,-1.17211045674109E-16,0.));
#272=DIRECTION('',(1.17211045674109E-16,-1.,0.));
#273=DIRECTION('',(1.17211045674109E-16,-1.,0.));
#274=DIRECTION('',(-1.,-1.17211045674109E-16,0.));
#275=DIRECTION('',(-1.28661675448022E-17,1.,0.));
#276=DIRECTION('',(-1.,1.44560289664734E-16,0.));
#277=DIRECTION('',(-3.883370896199E-17,0.331314414427822,-0.943520407194433));
#278=DIRECTION('',(0.,0.943520407194433,0.331314414427823));
#279=DIRECTION('',(4.62223186652937E-33,0.943520407194433,0.331314414427823));
#280=DIRECTION('',(1.,1.28661675448022E-17,-3.66403968926869E-17));
#281=DIRECTION('',(3.08148791101958E-33,0.943520407194433,0.331314414427823));
#282=DIRECTION('',(1.1059101354212E-16,-0.943520407194433,-0.331314414427823));
#283=DIRECTION('',(-1.,-1.17211045674109E-16,0.));
#284=DIRECTION('',(1.1059101354212E-16,-0.943520407194433,-0.331314414427823));
#285=DIRECTION('',(1.,1.17211045674109E-16,0.));
#286=DIRECTION('',(-1.17211045674109E-16,1.,0.));
#287=DIRECTION('',(-3.883370896199E-17,0.331314414427822,-0.943520407194433));
#288=DIRECTION('',(-1.1059101354212E-16,0.943520407194433,0.331314414427822));
#289=DIRECTION('',(3.883370896199E-17,-0.331314414427822,0.943520407194433));
#290=DIRECTION('',(0.,-0.943520407194433,-0.331314414427822));
#291=DIRECTION('',(1.,1.28661675448022E-17,-3.66403968926869E-17));
#292=DIRECTION('',(2.15570389105968E-33,0.943520407194433,0.331314414427822));
#293=DIRECTION('',(-1.,-1.17211045674109E-16,0.));
#294=DIRECTION('',(-1.1059101354212E-16,0.943520407194433,0.331314414427822));
#295=DIRECTION('',(0.,0.943520407194433,0.331314414427822));
#296=DIRECTION('',(1.,1.17211045674109E-16,0.));
#297=DIRECTION('',(-1.17211045674109E-16,1.,0.));
#298=DIRECTION('',(-3.883370896199E-17,0.331314414427822,-0.943520407194433));
#299=DIRECTION('',(-1.1059101354212E-16,0.943520407194433,0.331314414427822));
#300=DIRECTION('',(0.,-0.331314414427822,0.943520407194433));
#301=DIRECTION('',(-1.36395583368615E-16,-0.943520407194433,-0.331314414427822));
#302=DIRECTION('',(0.,0.331314414427822,-0.943520407194433));
#303=DIRECTION('',(-3.883370896199E-17,0.331314414427822,-0.943520407194433));
#304=DIRECTION('',(-3.883370896199E-17,0.331314414427822,-0.943520407194433));
#305=DIRECTION('',(-1.,-1.28661675448022E-17,3.66403968926869E-17));
#306=DIRECTION('',(3.66403968926869E-17,0.,1.));
#307=DIRECTION('',(-3.883370896199E-17,0.331314414427822,-0.943520407194433));
#308=DIRECTION('',(1.57863110195675E-33,0.943520407194433,0.331314414427822));
#309=DIRECTION('',(0.,-0.331314414427822,0.943520407194433));
#310=DIRECTION('',(-3.883370896199E-17,0.331314414427822,-0.943520407194433));
#311=DIRECTION('',(-1.,-1.28661675448022E-17,3.66403968926869E-17));
#312=DIRECTION('',(3.66403968926869E-17,0.,1.));
#313=CARTESIAN_POINT('',(0.,0.,0.));
#314=CARTESIAN_POINT('',(0.35992,0.00613778077017736,-0.025064268893603));
#315=CARTESIAN_POINT('',(0.29,0.00613778077017735,-0.025064268893603));
#316=CARTESIAN_POINT('',(0.35992,0.00976018845450778,-0.0235088800880512));
#317=CARTESIAN_POINT('',(0.29,0.00976018845450777,-0.0235088800880512));
#318=CARTESIAN_POINT('',(0.35992,0.0169869477977582,-0.0204052783079329));
#319=CARTESIAN_POINT('',(0.29,0.0169869477977582,-0.0204052783079329));
#320=CARTESIAN_POINT('',(0.35992,0.0269324777032008,-0.0158568047025985));
#321=CARTESIAN_POINT('',(0.29,0.0269324777032008,-0.0158568047025985));
#322=CARTESIAN_POINT('',(0.35992,0.0351815984596482,-0.0115030694415899));
#323=CARTESIAN_POINT('',(0.29,0.0351815984596482,-0.0115030694415899));
#324=CARTESIAN_POINT('',(0.35992,0.038805647219548,-0.00888786342935467));
#325=CARTESIAN_POINT('',(0.29,0.038805647219548,-0.00888786342935467));
#326=CARTESIAN_POINT('',(0.35992,0.04035057325186,-0.0075999991668877));
#327=CARTESIAN_POINT('',(0.29,0.0403505732518599,-0.0075999991668877));
#328=CARTESIAN_POINT('',(0.33696,0.00613778077017736,-0.025064268893603));
#329=CARTESIAN_POINT('',(0.33696,0.00988127045610137,-0.0234568899184611));
#330=CARTESIAN_POINT('',(0.33696,0.0154821858946929,-0.0210512618918026));
#331=CARTESIAN_POINT('',(0.33696,0.0224639952953273,-0.0179004591740199));
#332=CARTESIAN_POINT('',(0.33696,0.0273410900224341,-0.0155788836090164));
#333=CARTESIAN_POINT('',(0.33696,0.0310044789118769,-0.0136928590924884));
#334=CARTESIAN_POINT('',(0.33696,0.0336304374071702,-0.0122252823828223));
#335=CARTESIAN_POINT('',(0.33696,0.0354323584033727,-0.0111488095338319));
#336=CARTESIAN_POINT('',(0.33696,0.0370430788294919,-0.0101045535391477));
#337=CARTESIAN_POINT('',(0.33696,0.038484672825845,-0.00908130156107983));
#338=CARTESIAN_POINT('',(0.33696,0.039560259938123,-0.00825005479637348));
#339=CARTESIAN_POINT('',(0.33696,0.0401616524038158,-0.00775748528825679));
#340=CARTESIAN_POINT('',(0.33696,0.04035057325186,-0.0075999991668877));
#341=CARTESIAN_POINT('',(0.33696,0.00726456755790201,-0.024580384380598));
#342=CARTESIAN_POINT('',(0.33696,0.00613778077021133,-0.0250642688936998));
#343=CARTESIAN_POINT('',(0.35992,0.0072645675580086,-0.0245803843809018));
#344=CARTESIAN_POINT('',(0.31296,0.007264567557902,-0.024580384380598));
#345=CARTESIAN_POINT('',(0.31296,0.00613778077017735,-0.025064268893603));
#346=CARTESIAN_POINT('',(0.31296,0.00988127045610137,-0.0234568899184611));
#347=CARTESIAN_POINT('',(0.31296,0.0154821858946929,-0.0210512618918026));
#348=CARTESIAN_POINT('',(0.31296,0.0224639952953273,-0.0179004591740199));
#349=CARTESIAN_POINT('',(0.31296,0.0273410900224341,-0.0155788836090164));
#350=CARTESIAN_POINT('',(0.31296,0.0310044789118769,-0.0136928590924884));
#351=CARTESIAN_POINT('',(0.31296,0.0336304374071702,-0.0122252823828223));
#352=CARTESIAN_POINT('',(0.31296,0.0354323584033727,-0.0111488095338319));
#353=CARTESIAN_POINT('',(0.31296,0.0370430788294919,-0.0101045535391477));
#354=CARTESIAN_POINT('',(0.31296,0.038484672825845,-0.00908130156107983));
#355=CARTESIAN_POINT('',(0.31296,0.039560259938123,-0.00825005479637348));
#356=CARTESIAN_POINT('',(0.31296,0.0401616524038158,-0.00775748528825679));
#357=CARTESIAN_POINT('',(0.31296,0.0403505732518599,-0.0075999991668877));
#358=CARTESIAN_POINT('',(0.31296,0.00613778077017735,-0.025064268893603));
#359=CARTESIAN_POINT('',(0.35992,0.00613778077017736,-0.025064268893603));
#360=CARTESIAN_POINT('',(0.29,0.00613778077017735,-0.025064268893603));
#361=CARTESIAN_POINT('',(0.29,0.00613778077017735,-0.025064268893603));
#362=CARTESIAN_POINT('',(0.29,0.00988127045610137,-0.0234568899184611));
#363=CARTESIAN_POINT('',(0.29,0.0154821858946929,-0.0210512618918026));
#364=CARTESIAN_POINT('',(0.29,0.0224639952953273,-0.0179004591740199));
#365=CARTESIAN_POINT('',(0.29,0.0273410900224341,-0.0155788836090164));
#366=CARTESIAN_POINT('',(0.29,0.0310044789118769,-0.0136928590924884));
#367=CARTESIAN_POINT('',(0.29,0.0336304374071702,-0.0122252823828223));
#368=CARTESIAN_POINT('',(0.29,0.0354323584033727,-0.0111488095338319));
#369=CARTESIAN_POINT('',(0.29,0.0370430788294919,-0.0101045535391477));
#370=CARTESIAN_POINT('',(0.29,0.038484672825845,-0.00908130156107983));
#371=CARTESIAN_POINT('',(0.29,0.039560259938123,-0.00825005479637348));
#372=CARTESIAN_POINT('',(0.29,0.0401616524038158,-0.00775748528825679));
#373=CARTESIAN_POINT('',(0.29,0.0403505732518599,-0.0075999991668877));
#374=CARTESIAN_POINT('',(0.29,0.04035057394635,-0.0076));
#375=CARTESIAN_POINT('',(0.35992,0.04035057394635,-0.0076));
#376=CARTESIAN_POINT('',(0.35992,0.04035057394635,-0.0076));
#377=CARTESIAN_POINT('',(0.35992,0.00613778077017736,-0.025064268893603));
#378=CARTESIAN_POINT('',(0.35992,0.00988127045610138,-0.0234568899184611));
#379=CARTESIAN_POINT('',(0.35992,0.0154821858946929,-0.0210512618918026));
#380=CARTESIAN_POINT('',(0.35992,0.0224639952953273,-0.0179004591740199));
#381=CARTESIAN_POINT('',(0.35992,0.0273410900224341,-0.0155788836090164));
#382=CARTESIAN_POINT('',(0.35992,0.0310044789118769,-0.0136928590924884));
#383=CARTESIAN_POINT('',(0.35992,0.0336304374071702,-0.0122252823828223));
#384=CARTESIAN_POINT('',(0.35992,0.0354323584033727,-0.0111488095338319));
#385=CARTESIAN_POINT('',(0.35992,0.0370430788294919,-0.0101045535391477));
#386=CARTESIAN_POINT('',(0.35992,0.038484672825845,-0.00908130156107983));
#387=CARTESIAN_POINT('',(0.35992,0.039560259938123,-0.00825005479637348));
#388=CARTESIAN_POINT('',(0.35992,0.0401616524038158,-0.00775748528825679));
#389=CARTESIAN_POINT('',(0.35992,0.04035057325186,-0.0075999991668877));
#390=CARTESIAN_POINT('',(0.35992,0.00613778077017736,-0.025064268893603));
#391=CARTESIAN_POINT('',(0.35992,0.00613778077017736,-0.025064268893603));
#392=CARTESIAN_POINT('',(0.35992,-0.00164171261127643,-0.0076));
#393=CARTESIAN_POINT('',(0.33696,-0.00164171261127643,-0.0076));
#394=CARTESIAN_POINT('',(0.33696,-0.043633999168903,-0.0076));
#395=CARTESIAN_POINT('',(0.33696,0.00130195555192995,-0.0076));
#396=CARTESIAN_POINT('',(0.35992,-0.043633999168903,-0.0076));
#397=CARTESIAN_POINT('',(0.35992,-0.043633999168903,-0.0076));
#398=CARTESIAN_POINT('',(0.35992,-0.00164171261127643,-0.0076));
#399=CARTESIAN_POINT('',(0.29,-0.00164171261127645,-0.0076));
#400=CARTESIAN_POINT('',(0.29,-0.043633999168903,-0.0076));
#401=CARTESIAN_POINT('',(0.35992,-0.043633999168903,-0.0076));
#402=CARTESIAN_POINT('',(0.31296,-0.043633999168903,-0.0076));
#403=CARTESIAN_POINT('',(0.31296,-0.00164171261127643,-0.0076));
#404=CARTESIAN_POINT('',(0.31296,0.00130195555192992,-0.0076));
#405=CARTESIAN_POINT('',(0.35992,0.0013019555519299,-0.0076));
#406=CARTESIAN_POINT('',(0.35992,-0.0505226462398515,-0.0100189281472965));
#407=CARTESIAN_POINT('',(0.33696,-0.0505226462398515,-0.0100189281472965));
#408=CARTESIAN_POINT('',(0.33696,-0.0602418545323833,-0.0134317995378764));
#409=CARTESIAN_POINT('',(0.35992,-0.0602418545323833,-0.0134317995378764));
#410=CARTESIAN_POINT('',(0.31296,-0.0602418545323833,-0.0134317995378764));
#411=CARTESIAN_POINT('',(0.31296,-0.0505226462398515,-0.0100189281472965));
#412=CARTESIAN_POINT('',(0.29,-0.0505226462398515,-0.0100189281472965));
#413=CARTESIAN_POINT('',(0.29,-0.0696770586043276,-0.0167449436821546));
#414=CARTESIAN_POINT('',(0.35992,-0.0696770586043276,-0.0167449436821546));
#415=CARTESIAN_POINT('',(0.35992,-0.0696770586043276,-0.0167449436821546));
#416=CARTESIAN_POINT('',(0.35992,-0.0505226462398515,-0.0100189281472965));
#417=CARTESIAN_POINT('',(0.35992,-0.00817172261588073,-0.0255631181468433));
#418=CARTESIAN_POINT('',(0.35992,-0.0642156714285615,-0.032297935123304));
#419=CARTESIAN_POINT('',(0.35992,-0.0587542842527953,-0.0478509265644534));
#420=CARTESIAN_POINT('',(0.35992,-0.0201753690945249,-0.0343040540352946));
#421=CARTESIAN_POINT('',(0.35992,-0.0201753690945249,-0.0343040540352946));
#422=CARTESIAN_POINT('',(0.33096,-0.049319080180851,-0.0445377824201752));
#423=CARTESIAN_POINT('',(0.31296,-0.049319080180851,-0.0445377824201752));
#424=CARTESIAN_POINT('',(0.33696,-0.049319080180851,-0.0445377824201752));
#425=CARTESIAN_POINT('',(0.33696,-0.021013467965018,-0.0345983499873405));
#426=CARTESIAN_POINT('',(0.35992,-0.0587542842527953,-0.0478509265644534));
#427=CARTESIAN_POINT('',(0.29,-0.0587542842527953,-0.0478509265644534));
#428=CARTESIAN_POINT('',(0.29,-0.0201753690945249,-0.0343040540352946));
#429=CARTESIAN_POINT('',(0.31296,-0.021013467965018,-0.0345983499873405));
#430=CARTESIAN_POINT('',(0.29,-0.00817172261588074,-0.0255631181468433));
#431=CARTESIAN_POINT('',(0.29,-0.0642156714285615,-0.032297935123304));
#432=CARTESIAN_POINT('',(0.412702,-0.0642156714285615,-0.032297935123304));
#433=CARTESIAN_POINT('',(0.31896,-0.0129180350292821,0.0328958272843546));
#434=CARTESIAN_POINT('',(0.33696,-0.0129180350292821,0.0328958272843546));
#435=CARTESIAN_POINT('',(0.31296,-0.0129180350292821,0.0328958272843546));
#436=CARTESIAN_POINT('',(0.33696,-0.0412236472451151,0.0229563948515199));
#437=CARTESIAN_POINT('',(0.33696,-0.0695292594609481,0.0130169624186853));
#438=CARTESIAN_POINT('',(0.33096,-0.0695292594609481,0.0130169624186853));
#439=CARTESIAN_POINT('',(0.31296,-0.0695292594609481,0.0130169624186853));
#440=CARTESIAN_POINT('',(0.31296,-0.0412236472451151,0.0229563948515199));
#441=MECHANICAL_DESIGN_GEOMETRIC_PRESENTATION_REPRESENTATION('',(#240),
#442);
#442=(
GEOMETRIC_REPRESENTATION_CONTEXT(3)
GLOBAL_UNCERTAINTY_ASSIGNED_CONTEXT((#443))
GLOBAL_UNIT_ASSIGNED_CONTEXT((#446,#445,#444))
REPRESENTATION_CONTEXT('Bottom Weight','TOP_LEVEL_ASSEMBLY_PART')
);
#443=UNCERTAINTY_MEASURE_WITH_UNIT(LENGTH_MEASURE(2.E-5),#446,
'DISTANCE_ACCURACY_VALUE','Maximum Tolerance applied to model');
#444=(
NAMED_UNIT(*)
SI_UNIT($,.STERADIAN.)
SOLID_ANGLE_UNIT()
);
#445=(
NAMED_UNIT(*)
PLANE_ANGLE_UNIT()
SI_UNIT($,.RADIAN.)
);
#446=(
LENGTH_UNIT()
NAMED_UNIT(*)
SI_UNIT($,.METRE.)
);
#447=PRODUCT_DEFINITION_SHAPE('','',#448);
#448=PRODUCT_DEFINITION('','',#450,#449);
#449=PRODUCT_DEFINITION_CONTEXT('',#456,'design');
#450=PRODUCT_DEFINITION_FORMATION_WITH_SPECIFIED_SOURCE('','',#452,
 .NOT_KNOWN.);
#451=PRODUCT_RELATED_PRODUCT_CATEGORY('','',(#452));
#452=PRODUCT('Bottom Weight','Bottom Weight','Bottom Weight',(#454));
#453=PRODUCT_CATEGORY('','');
#454=PRODUCT_CONTEXT('',#456,'mechanical');
#455=APPLICATION_PROTOCOL_DEFINITION('international standard',
'ap242_managed_model_based_3d_engineering',2020,#456);
#456=APPLICATION_CONTEXT('managed model based 3d engineering');
ENDSEC;
END-ISO-10303-21;
