ISO-10303-21;
HEADER;
/* Generated by software containing ST-Developer
 * from STEP Tools, Inc. (www.steptools.com) 
 */
/* OPTION: using custom renumber hook */

FILE_DESCRIPTION(
/* description */ ('STEP AP242 Edition 2',
'CAx-IF Rec.Pracs.---Representation and Presentation of Product Manufa
cturing Information (PMI)---4.0---2014-10-13',
'CAx-IF Rec.Pracs.---3D Tessellated Geometry---0.4---2014-09-14','2;1',
'CAx-IF Rec.Pracs.---User Defined Attributes---1.5---2016-08-15'),
/* implementation_level */ '2;1');

FILE_NAME(
/* name */ 'Part Studio 1',
/* time_stamp */ '2026-09-15T01:52:00Z',
/* author */ (''),
/* organization */ (''),
/* preprocessor_version */ 'ST-DEVELOPER v20',
/* originating_system */ 'ONSHAPE BY PTC INC, 1.220',
/* authorisation */ '  ');

FILE_SCHEMA (('AP242_MANAGED_MODEL_BASED_3D_ENGINEERING_MIM_LF { 1 0 10303 442 3 1 4 }'));
ENDSEC;

DATA;
#10=SHAPE_REPRESENTATION_RELATIONSHIP('','',#537,#11);
#11=ADVANCED_BREP_SHAPE_REPRESENTATION('',(#535),#907);
#12=CYLINDRICAL_SURFACE('',#567,0.001);
#13=CYLINDRICAL_SURFACE('',#570,0.002);
#14=CYLINDRICAL_SURFACE('',#574,0.001);
#15=CYLINDRICAL_SURFACE('',#577,0.002);
#16=CYLINDRICAL_SURFACE('',#581,0.001);
#17=CYLINDRICAL_SURFACE('',#584,0.002);
#18=CYLINDRICAL_SURFACE('',#588,0.001);
#19=CYLINDRICAL_SURFACE('',#591,0.002);
#20=CYLINDRICAL_SURFACE('',#595,0.0035);
#21=CYLINDRICAL_SURFACE('',#596,0.0035);
#22=CYLINDRICAL_SURFACE('',#597,0.0035);
#23=CYLINDRICAL_SURFACE('',#598,0.0035);
#24=CYLINDRICAL_SURFACE('',#599,0.0015);
#25=CYLINDRICAL_SURFACE('',#600,0.0015);
#26=LINE('',#767,#60);
#27=LINE('',#770,#61);
#28=LINE('',#772,#62);
#29=LINE('',#774,#63);
#30=LINE('',#784,#64);
#31=LINE('',#787,#65);
#32=LINE('',#789,#66);
#33=LINE('',#791,#67);
#34=LINE('',#792,#68);
#35=LINE('',#797,#69);
#36=LINE('',#801,#70);
#37=LINE('',#805,#71);
#38=LINE('',#813,#72);
#39=LINE('',#815,#73);
#40=LINE('',#816,#74);
#41=LINE('',#818,#75);
#42=LINE('',#820,#76);
#43=LINE('',#822,#77);
#44=LINE('',#824,#78);
#45=LINE('',#826,#79);
#46=LINE('',#827,#80);
#47=LINE('',#829,#81);
#48=LINE('',#831,#82);
#49=LINE('',#834,#83);
#50=LINE('',#835,#84);
#51=LINE('',#837,#85);
#52=LINE('',#839,#86);
#53=LINE('',#841,#87);
#54=LINE('',#843,#88);
#55=LINE('',#845,#89);
#56=LINE('',#847,#90);
#57=LINE('',#849,#91);
#58=LINE('',#852,#92);
#59=LINE('',#853,#93);
#60=VECTOR('',#609,1.);
#61=VECTOR('',#610,1.);
#62=VECTOR('',#611,1.);
#63=VECTOR('',#612,1.);
#64=VECTOR('',#623,1.);
#65=VECTOR('',#624,1.);
#66=VECTOR('',#625,1.);
#67=VECTOR('',#626,1.);
#68=VECTOR('',#627,1.);
#69=VECTOR('',#630,1.);
#70=VECTOR('',#633,1.);
#71=VECTOR('',#636,1.);
#72=VECTOR('',#645,1.);
#73=VECTOR('',#646,1.);
#74=VECTOR('',#647,1.);
#75=VECTOR('',#648,1.);
#76=VECTOR('',#651,1.);
#77=VECTOR('',#652,1.);
#78=VECTOR('',#655,1.);
#79=VECTOR('',#656,1.);
#80=VECTOR('',#657,1.);
#81=VECTOR('',#660,1.);
#82=VECTOR('',#663,1.);
#83=VECTOR('',#664,1.);
#84=VECTOR('',#665,1.);
#85=VECTOR('',#668,1.);
#86=VECTOR('',#669,1.);
#87=VECTOR('',#670,1.);
#88=VECTOR('',#673,1.);
#89=VECTOR('',#674,1.);
#90=VECTOR('',#675,1.);
#91=VECTOR('',#678,1.);
#92=VECTOR('',#679,1.);
#93=VECTOR('',#680,1.);
#94=ORIENTED_EDGE('',*,*,#218,.T.);
#95=ORIENTED_EDGE('',*,*,#219,.T.);
#96=ORIENTED_EDGE('',*,*,#220,.T.);
#97=ORIENTED_EDGE('',*,*,#221,.T.);
#98=ORIENTED_EDGE('',*,*,#222,.F.);
#99=ORIENTED_EDGE('',*,*,#223,.T.);
#100=ORIENTED_EDGE('',*,*,#224,.T.);
#101=ORIENTED_EDGE('',*,*,#225,.T.);
#102=ORIENTED_EDGE('',*,*,#226,.T.);
#103=ORIENTED_EDGE('',*,*,#227,.T.);
#104=ORIENTED_EDGE('',*,*,#228,.T.);
#105=ORIENTED_EDGE('',*,*,#229,.F.);
#106=ORIENTED_EDGE('',*,*,#230,.T.);
#107=ORIENTED_EDGE('',*,*,#231,.T.);
#108=ORIENTED_EDGE('',*,*,#232,.F.);
#109=ORIENTED_EDGE('',*,*,#233,.T.);
#110=ORIENTED_EDGE('',*,*,#234,.F.);
#111=ORIENTED_EDGE('',*,*,#235,.T.);
#112=ORIENTED_EDGE('',*,*,#236,.T.);
#113=ORIENTED_EDGE('',*,*,#237,.T.);
#114=ORIENTED_EDGE('',*,*,#238,.T.);
#115=ORIENTED_EDGE('',*,*,#239,.T.);
#116=ORIENTED_EDGE('',*,*,#240,.F.);
#117=ORIENTED_EDGE('',*,*,#241,.F.);
#118=ORIENTED_EDGE('',*,*,#242,.T.);
#119=ORIENTED_EDGE('',*,*,#222,.T.);
#120=ORIENTED_EDGE('',*,*,#243,.F.);
#121=ORIENTED_EDGE('',*,*,#231,.F.);
#122=ORIENTED_EDGE('',*,*,#244,.F.);
#123=ORIENTED_EDGE('',*,*,#245,.F.);
#124=ORIENTED_EDGE('',*,*,#223,.F.);
#125=ORIENTED_EDGE('',*,*,#242,.F.);
#126=ORIENTED_EDGE('',*,*,#246,.T.);
#127=ORIENTED_EDGE('',*,*,#247,.T.);
#128=ORIENTED_EDGE('',*,*,#220,.F.);
#129=ORIENTED_EDGE('',*,*,#247,.F.);
#130=ORIENTED_EDGE('',*,*,#248,.T.);
#131=ORIENTED_EDGE('',*,*,#249,.T.);
#132=ORIENTED_EDGE('',*,*,#229,.T.);
#133=ORIENTED_EDGE('',*,*,#250,.T.);
#134=ORIENTED_EDGE('',*,*,#244,.T.);
#135=ORIENTED_EDGE('',*,*,#230,.F.);
#136=ORIENTED_EDGE('',*,*,#249,.F.);
#137=ORIENTED_EDGE('',*,*,#251,.F.);
#138=ORIENTED_EDGE('',*,*,#252,.T.);
#139=ORIENTED_EDGE('',*,*,#253,.T.);
#140=ORIENTED_EDGE('',*,*,#238,.F.);
#141=ORIENTED_EDGE('',*,*,#254,.T.);
#142=ORIENTED_EDGE('',*,*,#236,.F.);
#143=ORIENTED_EDGE('',*,*,#255,.T.);
#144=ORIENTED_EDGE('',*,*,#256,.T.);
#145=ORIENTED_EDGE('',*,*,#257,.T.);
#146=ORIENTED_EDGE('',*,*,#234,.T.);
#147=ORIENTED_EDGE('',*,*,#258,.T.);
#148=ORIENTED_EDGE('',*,*,#259,.F.);
#149=ORIENTED_EDGE('',*,*,#260,.T.);
#150=ORIENTED_EDGE('',*,*,#261,.F.);
#151=ORIENTED_EDGE('',*,*,#262,.T.);
#152=ORIENTED_EDGE('',*,*,#232,.T.);
#153=ORIENTED_EDGE('',*,*,#263,.T.);
#154=ORIENTED_EDGE('',*,*,#259,.T.);
#155=ORIENTED_EDGE('',*,*,#264,.T.);
#156=ORIENTED_EDGE('',*,*,#261,.T.);
#157=ORIENTED_EDGE('',*,*,#265,.T.);
#158=ORIENTED_EDGE('',*,*,#252,.F.);
#159=ORIENTED_EDGE('',*,*,#266,.T.);
#160=ORIENTED_EDGE('',*,*,#256,.F.);
#161=ORIENTED_EDGE('',*,*,#267,.T.);
#162=ORIENTED_EDGE('',*,*,#246,.F.);
#163=ORIENTED_EDGE('',*,*,#245,.T.);
#164=ORIENTED_EDGE('',*,*,#251,.T.);
#165=ORIENTED_EDGE('',*,*,#248,.F.);
#166=ORIENTED_EDGE('',*,*,#243,.T.);
#167=ORIENTED_EDGE('',*,*,#221,.F.);
#168=ORIENTED_EDGE('',*,*,#250,.F.);
#169=ORIENTED_EDGE('',*,*,#228,.F.);
#170=ORIENTED_EDGE('',*,*,#268,.F.);
#171=ORIENTED_EDGE('',*,*,#269,.T.);
#172=ORIENTED_EDGE('',*,*,#270,.T.);
#173=ORIENTED_EDGE('',*,*,#227,.F.);
#174=ORIENTED_EDGE('',*,*,#268,.T.);
#175=ORIENTED_EDGE('',*,*,#270,.F.);
#176=ORIENTED_EDGE('',*,*,#269,.F.);
#177=ORIENTED_EDGE('',*,*,#271,.F.);
#178=ORIENTED_EDGE('',*,*,#272,.T.);
#179=ORIENTED_EDGE('',*,*,#273,.T.);
#180=ORIENTED_EDGE('',*,*,#226,.F.);
#181=ORIENTED_EDGE('',*,*,#271,.T.);
#182=ORIENTED_EDGE('',*,*,#273,.F.);
#183=ORIENTED_EDGE('',*,*,#272,.F.);
#184=ORIENTED_EDGE('',*,*,#274,.F.);
#185=ORIENTED_EDGE('',*,*,#275,.T.);
#186=ORIENTED_EDGE('',*,*,#276,.T.);
#187=ORIENTED_EDGE('',*,*,#225,.F.);
#188=ORIENTED_EDGE('',*,*,#274,.T.);
#189=ORIENTED_EDGE('',*,*,#276,.F.);
#190=ORIENTED_EDGE('',*,*,#275,.F.);
#191=ORIENTED_EDGE('',*,*,#277,.F.);
#192=ORIENTED_EDGE('',*,*,#278,.T.);
#193=ORIENTED_EDGE('',*,*,#279,.T.);
#194=ORIENTED_EDGE('',*,*,#224,.F.);
#195=ORIENTED_EDGE('',*,*,#277,.T.);
#196=ORIENTED_EDGE('',*,*,#279,.F.);
#197=ORIENTED_EDGE('',*,*,#278,.F.);
#198=ORIENTED_EDGE('',*,*,#264,.F.);
#199=ORIENTED_EDGE('',*,*,#258,.F.);
#200=ORIENTED_EDGE('',*,*,#233,.F.);
#201=ORIENTED_EDGE('',*,*,#262,.F.);
#202=ORIENTED_EDGE('',*,*,#267,.F.);
#203=ORIENTED_EDGE('',*,*,#255,.F.);
#204=ORIENTED_EDGE('',*,*,#235,.F.);
#205=ORIENTED_EDGE('',*,*,#260,.F.);
#206=ORIENTED_EDGE('',*,*,#265,.F.);
#207=ORIENTED_EDGE('',*,*,#263,.F.);
#208=ORIENTED_EDGE('',*,*,#239,.F.);
#209=ORIENTED_EDGE('',*,*,#253,.F.);
#210=ORIENTED_EDGE('',*,*,#266,.F.);
#211=ORIENTED_EDGE('',*,*,#254,.F.);
#212=ORIENTED_EDGE('',*,*,#237,.F.);
#213=ORIENTED_EDGE('',*,*,#257,.F.);
#214=ORIENTED_EDGE('',*,*,#241,.T.);
#215=ORIENTED_EDGE('',*,*,#219,.F.);
#216=ORIENTED_EDGE('',*,*,#240,.T.);
#217=ORIENTED_EDGE('',*,*,#218,.F.);
#218=EDGE_CURVE('',#280,#280,#328,.F.);
#219=EDGE_CURVE('',#281,#281,#329,.F.);
#220=EDGE_CURVE('',#282,#283,#26,.T.);
#221=EDGE_CURVE('',#283,#284,#27,.T.);
#222=EDGE_CURVE('',#285,#284,#28,.T.);
#223=EDGE_CURVE('',#285,#282,#29,.T.);
#224=EDGE_CURVE('',#286,#286,#330,.T.);
#225=EDGE_CURVE('',#287,#287,#331,.T.);
#226=EDGE_CURVE('',#288,#288,#332,.T.);
#227=EDGE_CURVE('',#289,#289,#333,.T.);
#228=EDGE_CURVE('',#290,#291,#30,.T.);
#229=EDGE_CURVE('',#292,#291,#31,.T.);
#230=EDGE_CURVE('',#292,#293,#32,.T.);
#231=EDGE_CURVE('',#293,#290,#33,.T.);
#232=EDGE_CURVE('',#294,#295,#34,.T.);
#233=EDGE_CURVE('',#294,#296,#334,.F.);
#234=EDGE_CURVE('',#297,#296,#35,.T.);
#235=EDGE_CURVE('',#297,#298,#335,.F.);
#236=EDGE_CURVE('',#298,#299,#36,.T.);
#237=EDGE_CURVE('',#299,#300,#336,.F.);
#238=EDGE_CURVE('',#300,#301,#37,.T.);
#239=EDGE_CURVE('',#301,#295,#337,.F.);
#240=EDGE_CURVE('',#302,#302,#338,.F.);
#241=EDGE_CURVE('',#303,#303,#339,.F.);
#242=EDGE_CURVE('',#304,#285,#38,.T.);
#243=EDGE_CURVE('',#290,#284,#39,.T.);
#244=EDGE_CURVE('',#305,#293,#40,.T.);
#245=EDGE_CURVE('',#304,#305,#41,.T.);
#246=EDGE_CURVE('',#304,#306,#42,.T.);
#247=EDGE_CURVE('',#306,#282,#43,.T.);
#248=EDGE_CURVE('',#306,#307,#44,.T.);
#249=EDGE_CURVE('',#307,#292,#45,.T.);
#250=EDGE_CURVE('',#291,#283,#46,.T.);
#251=EDGE_CURVE('',#305,#307,#47,.T.);
#252=EDGE_CURVE('',#308,#309,#48,.T.);
#253=EDGE_CURVE('',#309,#301,#49,.T.);
#254=EDGE_CURVE('',#300,#308,#50,.F.);
#255=EDGE_CURVE('',#298,#310,#51,.F.);
#256=EDGE_CURVE('',#310,#311,#52,.T.);
#257=EDGE_CURVE('',#311,#299,#53,.T.);
#258=EDGE_CURVE('',#296,#312,#54,.F.);
#259=EDGE_CURVE('',#313,#312,#55,.T.);
#260=EDGE_CURVE('',#313,#297,#56,.T.);
#261=EDGE_CURVE('',#314,#315,#57,.T.);
#262=EDGE_CURVE('',#314,#294,#58,.T.);
#263=EDGE_CURVE('',#295,#315,#59,.F.);
#264=EDGE_CURVE('',#312,#314,#340,.T.);
#265=EDGE_CURVE('',#315,#309,#341,.T.);
#266=EDGE_CURVE('',#308,#311,#342,.T.);
#267=EDGE_CURVE('',#310,#313,#343,.T.);
#268=EDGE_CURVE('',#316,#316,#344,.T.);
#269=EDGE_CURVE('',#317,#317,#345,.T.);
#270=EDGE_CURVE('',#318,#318,#346,.T.);
#271=EDGE_CURVE('',#319,#319,#347,.T.);
#272=EDGE_CURVE('',#320,#320,#348,.T.);
#273=EDGE_CURVE('',#321,#321,#349,.T.);
#274=EDGE_CURVE('',#322,#322,#350,.T.);
#275=EDGE_CURVE('',#323,#323,#351,.T.);
#276=EDGE_CURVE('',#324,#324,#352,.T.);
#277=EDGE_CURVE('',#325,#325,#353,.T.);
#278=EDGE_CURVE('',#326,#326,#354,.T.);
#279=EDGE_CURVE('',#327,#327,#355,.T.);
#280=VERTEX_POINT('',#764);
#281=VERTEX_POINT('',#766);
#282=VERTEX_POINT('',#768);
#283=VERTEX_POINT('',#769);
#284=VERTEX_POINT('',#771);
#285=VERTEX_POINT('',#773);
#286=VERTEX_POINT('',#777);
#287=VERTEX_POINT('',#779);
#288=VERTEX_POINT('',#781);
#289=VERTEX_POINT('',#783);
#290=VERTEX_POINT('',#785);
#291=VERTEX_POINT('',#786);
#292=VERTEX_POINT('',#788);
#293=VERTEX_POINT('',#790);
#294=VERTEX_POINT('',#793);
#295=VERTEX_POINT('',#794);
#296=VERTEX_POINT('',#796);
#297=VERTEX_POINT('',#798);
#298=VERTEX_POINT('',#800);
#299=VERTEX_POINT('',#802);
#300=VERTEX_POINT('',#804);
#301=VERTEX_POINT('',#806);
#302=VERTEX_POINT('',#809);
#303=VERTEX_POINT('',#811);
#304=VERTEX_POINT('',#814);
#305=VERTEX_POINT('',#817);
#306=VERTEX_POINT('',#821);
#307=VERTEX_POINT('',#825);
#308=VERTEX_POINT('',#832);
#309=VERTEX_POINT('',#833);
#310=VERTEX_POINT('',#838);
#311=VERTEX_POINT('',#840);
#312=VERTEX_POINT('',#844);
#313=VERTEX_POINT('',#846);
#314=VERTEX_POINT('',#850);
#315=VERTEX_POINT('',#851);
#316=VERTEX_POINT('',#862);
#317=VERTEX_POINT('',#864);
#318=VERTEX_POINT('',#867);
#319=VERTEX_POINT('',#872);
#320=VERTEX_POINT('',#874);
#321=VERTEX_POINT('',#877);
#322=VERTEX_POINT('',#882);
#323=VERTEX_POINT('',#884);
#324=VERTEX_POINT('',#887);
#325=VERTEX_POINT('',#892);
#326=VERTEX_POINT('',#894);
#327=VERTEX_POINT('',#897);
#328=CIRCLE('',#540,0.0015);
#329=CIRCLE('',#541,0.0015);
#330=CIRCLE('',#543,0.002);
#331=CIRCLE('',#544,0.002);
#332=CIRCLE('',#545,0.002);
#333=CIRCLE('',#546,0.002);
#334=CIRCLE('',#547,0.0035);
#335=CIRCLE('',#548,0.0035);
#336=CIRCLE('',#549,0.0035);
#337=CIRCLE('',#550,0.0035);
#338=CIRCLE('',#551,0.0015);
#339=CIRCLE('',#552,0.0015);
#340=CIRCLE('',#562,0.0035);
#341=CIRCLE('',#563,0.0035);
#342=CIRCLE('',#564,0.0035);
#343=CIRCLE('',#565,0.0035);
#344=CIRCLE('',#568,0.001);
#345=CIRCLE('',#569,0.001);
#346=CIRCLE('',#571,0.002);
#347=CIRCLE('',#575,0.001);
#348=CIRCLE('',#576,0.001);
#349=CIRCLE('',#578,0.002);
#350=CIRCLE('',#582,0.001);
#351=CIRCLE('',#583,0.001);
#352=CIRCLE('',#585,0.002);
#353=CIRCLE('',#589,0.001);
#354=CIRCLE('',#590,0.001);
#355=CIRCLE('',#592,0.002);
#356=EDGE_LOOP('',(#94));
#357=EDGE_LOOP('',(#95));
#358=EDGE_LOOP('',(#96,#97,#98,#99));
#359=EDGE_LOOP('',(#100));
#360=EDGE_LOOP('',(#101));
#361=EDGE_LOOP('',(#102));
#362=EDGE_LOOP('',(#103));
#363=EDGE_LOOP('',(#104,#105,#106,#107));
#364=EDGE_LOOP('',(#108,#109,#110,#111,#112,#113,#114,#115));
#365=EDGE_LOOP('',(#116));
#366=EDGE_LOOP('',(#117));
#367=EDGE_LOOP('',(#118,#119,#120,#121,#122,#123));
#368=EDGE_LOOP('',(#124,#125,#126,#127));
#369=EDGE_LOOP('',(#128,#129,#130,#131,#132,#133));
#370=EDGE_LOOP('',(#134,#135,#136,#137));
#371=EDGE_LOOP('',(#138,#139,#140,#141));
#372=EDGE_LOOP('',(#142,#143,#144,#145));
#373=EDGE_LOOP('',(#146,#147,#148,#149));
#374=EDGE_LOOP('',(#150,#151,#152,#153));
#375=EDGE_LOOP('',(#154,#155,#156,#157,#158,#159,#160,#161));
#376=EDGE_LOOP('',(#162,#163,#164,#165));
#377=EDGE_LOOP('',(#166,#167,#168,#169));
#378=EDGE_LOOP('',(#170));
#379=EDGE_LOOP('',(#171));
#380=EDGE_LOOP('',(#172));
#381=EDGE_LOOP('',(#173));
#382=EDGE_LOOP('',(#174));
#383=EDGE_LOOP('',(#175));
#384=EDGE_LOOP('',(#176));
#385=EDGE_LOOP('',(#177));
#386=EDGE_LOOP('',(#178));
#387=EDGE_LOOP('',(#179));
#388=EDGE_LOOP('',(#180));
#389=EDGE_LOOP('',(#181));
#390=EDGE_LOOP('',(#182));
#391=EDGE_LOOP('',(#183));
#392=EDGE_LOOP('',(#184));
#393=EDGE_LOOP('',(#185));
#394=EDGE_LOOP('',(#186));
#395=EDGE_LOOP('',(#187));
#396=EDGE_LOOP('',(#188));
#397=EDGE_LOOP('',(#189));
#398=EDGE_LOOP('',(#190));
#399=EDGE_LOOP('',(#191));
#400=EDGE_LOOP('',(#192));
#401=EDGE_LOOP('',(#193));
#402=EDGE_LOOP('',(#194));
#403=EDGE_LOOP('',(#195));
#404=EDGE_LOOP('',(#196));
#405=EDGE_LOOP('',(#197));
#406=EDGE_LOOP('',(#198,#199,#200,#201));
#407=EDGE_LOOP('',(#202,#203,#204,#205));
#408=EDGE_LOOP('',(#206,#207,#208,#209));
#409=EDGE_LOOP('',(#210,#211,#212,#213));
#410=EDGE_LOOP('',(#214));
#411=EDGE_LOOP('',(#215));
#412=EDGE_LOOP('',(#216));
#413=EDGE_LOOP('',(#217));
#414=FACE_BOUND('',#356,.T.);
#415=FACE_BOUND('',#357,.T.);
#416=FACE_BOUND('',#358,.T.);
#417=FACE_BOUND('',#359,.T.);
#418=FACE_BOUND('',#360,.T.);
#419=FACE_BOUND('',#361,.T.);
#420=FACE_BOUND('',#362,.T.);
#421=FACE_BOUND('',#363,.T.);
#422=FACE_BOUND('',#364,.T.);
#423=FACE_BOUND('',#365,.T.);
#424=FACE_BOUND('',#366,.T.);
#425=FACE_BOUND('',#367,.T.);
#426=FACE_BOUND('',#368,.T.);
#427=FACE_BOUND('',#369,.T.);
#428=FACE_BOUND('',#370,.T.);
#429=FACE_BOUND('',#371,.T.);
#430=FACE_BOUND('',#372,.T.);
#431=FACE_BOUND('',#373,.T.);
#432=FACE_BOUND('',#374,.T.);
#433=FACE_BOUND('',#375,.T.);
#434=FACE_BOUND('',#376,.T.);
#435=FACE_BOUND('',#377,.T.);
#436=FACE_BOUND('',#378,.T.);
#437=FACE_BOUND('',#379,.T.);
#438=FACE_BOUND('',#380,.T.);
#439=FACE_BOUND('',#381,.T.);
#440=FACE_BOUND('',#382,.T.);
#441=FACE_BOUND('',#383,.T.);
#442=FACE_BOUND('',#384,.T.);
#443=FACE_BOUND('',#385,.T.);
#444=FACE_BOUND('',#386,.T.);
#445=FACE_BOUND('',#387,.T.);
#446=FACE_BOUND('',#388,.T.);
#447=FACE_BOUND('',#389,.T.);
#448=FACE_BOUND('',#390,.T.);
#449=FACE_BOUND('',#391,.T.);
#450=FACE_BOUND('',#392,.T.);
#451=FACE_BOUND('',#393,.T.);
#452=FACE_BOUND('',#394,.T.);
#453=FACE_BOUND('',#395,.T.);
#454=FACE_BOUND('',#396,.T.);
#455=FACE_BOUND('',#397,.T.);
#456=FACE_BOUND('',#398,.T.);
#457=FACE_BOUND('',#399,.T.);
#458=FACE_BOUND('',#400,.T.);
#459=FACE_BOUND('',#401,.T.);
#460=FACE_BOUND('',#402,.T.);
#461=FACE_BOUND('',#403,.T.);
#462=FACE_BOUND('',#404,.T.);
#463=FACE_BOUND('',#405,.T.);
#464=FACE_BOUND('',#406,.T.);
#465=FACE_BOUND('',#407,.T.);
#466=FACE_BOUND('',#408,.T.);
#467=FACE_BOUND('',#409,.T.);
#468=FACE_BOUND('',#410,.T.);
#469=FACE_BOUND('',#411,.T.);
#470=FACE_BOUND('',#412,.T.);
#471=FACE_BOUND('',#413,.T.);
#472=PLANE('',#539);
#473=PLANE('',#542);
#474=PLANE('',#553);
#475=PLANE('',#554);
#476=PLANE('',#555);
#477=PLANE('',#556);
#478=PLANE('',#557);
#479=PLANE('',#558);
#480=PLANE('',#559);
#481=PLANE('',#560);
#482=PLANE('',#561);
#483=PLANE('',#566);
#484=PLANE('',#572);
#485=PLANE('',#573);
#486=PLANE('',#579);
#487=PLANE('',#580);
#488=PLANE('',#586);
#489=PLANE('',#587);
#490=PLANE('',#593);
#491=PLANE('',#594);
#492=ADVANCED_FACE('',(#414,#415,#416),#472,.T.);
#493=ADVANCED_FACE('',(#417,#418,#419,#420,#421,#422,#423,#424),#473,.F.);
#494=ADVANCED_FACE('',(#425),#474,.F.);
#495=ADVANCED_FACE('',(#426),#475,.T.);
#496=ADVANCED_FACE('',(#427),#476,.T.);
#497=ADVANCED_FACE('',(#428),#477,.F.);
#498=ADVANCED_FACE('',(#429),#478,.T.);
#499=ADVANCED_FACE('',(#430),#479,.T.);
#500=ADVANCED_FACE('',(#431),#480,.F.);
#501=ADVANCED_FACE('',(#432),#481,.F.);
#502=ADVANCED_FACE('',(#433,#434),#482,.T.);
#503=ADVANCED_FACE('',(#435),#483,.T.);
#504=ADVANCED_FACE('',(#436,#437),#12,.F.);
#505=ADVANCED_FACE('',(#438,#439),#13,.T.);
#506=ADVANCED_FACE('',(#440,#441),#484,.F.);
#507=ADVANCED_FACE('',(#442),#485,.F.);
#508=ADVANCED_FACE('',(#443,#444),#14,.F.);
#509=ADVANCED_FACE('',(#445,#446),#15,.T.);
#510=ADVANCED_FACE('',(#447,#448),#486,.F.);
#511=ADVANCED_FACE('',(#449),#487,.F.);
#512=ADVANCED_FACE('',(#450,#451),#16,.F.);
#513=ADVANCED_FACE('',(#452,#453),#17,.T.);
#514=ADVANCED_FACE('',(#454,#455),#488,.F.);
#515=ADVANCED_FACE('',(#456),#489,.F.);
#516=ADVANCED_FACE('',(#457,#458),#18,.F.);
#517=ADVANCED_FACE('',(#459,#460),#19,.T.);
#518=ADVANCED_FACE('',(#461,#462),#490,.F.);
#519=ADVANCED_FACE('',(#463),#491,.F.);
#520=ADVANCED_FACE('',(#464),#20,.T.);
#521=ADVANCED_FACE('',(#465),#21,.T.);
#522=ADVANCED_FACE('',(#466),#22,.T.);
#523=ADVANCED_FACE('',(#467),#23,.T.);
#524=ADVANCED_FACE('',(#468,#469),#24,.F.);
#525=ADVANCED_FACE('',(#470,#471),#25,.F.);
#526=CLOSED_SHELL('',(#492,#493,#494,#495,#496,#497,#498,#499,#500,#501,
#502,#503,#504,#505,#506,#507,#508,#509,#510,#511,#512,#513,#514,#515,#516,
#517,#518,#519,#520,#521,#522,#523,#524,#525));
#527=STYLED_ITEM('',(#528),#535);
#528=PRESENTATION_STYLE_ASSIGNMENT((#529));
#529=SURFACE_STYLE_USAGE(.BOTH.,#530);
#530=SURFACE_SIDE_STYLE('',(#531));
#531=SURFACE_STYLE_FILL_AREA(#532);
#532=FILL_AREA_STYLE('',(#533));
#533=FILL_AREA_STYLE_COLOUR('',#534);
#534=COLOUR_RGB('',0.615686274509804,0.811764705882353,0.929411764705882);
#535=MANIFOLD_SOLID_BREP('Middle piece',#526);
#536=SHAPE_DEFINITION_REPRESENTATION(#912,#537);
#537=SHAPE_REPRESENTATION('Middle piece',(#538),#907);
#538=AXIS2_PLACEMENT_3D('',#761,#601,#602);
#539=AXIS2_PLACEMENT_3D('',#762,#603,#604);
#540=AXIS2_PLACEMENT_3D('',#763,#605,#606);
#541=AXIS2_PLACEMENT_3D('',#765,#607,#608);
#542=AXIS2_PLACEMENT_3D('',#775,#613,#614);
#543=AXIS2_PLACEMENT_3D('',#776,#615,#616);
#544=AXIS2_PLACEMENT_3D('',#778,#617,#618);
#545=AXIS2_PLACEMENT_3D('',#780,#619,#620);
#546=AXIS2_PLACEMENT_3D('',#782,#621,#622);
#547=AXIS2_PLACEMENT_3D('',#795,#628,#629);
#548=AXIS2_PLACEMENT_3D('',#799,#631,#632);
#549=AXIS2_PLACEMENT_3D('',#803,#634,#635);
#550=AXIS2_PLACEMENT_3D('',#807,#637,#638);
#551=AXIS2_PLACEMENT_3D('',#808,#639,#640);
#552=AXIS2_PLACEMENT_3D('',#810,#641,#642);
#553=AXIS2_PLACEMENT_3D('',#812,#643,#644);
#554=AXIS2_PLACEMENT_3D('',#819,#649,#650);
#555=AXIS2_PLACEMENT_3D('',#823,#653,#654);
#556=AXIS2_PLACEMENT_3D('',#828,#658,#659);
#557=AXIS2_PLACEMENT_3D('',#830,#661,#662);
#558=AXIS2_PLACEMENT_3D('',#836,#666,#667);
#559=AXIS2_PLACEMENT_3D('',#842,#671,#672);
#560=AXIS2_PLACEMENT_3D('',#848,#676,#677);
#561=AXIS2_PLACEMENT_3D('',#854,#681,#682);
#562=AXIS2_PLACEMENT_3D('',#855,#683,#684);
#563=AXIS2_PLACEMENT_3D('',#856,#685,#686);
#564=AXIS2_PLACEMENT_3D('',#857,#687,#688);
#565=AXIS2_PLACEMENT_3D('',#858,#689,#690);
#566=AXIS2_PLACEMENT_3D('',#859,#691,#692);
#567=AXIS2_PLACEMENT_3D('',#860,#693,#694);
#568=AXIS2_PLACEMENT_3D('',#861,#695,#696);
#569=AXIS2_PLACEMENT_3D('',#863,#697,#698);
#570=AXIS2_PLACEMENT_3D('',#865,#699,#700);
#571=AXIS2_PLACEMENT_3D('',#866,#701,#702);
#572=AXIS2_PLACEMENT_3D('',#868,#703,#704);
#573=AXIS2_PLACEMENT_3D('',#869,#705,#706);
#574=AXIS2_PLACEMENT_3D('',#870,#707,#708);
#575=AXIS2_PLACEMENT_3D('',#871,#709,#710);
#576=AXIS2_PLACEMENT_3D('',#873,#711,#712);
#577=AXIS2_PLACEMENT_3D('',#875,#713,#714);
#578=AXIS2_PLACEMENT_3D('',#876,#715,#716);
#579=AXIS2_PLACEMENT_3D('',#878,#717,#718);
#580=AXIS2_PLACEMENT_3D('',#879,#719,#720);
#581=AXIS2_PLACEMENT_3D('',#880,#721,#722);
#582=AXIS2_PLACEMENT_3D('',#881,#723,#724);
#583=AXIS2_PLACEMENT_3D('',#883,#725,#726);
#584=AXIS2_PLACEMENT_3D('',#885,#727,#728);
#585=AXIS2_PLACEMENT_3D('',#886,#729,#730);
#586=AXIS2_PLACEMENT_3D('',#888,#731,#732);
#587=AXIS2_PLACEMENT_3D('',#889,#733,#734);
#588=AXIS2_PLACEMENT_3D('',#890,#735,#736);
#589=AXIS2_PLACEMENT_3D('',#891,#737,#738);
#590=AXIS2_PLACEMENT_3D('',#893,#739,#740);
#591=AXIS2_PLACEMENT_3D('',#895,#741,#742);
#592=AXIS2_PLACEMENT_3D('',#896,#743,#744);
#593=AXIS2_PLACEMENT_3D('',#898,#745,#746);
#594=AXIS2_PLACEMENT_3D('',#899,#747,#748);
#595=AXIS2_PLACEMENT_3D('',#900,#749,#750);
#596=AXIS2_PLACEMENT_3D('',#901,#751,#752);
#597=AXIS2_PLACEMENT_3D('',#902,#753,#754);
#598=AXIS2_PLACEMENT_3D('',#903,#755,#756);
#599=AXIS2_PLACEMENT_3D('',#904,#757,#758);
#600=AXIS2_PLACEMENT_3D('',#905,#759,#760);
#601=DIRECTION('',(0.,0.,1.));
#602=DIRECTION('',(1.,0.,0.));
#603=DIRECTION('',(0.,0.,1.));
#604=DIRECTION('',(1.,0.,0.));
#605=DIRECTION('',(0.,0.,1.));
#606=DIRECTION('',(1.,0.,0.));
#607=DIRECTION('',(0.,0.,1.));
#608=DIRECTION('',(1.,0.,0.));
#609=DIRECTION('',(0.,-1.,0.));
#610=DIRECTION('',(1.,0.,0.));
#611=DIRECTION('',(0.,-1.,0.));
#612=DIRECTION('',(-1.,0.,0.));
#613=DIRECTION('',(0.,0.,1.));
#614=DIRECTION('',(1.,0.,0.));
#615=DIRECTION('',(0.,0.,1.));
#616=DIRECTION('',(1.,0.,0.));
#617=DIRECTION('',(0.,0.,1.));
#618=DIRECTION('',(1.,0.,0.));
#619=DIRECTION('',(0.,0.,1.));
#620=DIRECTION('',(1.,0.,0.));
#621=DIRECTION('',(0.,0.,1.));
#622=DIRECTION('',(1.,0.,0.));
#623=DIRECTION('',(-1.,0.,0.));
#624=DIRECTION('',(0.,1.,0.));
#625=DIRECTION('',(1.,0.,0.));
#626=DIRECTION('',(0.,1.,0.));
#627=DIRECTION('',(1.17211045674109E-16,-1.,0.));
#628=DIRECTION('',(0.,0.,1.));
#629=DIRECTION('',(1.,0.,0.));
#630=DIRECTION('',(-1.,0.,0.));
#631=DIRECTION('',(0.,0.,1.));
#632=DIRECTION('',(1.,0.,0.));
#633=DIRECTION('',(1.17211045674109E-16,-1.,0.));
#634=DIRECTION('',(0.,0.,1.));
#635=DIRECTION('',(1.,0.,0.));
#636=DIRECTION('',(-1.,-1.582415941598E-16,0.));
#637=DIRECTION('',(0.,0.,1.));
#638=DIRECTION('',(1.,0.,0.));
#639=DIRECTION('',(0.,0.,1.));
#640=DIRECTION('',(1.,0.,0.));
#641=DIRECTION('',(0.,0.,1.));
#642=DIRECTION('',(1.,0.,0.));
#643=DIRECTION('',(1.,0.,0.));
#644=DIRECTION('',(0.,0.,-1.));
#645=DIRECTION('',(0.,0.,-1.));
#646=DIRECTION('',(0.,0.,1.));
#647=DIRECTION('',(0.,0.,-1.));
#648=DIRECTION('',(0.,-1.,0.));
#649=DIRECTION('',(0.,-1.,0.));
#650=DIRECTION('',(0.,0.,-1.));
#651=DIRECTION('',(-1.,0.,0.));
#652=DIRECTION('',(0.,0.,-1.));
#653=DIRECTION('',(1.,0.,0.));
#654=DIRECTION('',(0.,0.,-1.));
#655=DIRECTION('',(0.,-1.,0.));
#656=DIRECTION('',(0.,0.,-1.));
#657=DIRECTION('',(0.,0.,1.));
#658=DIRECTION('',(0.,-1.,0.));
#659=DIRECTION('',(0.,0.,-1.));
#660=DIRECTION('',(-1.,0.,0.));
#661=DIRECTION('',(1.582415941598E-16,-1.,0.));
#662=DIRECTION('',(1.,1.582415941598E-16,0.));
#663=DIRECTION('',(-1.,-1.582415941598E-16,0.));
#664=DIRECTION('',(0.,0.,-1.));
#665=DIRECTION('',(0.,0.,-1.));
#666=DIRECTION('',(1.,1.17211045674109E-16,0.));
#667=DIRECTION('',(-1.17211045674109E-16,1.,0.));
#668=DIRECTION('',(0.,0.,-1.));
#669=DIRECTION('',(1.17211045674109E-16,-1.,0.));
#670=DIRECTION('',(0.,0.,-1.));
#671=DIRECTION('',(0.,-1.,0.));
#672=DIRECTION('',(0.,0.,-1.));
#673=DIRECTION('',(0.,0.,-1.));
#674=DIRECTION('',(-1.,0.,0.));
#675=DIRECTION('',(0.,0.,-1.));
#676=DIRECTION('',(1.,1.17211045674109E-16,0.));
#677=DIRECTION('',(-1.17211045674109E-16,1.,0.));
#678=DIRECTION('',(1.17211045674109E-16,-1.,0.));
#679=DIRECTION('',(0.,0.,-1.));
#680=DIRECTION('',(0.,0.,-1.));
#681=DIRECTION('',(0.,0.,1.));
#682=DIRECTION('',(1.,0.,0.));
#683=DIRECTION('',(0.,0.,1.));
#684=DIRECTION('',(1.,0.,0.));
#685=DIRECTION('',(0.,0.,1.));
#686=DIRECTION('',(1.,0.,0.));
#687=DIRECTION('',(0.,0.,1.));
#688=DIRECTION('',(1.,0.,0.));
#689=DIRECTION('',(0.,0.,1.));
#690=DIRECTION('',(1.,0.,0.));
#691=DIRECTION('',(0.,-1.,0.));
#692=DIRECTION('',(0.,0.,-1.));
#693=DIRECTION('',(0.,0.,1.));
#694=DIRECTION('',(1.,0.,0.));
#695=DIRECTION('',(0.,0.,1.));
#696=DIRECTION('',(1.,0.,0.));
#697=DIRECTION('',(0.,0.,1.));
#698=DIRECTION('',(1.,0.,0.));
#699=DIRECTION('',(0.,0.,1.));
#700=DIRECTION('',(1.,0.,0.));
#701=DIRECTION('',(0.,0.,1.));
#702=DIRECTION('',(1.,0.,0.));
#703=DIRECTION('',(0.,0.,1.));
#704=DIRECTION('',(1.,0.,0.));
#705=DIRECTION('',(0.,0.,1.));
#706=DIRECTION('',(1.,0.,0.));
#707=DIRECTION('',(0.,0.,1.));
#708=DIRECTION('',(1.,0.,0.));
#709=DIRECTION('',(0.,0.,1.));
#710=DIRECTION('',(1.,0.,0.));
#711=DIRECTION('',(0.,0.,1.));
#712=DIRECTION('',(1.,0.,0.));
#713=DIRECTION('',(0.,0.,1.));
#714=DIRECTION('',(1.,0.,0.));
#715=DIRECTION('',(0.,0.,1.));
#716=DIRECTION('',(1.,0.,0.));
#717=DIRECTION('',(0.,0.,1.));
#718=DIRECTION('',(1.,0.,0.));
#719=DIRECTION('',(0.,0.,1.));
#720=DIRECTION('',(1.,0.,0.));
#721=DIRECTION('',(0.,0.,1.));
#722=DIRECTION('',(1.,0.,0.));
#723=DIRECTION('',(0.,0.,1.));
#724=DIRECTION('',(1.,0.,0.));
#725=DIRECTION('',(0.,0.,1.));
#726=DIRECTION('',(1.,0.,0.));
#727=DIRECTION('',(0.,0.,1.));
#728=DIRECTION('',(1.,0.,0.));
#729=DIRECTION('',(0.,0.,1.));
#730=DIRECTION('',(1.,0.,0.));
#731=DIRECTION('',(0.,0.,1.));
#732=DIRECTION('',(1.,0.,0.));
#733=DIRECTION('',(0.,0.,1.));
#734=DIRECTION('',(1.,0.,0.));
#735=DIRECTION('',(0.,0.,1.));
#736=DIRECTION('',(1.,0.,0.));
#737=DIRECTION('',(0.,0.,1.));
#738=DIRECTION('',(1.,0.,0.));
#739=DIRECTION('',(0.,0.,1.));
#740=DIRECTION('',(1.,0.,0.));
#741=DIRECTION('',(0.,0.,1.));
#742=DIRECTION('',(1.,0.,0.));
#743=DIRECTION('',(0.,0.,1.));
#744=DIRECTION('',(1.,0.,0.));
#745=DIRECTION('',(0.,0.,1.));
#746=DIRECTION('',(1.,0.,0.));
#747=DIRECTION('',(0.,0.,1.));
#748=DIRECTION('',(1.,0.,0.));
#749=DIRECTION('',(0.,0.,-1.));
#750=DIRECTION('',(-1.,0.,0.));
#751=DIRECTION('',(0.,0.,1.));
#752=DIRECTION('',(1.,0.,0.));
#753=DIRECTION('',(0.,0.,1.));
#754=DIRECTION('',(1.,0.,0.));
#755=DIRECTION('',(0.,0.,-1.));
#756=DIRECTION('',(-1.,0.,0.));
#757=DIRECTION('',(0.,0.,1.));
#758=DIRECTION('',(1.,0.,0.));
#759=DIRECTION('',(0.,0.,1.));
#760=DIRECTION('',(1.,0.,0.));
#761=CARTESIAN_POINT('',(0.,0.,0.));
#762=CARTESIAN_POINT('',(-0.2008,0.,0.002));
#763=CARTESIAN_POINT('',(-0.1381,-0.0438,0.002));
#764=CARTESIAN_POINT('',(-0.1366,-0.0438,0.002));
#765=CARTESIAN_POINT('',(-0.2635,0.0407,0.002));
#766=CARTESIAN_POINT('',(-0.262,0.0407,0.002));
#767=CARTESIAN_POINT('',(-0.286,0.,0.002));
#768=CARTESIAN_POINT('',(-0.286,0.0567,0.002));
#769=CARTESIAN_POINT('',(-0.286,-0.0497,0.002));
#770=CARTESIAN_POINT('',(-0.2008,-0.0497,0.002));
#771=CARTESIAN_POINT('',(-0.1156,-0.0497,0.002));
#772=CARTESIAN_POINT('',(-0.1156,3.46944695195361E-18,0.002));
#773=CARTESIAN_POINT('',(-0.1156,0.0567,0.002));
#774=CARTESIAN_POINT('',(-0.2008,0.0567,0.002));
#775=CARTESIAN_POINT('',(-0.2008,0.,0.));
#776=CARTESIAN_POINT('',(-0.25056,-0.03513,0.));
#777=CARTESIAN_POINT('',(-0.24856,-0.03513,0.));
#778=CARTESIAN_POINT('',(-0.14841,-0.02699,0.));
#779=CARTESIAN_POINT('',(-0.14641,-0.02699,0.));
#780=CARTESIAN_POINT('',(-0.14841,0.00986,0.));
#781=CARTESIAN_POINT('',(-0.14641,0.00986,0.));
#782=CARTESIAN_POINT('',(-0.24952,0.02724,0.));
#783=CARTESIAN_POINT('',(-0.24752,0.02724,0.));
#784=CARTESIAN_POINT('',(-0.2008,-0.0497,0.));
#785=CARTESIAN_POINT('',(-0.1156,-0.0497,0.));
#786=CARTESIAN_POINT('',(-0.286,-0.0497,0.));
#787=CARTESIAN_POINT('',(-0.286,0.,0.));
#788=CARTESIAN_POINT('',(-0.286,-0.0567,0.));
#789=CARTESIAN_POINT('',(-0.2008,-0.0567,0.));
#790=CARTESIAN_POINT('',(-0.1156,-0.0567,0.));
#791=CARTESIAN_POINT('',(-0.1156,3.46944695195361E-18,0.));
#792=CARTESIAN_POINT('',(-0.2885,0.,0.));
#793=CARTESIAN_POINT('',(-0.2885,0.0557,0.));
#794=CARTESIAN_POINT('',(-0.2885,-0.0557,0.));
#795=CARTESIAN_POINT('',(-0.285,0.0557,0.));
#796=CARTESIAN_POINT('',(-0.285,0.0592,0.));
#797=CARTESIAN_POINT('',(-0.2008,0.0592,0.));
#798=CARTESIAN_POINT('',(-0.1166,0.0592,0.));
#799=CARTESIAN_POINT('',(-0.1166,0.0557,0.));
#800=CARTESIAN_POINT('',(-0.1131,0.0557,0.));
#801=CARTESIAN_POINT('',(-0.1131,1.38777878078145E-17,0.));
#802=CARTESIAN_POINT('',(-0.1131,-0.0557,0.));
#803=CARTESIAN_POINT('',(-0.1166,-0.0557,0.));
#804=CARTESIAN_POINT('',(-0.1166,-0.0592,0.));
#805=CARTESIAN_POINT('',(-0.2008,-0.0592,0.));
#806=CARTESIAN_POINT('',(-0.285,-0.0592,0.));
#807=CARTESIAN_POINT('',(-0.285,-0.0557,0.));
#808=CARTESIAN_POINT('',(-0.1381,-0.0438,0.));
#809=CARTESIAN_POINT('',(-0.1366,-0.0438,0.));
#810=CARTESIAN_POINT('',(-0.2635,0.0407,0.));
#811=CARTESIAN_POINT('',(-0.262,0.0407,0.));
#812=CARTESIAN_POINT('',(-0.1156,3.46944695195361E-18,0.005));
#813=CARTESIAN_POINT('',(-0.1156,0.0567,0.005));
#814=CARTESIAN_POINT('',(-0.1156,0.0567,0.005));
#815=CARTESIAN_POINT('',(-0.1156,-0.0497,-1.99999999999983E-6));
#816=CARTESIAN_POINT('',(-0.1156,-0.0567,0.005));
#817=CARTESIAN_POINT('',(-0.1156,-0.0567,0.005));
#818=CARTESIAN_POINT('',(-0.1156,3.46944695195361E-18,0.005));
#819=CARTESIAN_POINT('',(-0.2008,0.0567,0.005));
#820=CARTESIAN_POINT('',(-0.2008,0.0567,0.005));
#821=CARTESIAN_POINT('',(-0.286,0.0567,0.005));
#822=CARTESIAN_POINT('',(-0.286,0.0567,0.005));
#823=CARTESIAN_POINT('',(-0.286,0.,0.005));
#824=CARTESIAN_POINT('',(-0.286,0.,0.005));
#825=CARTESIAN_POINT('',(-0.286,-0.0567,0.005));
#826=CARTESIAN_POINT('',(-0.286,-0.0567,0.005));
#827=CARTESIAN_POINT('',(-0.286,-0.0497,-1.99999999999983E-6));
#828=CARTESIAN_POINT('',(-0.2008,-0.0567,0.005));
#829=CARTESIAN_POINT('',(-0.2008,-0.0567,0.005));
#830=CARTESIAN_POINT('',(-0.2008,-0.0592,0.005));
#831=CARTESIAN_POINT('',(-0.2008,-0.0592,0.005));
#832=CARTESIAN_POINT('',(-0.1166,-0.0592,0.005));
#833=CARTESIAN_POINT('',(-0.285,-0.0592,0.005));
#834=CARTESIAN_POINT('',(-0.285,-0.0592,0.));
#835=CARTESIAN_POINT('',(-0.1166,-0.0592,0.005));
#836=CARTESIAN_POINT('',(-0.1131,1.38777878078145E-17,0.005));
#837=CARTESIAN_POINT('',(-0.1131,0.0557,0.005));
#838=CARTESIAN_POINT('',(-0.1131,0.0557,0.005));
#839=CARTESIAN_POINT('',(-0.1131,1.38777878078145E-17,0.005));
#840=CARTESIAN_POINT('',(-0.1131,-0.0557,0.005));
#841=CARTESIAN_POINT('',(-0.1131,-0.0557,0.005));
#842=CARTESIAN_POINT('',(-0.2008,0.0592,0.005));
#843=CARTESIAN_POINT('',(-0.285,0.0592,0.005));
#844=CARTESIAN_POINT('',(-0.285,0.0592,0.005));
#845=CARTESIAN_POINT('',(-0.2008,0.0592,0.005));
#846=CARTESIAN_POINT('',(-0.1166,0.0592,0.005));
#847=CARTESIAN_POINT('',(-0.1166,0.0592,0.));
#848=CARTESIAN_POINT('',(-0.2885,0.,0.005));
#849=CARTESIAN_POINT('',(-0.2885,0.,0.005));
#850=CARTESIAN_POINT('',(-0.2885,0.0557,0.005));
#851=CARTESIAN_POINT('',(-0.2885,-0.0557,0.005));
#852=CARTESIAN_POINT('',(-0.2885,0.0557,0.005));
#853=CARTESIAN_POINT('',(-0.2885,-0.0557,0.005));
#854=CARTESIAN_POINT('',(-0.2008,0.,0.005));
#855=CARTESIAN_POINT('',(-0.285,0.0557,0.005));
#856=CARTESIAN_POINT('',(-0.285,-0.0557,0.005));
#857=CARTESIAN_POINT('',(-0.1166,-0.0557,0.005));
#858=CARTESIAN_POINT('',(-0.1166,0.0557,0.005));
#859=CARTESIAN_POINT('',(-0.2008,-0.0497,-1.99999999999983E-6));
#860=CARTESIAN_POINT('',(-0.24952,0.02724,-0.0015));
#861=CARTESIAN_POINT('',(-0.24952,0.02724,-0.0015));
#862=CARTESIAN_POINT('',(-0.24852,0.02724,-0.0015));
#863=CARTESIAN_POINT('',(-0.24952,0.02724,0.));
#864=CARTESIAN_POINT('',(-0.24852,0.02724,0.));
#865=CARTESIAN_POINT('',(-0.24952,0.02724,-0.0015));
#866=CARTESIAN_POINT('',(-0.24952,0.02724,-0.0015));
#867=CARTESIAN_POINT('',(-0.24752,0.02724,-0.0015));
#868=CARTESIAN_POINT('',(-0.2008,0.,-0.0015));
#869=CARTESIAN_POINT('',(-0.2008,0.,0.));
#870=CARTESIAN_POINT('',(-0.14841,0.00986,-0.0015));
#871=CARTESIAN_POINT('',(-0.14841,0.00986,-0.0015));
#872=CARTESIAN_POINT('',(-0.14741,0.00986,-0.0015));
#873=CARTESIAN_POINT('',(-0.14841,0.00986,0.));
#874=CARTESIAN_POINT('',(-0.14741,0.00986,0.));
#875=CARTESIAN_POINT('',(-0.14841,0.00986,-0.0015));
#876=CARTESIAN_POINT('',(-0.14841,0.00986,-0.0015));
#877=CARTESIAN_POINT('',(-0.14641,0.00986,-0.0015));
#878=CARTESIAN_POINT('',(-0.2008,0.,-0.0015));
#879=CARTESIAN_POINT('',(-0.2008,0.,0.));
#880=CARTESIAN_POINT('',(-0.14841,-0.02699,-0.0015));
#881=CARTESIAN_POINT('',(-0.14841,-0.02699,-0.0015));
#882=CARTESIAN_POINT('',(-0.14741,-0.02699,-0.0015));
#883=CARTESIAN_POINT('',(-0.14841,-0.02699,0.));
#884=CARTESIAN_POINT('',(-0.14741,-0.02699,0.));
#885=CARTESIAN_POINT('',(-0.14841,-0.02699,-0.0015));
#886=CARTESIAN_POINT('',(-0.14841,-0.02699,-0.0015));
#887=CARTESIAN_POINT('',(-0.14641,-0.02699,-0.0015));
#888=CARTESIAN_POINT('',(-0.2008,0.,-0.0015));
#889=CARTESIAN_POINT('',(-0.2008,0.,0.));
#890=CARTESIAN_POINT('',(-0.25056,-0.03513,-0.0015));
#891=CARTESIAN_POINT('',(-0.25056,-0.03513,-0.0015));
#892=CARTESIAN_POINT('',(-0.24956,-0.03513,-0.0015));
#893=CARTESIAN_POINT('',(-0.25056,-0.03513,0.));
#894=CARTESIAN_POINT('',(-0.24956,-0.03513,0.));
#895=CARTESIAN_POINT('',(-0.25056,-0.03513,-0.0015));
#896=CARTESIAN_POINT('',(-0.25056,-0.03513,-0.0015));
#897=CARTESIAN_POINT('',(-0.24856,-0.03513,-0.0015));
#898=CARTESIAN_POINT('',(-0.2008,0.,-0.0015));
#899=CARTESIAN_POINT('',(-0.2008,0.,0.));
#900=CARTESIAN_POINT('',(-0.285,0.0557,0.005));
#901=CARTESIAN_POINT('',(-0.1166,0.0557,0.005));
#902=CARTESIAN_POINT('',(-0.285,-0.0557,0.005));
#903=CARTESIAN_POINT('',(-0.1166,-0.0557,0.005));
#904=CARTESIAN_POINT('',(-0.2635,0.0407,-0.003802));
#905=CARTESIAN_POINT('',(-0.1381,-0.0438,-0.003802));
#906=MECHANICAL_DESIGN_GEOMETRIC_PRESENTATION_REPRESENTATION('',(#527),
#907);
#907=(
GEOMETRIC_REPRESENTATION_CONTEXT(3)
GLOBAL_UNCERTAINTY_ASSIGNED_CONTEXT((#908))
GLOBAL_UNIT_ASSIGNED_CONTEXT((#911,#910,#909))
REPRESENTATION_CONTEXT('Middle piece','TOP_LEVEL_ASSEMBLY_PART')
);
#908=UNCERTAINTY_MEASURE_WITH_UNIT(LENGTH_MEASURE(1.E-8),#911,
'DISTANCE_ACCURACY_VALUE','Maximum Tolerance applied to model');
#909=(
NAMED_UNIT(*)
SI_UNIT($,.STERADIAN.)
SOLID_ANGLE_UNIT()
);
#910=(
NAMED_UNIT(*)
PLANE_ANGLE_UNIT()
SI_UNIT($,.RADIAN.)
);
#911=(
LENGTH_UNIT()
NAMED_UNIT(*)
SI_UNIT($,.METRE.)
);
#912=PRODUCT_DEFINITION_SHAPE('','',#913);
#913=PRODUCT_DEFINITION('','',#915,#914);
#914=PRODUCT_DEFINITION_CONTEXT('',#921,'design');
#915=PRODUCT_DEFINITION_FORMATION_WITH_SPECIFIED_SOURCE('','',#917,
 .NOT_KNOWN.);
#916=PRODUCT_RELATED_PRODUCT_CATEGORY('','',(#917));
#917=PRODUCT('Middle piece','Middle piece','Middle piece',(#919));
#918=PRODUCT_CATEGORY('','');
#919=PRODUCT_CONTEXT('',#921,'mechanical');
#920=APPLICATION_PROTOCOL_DEFINITION('international standard',
'ap242_managed_model_based_3d_engineering',2020,#921);
#921=APPLICATION_CONTEXT('managed model based 3d engineering');
ENDSEC;
END-ISO-10303-21;
