ISO-10303-21;
HEADER;
/* Generated by software containing ST-Developer
 * from STEP Tools, Inc. (www.steptools.com) 
 */
/* OPTION: using custom renumber hook */

FILE_DESCRIPTION(
/* description */ ('STEP AP242 Edition 2',
'CAx-IF Rec.Pracs.---Representation and Presentation of Product Manufa
cturing Information (PMI)---4.0---2014-10-13',
'CAx-IF Rec.Pracs.---3D Tessellated Geometry---0.4---2014-09-14','2;1',
'CAx-IF Rec.Pracs.---User Defined Attributes---1.5---2016-08-15'),
/* implementation_level */ '2;1');

FILE_NAME(
/* name */ 'Part Studio 1',
/* time_stamp */ '2026-09-15T01:53:45Z',
/* author */ (''),
/* organization */ (''),
/* preprocessor_version */ 'ST-DEVELOPER v20',
/* originating_system */ 'ONSHAPE BY PTC INC, 1.220',
/* authorisation */ '  ');

FILE_SCHEMA (('AP242_MANAGED_MODEL_BASED_3D_ENGINEERING_MIM_LF { 1 0 10303 442 3 1 4 }'));
ENDSEC;

DATA;
#10=SHAPE_REPRESENTATION_RELATIONSHIP('','',#251,#11);
#11=ADVANCED_BREP_SHAPE_REPRESENTATION('',(#249),#421);
#12=SPHERICAL_SURFACE('',#266,0.0035);
#13=SPHERICAL_SURFACE('',#268,0.0035);
#14=SPHERICAL_SURFACE('',#274,0.0035);
#15=SPHERICAL_SURFACE('',#276,0.0035);
#16=CYLINDRICAL_SURFACE('',#263,0.0035);
#17=CYLINDRICAL_SURFACE('',#270,0.0035);
#18=CYLINDRICAL_SURFACE('',#272,0.0035);
#19=CYLINDRICAL_SURFACE('',#278,0.0035);
#20=CIRCLE('',#259,0.00316227766016838);
#21=CIRCLE('',#260,0.00316227766016838);
#22=CIRCLE('',#261,0.00316227766016838);
#23=CIRCLE('',#262,0.00316227766016838);
#24=CIRCLE('',#264,0.0035);
#25=CIRCLE('',#265,0.0035);
#26=CIRCLE('',#267,0.0035);
#27=CIRCLE('',#269,0.0035);
#28=CIRCLE('',#271,0.0035);
#29=CIRCLE('',#273,0.0035);
#30=CIRCLE('',#275,0.0035);
#31=CIRCLE('',#277,0.0035);
#32=ORIENTED_EDGE('',*,*,#96,.F.);
#33=ORIENTED_EDGE('',*,*,#97,.F.);
#34=ORIENTED_EDGE('',*,*,#98,.T.);
#35=ORIENTED_EDGE('',*,*,#99,.T.);
#36=ORIENTED_EDGE('',*,*,#100,.T.);
#37=ORIENTED_EDGE('',*,*,#101,.F.);
#38=ORIENTED_EDGE('',*,*,#102,.F.);
#39=ORIENTED_EDGE('',*,*,#97,.T.);
#40=ORIENTED_EDGE('',*,*,#103,.T.);
#41=ORIENTED_EDGE('',*,*,#104,.F.);
#42=ORIENTED_EDGE('',*,*,#105,.F.);
#43=ORIENTED_EDGE('',*,*,#101,.T.);
#44=ORIENTED_EDGE('',*,*,#106,.F.);
#45=ORIENTED_EDGE('',*,*,#99,.F.);
#46=ORIENTED_EDGE('',*,*,#107,.T.);
#47=ORIENTED_EDGE('',*,*,#104,.T.);
#48=ORIENTED_EDGE('',*,*,#108,.T.);
#49=ORIENTED_EDGE('',*,*,#109,.T.);
#50=ORIENTED_EDGE('',*,*,#110,.T.);
#51=ORIENTED_EDGE('',*,*,#111,.T.);
#52=ORIENTED_EDGE('',*,*,#98,.F.);
#53=ORIENTED_EDGE('',*,*,#102,.T.);
#54=ORIENTED_EDGE('',*,*,#105,.T.);
#55=ORIENTED_EDGE('',*,*,#107,.F.);
#56=ORIENTED_EDGE('',*,*,#112,.T.);
#57=ORIENTED_EDGE('',*,*,#113,.T.);
#58=ORIENTED_EDGE('',*,*,#114,.T.);
#59=ORIENTED_EDGE('',*,*,#115,.T.);
#60=ORIENTED_EDGE('',*,*,#116,.T.);
#61=ORIENTED_EDGE('',*,*,#117,.T.);
#62=ORIENTED_EDGE('',*,*,#118,.T.);
#63=ORIENTED_EDGE('',*,*,#119,.T.);
#64=ORIENTED_EDGE('',*,*,#96,.T.);
#65=ORIENTED_EDGE('',*,*,#106,.T.);
#66=ORIENTED_EDGE('',*,*,#103,.F.);
#67=ORIENTED_EDGE('',*,*,#100,.F.);
#68=ORIENTED_EDGE('',*,*,#120,.F.);
#69=ORIENTED_EDGE('',*,*,#117,.F.);
#70=ORIENTED_EDGE('',*,*,#121,.F.);
#71=ORIENTED_EDGE('',*,*,#111,.F.);
#72=ORIENTED_EDGE('',*,*,#118,.F.);
#73=ORIENTED_EDGE('',*,*,#120,.T.);
#74=ORIENTED_EDGE('',*,*,#122,.F.);
#75=ORIENTED_EDGE('',*,*,#121,.T.);
#76=ORIENTED_EDGE('',*,*,#116,.F.);
#77=ORIENTED_EDGE('',*,*,#123,.F.);
#78=ORIENTED_EDGE('',*,*,#122,.T.);
#79=ORIENTED_EDGE('',*,*,#110,.F.);
#80=ORIENTED_EDGE('',*,*,#124,.F.);
#81=ORIENTED_EDGE('',*,*,#119,.F.);
#82=ORIENTED_EDGE('',*,*,#123,.T.);
#83=ORIENTED_EDGE('',*,*,#115,.F.);
#84=ORIENTED_EDGE('',*,*,#125,.F.);
#85=ORIENTED_EDGE('',*,*,#108,.F.);
#86=ORIENTED_EDGE('',*,*,#112,.F.);
#87=ORIENTED_EDGE('',*,*,#124,.T.);
#88=ORIENTED_EDGE('',*,*,#126,.F.);
#89=ORIENTED_EDGE('',*,*,#125,.T.);
#90=ORIENTED_EDGE('',*,*,#114,.F.);
#91=ORIENTED_EDGE('',*,*,#127,.F.);
#92=ORIENTED_EDGE('',*,*,#126,.T.);
#93=ORIENTED_EDGE('',*,*,#109,.F.);
#94=ORIENTED_EDGE('',*,*,#127,.T.);
#95=ORIENTED_EDGE('',*,*,#113,.F.);
#96=EDGE_CURVE('',#128,#129,#148,.T.);
#97=EDGE_CURVE('',#130,#128,#149,.T.);
#98=EDGE_CURVE('',#130,#131,#150,.T.);
#99=EDGE_CURVE('',#131,#129,#151,.T.);
#100=EDGE_CURVE('',#128,#132,#152,.T.);
#101=EDGE_CURVE('',#133,#132,#153,.T.);
#102=EDGE_CURVE('',#130,#133,#154,.T.);
#103=EDGE_CURVE('',#132,#134,#155,.T.);
#104=EDGE_CURVE('',#135,#134,#156,.T.);
#105=EDGE_CURVE('',#133,#135,#157,.T.);
#106=EDGE_CURVE('',#129,#134,#158,.T.);
#107=EDGE_CURVE('',#131,#135,#159,.T.);
#108=EDGE_CURVE('',#136,#137,#160,.F.);
#109=EDGE_CURVE('',#137,#138,#161,.F.);
#110=EDGE_CURVE('',#138,#139,#162,.T.);
#111=EDGE_CURVE('',#139,#136,#163,.T.);
#112=EDGE_CURVE('',#140,#141,#20,.F.);
#113=EDGE_CURVE('',#141,#142,#164,.T.);
#114=EDGE_CURVE('',#142,#143,#21,.F.);
#115=EDGE_CURVE('',#143,#144,#165,.T.);
#116=EDGE_CURVE('',#144,#145,#22,.F.);
#117=EDGE_CURVE('',#145,#146,#166,.T.);
#118=EDGE_CURVE('',#146,#147,#23,.F.);
#119=EDGE_CURVE('',#147,#140,#167,.T.);
#120=EDGE_CURVE('',#146,#139,#24,.T.);
#121=EDGE_CURVE('',#136,#145,#25,.T.);
#122=EDGE_CURVE('',#147,#139,#26,.T.);
#123=EDGE_CURVE('',#136,#144,#27,.T.);
#124=EDGE_CURVE('',#140,#138,#28,.T.);
#125=EDGE_CURVE('',#137,#143,#29,.T.);
#126=EDGE_CURVE('',#141,#138,#30,.T.);
#127=EDGE_CURVE('',#137,#142,#31,.T.);
#128=VERTEX_POINT('',#356);
#129=VERTEX_POINT('',#357);
#130=VERTEX_POINT('',#359);
#131=VERTEX_POINT('',#361);
#132=VERTEX_POINT('',#365);
#133=VERTEX_POINT('',#367);
#134=VERTEX_POINT('',#371);
#135=VERTEX_POINT('',#373);
#136=VERTEX_POINT('',#380);
#137=VERTEX_POINT('',#381);
#138=VERTEX_POINT('',#383);
#139=VERTEX_POINT('',#385);
#140=VERTEX_POINT('',#389);
#141=VERTEX_POINT('',#390);
#142=VERTEX_POINT('',#392);
#143=VERTEX_POINT('',#394);
#144=VERTEX_POINT('',#396);
#145=VERTEX_POINT('',#398);
#146=VERTEX_POINT('',#400);
#147=VERTEX_POINT('',#402);
#148=LINE('',#355,#168);
#149=LINE('',#358,#169);
#150=LINE('',#360,#170);
#151=LINE('',#362,#171);
#152=LINE('',#364,#172);
#153=LINE('',#366,#173);
#154=LINE('',#368,#174);
#155=LINE('',#370,#175);
#156=LINE('',#372,#176);
#157=LINE('',#374,#177);
#158=LINE('',#376,#178);
#159=LINE('',#377,#179);
#160=LINE('',#379,#180);
#161=LINE('',#382,#181);
#162=LINE('',#384,#182);
#163=LINE('',#386,#183);
#164=LINE('',#391,#184);
#165=LINE('',#395,#185);
#166=LINE('',#399,#186);
#167=LINE('',#403,#187);
#168=VECTOR('',#283,1.);
#169=VECTOR('',#284,1.);
#170=VECTOR('',#285,1.);
#171=VECTOR('',#286,1.);
#172=VECTOR('',#289,1.);
#173=VECTOR('',#290,1.);
#174=VECTOR('',#291,1.);
#175=VECTOR('',#294,1.);
#176=VECTOR('',#295,1.);
#177=VECTOR('',#296,1.);
#178=VECTOR('',#299,1.);
#179=VECTOR('',#300,1.);
#180=VECTOR('',#303,1.);
#181=VECTOR('',#304,1.);
#182=VECTOR('',#305,1.);
#183=VECTOR('',#306,1.);
#184=VECTOR('',#311,1.);
#185=VECTOR('',#314,1.);
#186=VECTOR('',#317,1.);
#187=VECTOR('',#320,1.);
#188=EDGE_LOOP('',(#32,#33,#34,#35));
#189=EDGE_LOOP('',(#36,#37,#38,#39));
#190=EDGE_LOOP('',(#40,#41,#42,#43));
#191=EDGE_LOOP('',(#44,#45,#46,#47));
#192=EDGE_LOOP('',(#48,#49,#50,#51));
#193=EDGE_LOOP('',(#52,#53,#54,#55));
#194=EDGE_LOOP('',(#56,#57,#58,#59,#60,#61,#62,#63));
#195=EDGE_LOOP('',(#64,#65,#66,#67));
#196=EDGE_LOOP('',(#68,#69,#70,#71));
#197=EDGE_LOOP('',(#72,#73,#74));
#198=EDGE_LOOP('',(#75,#76,#77));
#199=EDGE_LOOP('',(#78,#79,#80,#81));
#200=EDGE_LOOP('',(#82,#83,#84,#85));
#201=EDGE_LOOP('',(#86,#87,#88));
#202=EDGE_LOOP('',(#89,#90,#91));
#203=EDGE_LOOP('',(#92,#93,#94,#95));
#204=FACE_BOUND('',#188,.T.);
#205=FACE_BOUND('',#189,.T.);
#206=FACE_BOUND('',#190,.T.);
#207=FACE_BOUND('',#191,.T.);
#208=FACE_BOUND('',#192,.T.);
#209=FACE_BOUND('',#193,.T.);
#210=FACE_BOUND('',#194,.T.);
#211=FACE_BOUND('',#195,.T.);
#212=FACE_BOUND('',#196,.T.);
#213=FACE_BOUND('',#197,.T.);
#214=FACE_BOUND('',#198,.T.);
#215=FACE_BOUND('',#199,.T.);
#216=FACE_BOUND('',#200,.T.);
#217=FACE_BOUND('',#201,.T.);
#218=FACE_BOUND('',#202,.T.);
#219=FACE_BOUND('',#203,.T.);
#220=PLANE('',#253);
#221=PLANE('',#254);
#222=PLANE('',#255);
#223=PLANE('',#256);
#224=PLANE('',#257);
#225=PLANE('',#258);
#226=ADVANCED_FACE('',(#204),#220,.T.);
#227=ADVANCED_FACE('',(#205),#221,.F.);
#228=ADVANCED_FACE('',(#206),#222,.F.);
#229=ADVANCED_FACE('',(#207),#223,.T.);
#230=ADVANCED_FACE('',(#208,#209),#224,.T.);
#231=ADVANCED_FACE('',(#210,#211),#225,.F.);
#232=ADVANCED_FACE('',(#212),#16,.T.);
#233=ADVANCED_FACE('',(#213),#12,.T.);
#234=ADVANCED_FACE('',(#214),#13,.T.);
#235=ADVANCED_FACE('',(#215),#17,.T.);
#236=ADVANCED_FACE('',(#216),#18,.T.);
#237=ADVANCED_FACE('',(#217),#14,.T.);
#238=ADVANCED_FACE('',(#218),#15,.T.);
#239=ADVANCED_FACE('',(#219),#19,.T.);
#240=CLOSED_SHELL('',(#226,#227,#228,#229,#230,#231,#232,#233,#234,#235,
#236,#237,#238,#239));
#241=STYLED_ITEM('',(#242),#249);
#242=PRESENTATION_STYLE_ASSIGNMENT((#243));
#243=SURFACE_STYLE_USAGE(.BOTH.,#244);
#244=SURFACE_SIDE_STYLE('',(#245));
#245=SURFACE_STYLE_FILL_AREA(#246);
#246=FILL_AREA_STYLE('',(#247));
#247=FILL_AREA_STYLE_COLOUR('',#248);
#248=COLOUR_RGB('',0.647058823529412,0.647058823529412,0.647058823529412);
#249=MANIFOLD_SOLID_BREP('Top Piece',#240);
#250=SHAPE_DEFINITION_REPRESENTATION(#426,#251);
#251=SHAPE_REPRESENTATION('Top Piece',(#252),#421);
#252=AXIS2_PLACEMENT_3D('',#353,#279,#280);
#253=AXIS2_PLACEMENT_3D('',#354,#281,#282);
#254=AXIS2_PLACEMENT_3D('',#363,#287,#288);
#255=AXIS2_PLACEMENT_3D('',#369,#292,#293);
#256=AXIS2_PLACEMENT_3D('',#375,#297,#298);
#257=AXIS2_PLACEMENT_3D('',#378,#301,#302);
#258=AXIS2_PLACEMENT_3D('',#387,#307,#308);
#259=AXIS2_PLACEMENT_3D('',#388,#309,#310);
#260=AXIS2_PLACEMENT_3D('',#393,#312,#313);
#261=AXIS2_PLACEMENT_3D('',#397,#315,#316);
#262=AXIS2_PLACEMENT_3D('',#401,#318,#319);
#263=AXIS2_PLACEMENT_3D('',#404,#321,#322);
#264=AXIS2_PLACEMENT_3D('',#405,#323,#324);
#265=AXIS2_PLACEMENT_3D('',#406,#325,#326);
#266=AXIS2_PLACEMENT_3D('',#407,#327,#328);
#267=AXIS2_PLACEMENT_3D('',#408,#329,#330);
#268=AXIS2_PLACEMENT_3D('',#409,#331,#332);
#269=AXIS2_PLACEMENT_3D('',#410,#333,#334);
#270=AXIS2_PLACEMENT_3D('',#411,#335,#336);
#271=AXIS2_PLACEMENT_3D('',#412,#337,#338);
#272=AXIS2_PLACEMENT_3D('',#413,#339,#340);
#273=AXIS2_PLACEMENT_3D('',#414,#341,#342);
#274=AXIS2_PLACEMENT_3D('',#415,#343,#344);
#275=AXIS2_PLACEMENT_3D('',#416,#345,#346);
#276=AXIS2_PLACEMENT_3D('',#417,#347,#348);
#277=AXIS2_PLACEMENT_3D('',#418,#349,#350);
#278=AXIS2_PLACEMENT_3D('',#419,#351,#352);
#279=DIRECTION('',(0.,0.,1.));
#280=DIRECTION('',(1.,0.,0.));
#281=DIRECTION('',(0.,-1.,0.));
#282=DIRECTION('',(0.,0.,-1.));
#283=DIRECTION('',(-1.,0.,0.));
#284=DIRECTION('',(0.,0.,-1.));
#285=DIRECTION('',(-1.,0.,0.));
#286=DIRECTION('',(0.,0.,-1.));
#287=DIRECTION('',(1.,1.41725774181112E-16,0.));
#288=DIRECTION('',(-1.41725774181112E-16,1.,0.));
#289=DIRECTION('',(1.41725774181112E-16,-1.,0.));
#290=DIRECTION('',(0.,0.,-1.));
#291=DIRECTION('',(1.41725774181112E-16,-1.,0.));
#292=DIRECTION('',(0.,-1.,0.));
#293=DIRECTION('',(0.,0.,-1.));
#294=DIRECTION('',(-1.,0.,0.));
#295=DIRECTION('',(0.,0.,-1.));
#296=DIRECTION('',(-1.,0.,0.));
#297=DIRECTION('',(1.,1.41725774181112E-16,0.));
#298=DIRECTION('',(-1.41725774181112E-16,1.,0.));
#299=DIRECTION('',(1.41725774181112E-16,-1.,0.));
#300=DIRECTION('',(1.41725774181112E-16,-1.,0.));
#301=DIRECTION('',(0.,0.,1.));
#302=DIRECTION('',(1.,0.,0.));
#303=DIRECTION('',(-1.,-1.582415941598E-16,0.));
#304=DIRECTION('',(1.17211045674109E-16,-1.,0.));
#305=DIRECTION('',(-1.,0.,0.));
#306=DIRECTION('',(1.17211045674109E-16,-1.,0.));
#307=DIRECTION('',(0.,0.,1.));
#308=DIRECTION('',(1.,0.,0.));
#309=DIRECTION('',(0.,0.,1.));
#310=DIRECTION('',(1.,0.,0.));
#311=DIRECTION('',(1.17211045674109E-16,-1.,0.));
#312=DIRECTION('',(0.,0.,1.));
#313=DIRECTION('',(1.,0.,0.));
#314=DIRECTION('',(-1.,-1.582415941598E-16,0.));
#315=DIRECTION('',(0.,0.,1.));
#316=DIRECTION('',(1.,0.,0.));
#317=DIRECTION('',(-1.17211045674109E-16,1.,0.));
#318=DIRECTION('',(0.,0.,1.));
#319=DIRECTION('',(1.,0.,0.));
#320=DIRECTION('',(1.,0.,0.));
#321=DIRECTION('',(-1.17211045674109E-16,1.,0.));
#322=DIRECTION('',(-1.,-1.17211045674109E-16,0.));
#323=DIRECTION('',(0.,1.,0.));
#324=DIRECTION('',(0.,0.,1.));
#325=DIRECTION('',(0.,-1.,0.));
#326=DIRECTION('',(0.,0.,-1.));
#327=DIRECTION('',(0.,0.,1.));
#328=DIRECTION('',(1.,0.,0.));
#329=DIRECTION('',(1.,0.,0.));
#330=DIRECTION('',(0.,0.,-1.));
#331=DIRECTION('',(0.,0.,1.));
#332=DIRECTION('',(1.,0.,0.));
#333=DIRECTION('',(1.,0.,0.));
#334=DIRECTION('',(0.,0.,-1.));
#335=DIRECTION('',(1.,0.,0.));
#336=DIRECTION('',(0.,0.,-1.));
#337=DIRECTION('',(1.,0.,0.));
#338=DIRECTION('',(0.,0.,-1.));
#339=DIRECTION('',(-1.,-1.582415941598E-16,0.));
#340=DIRECTION('',(1.582415941598E-16,-1.,0.));
#341=DIRECTION('',(1.,0.,0.));
#342=DIRECTION('',(0.,0.,-1.));
#343=DIRECTION('',(0.,0.,1.));
#344=DIRECTION('',(1.,0.,0.));
#345=DIRECTION('',(0.,-1.,0.));
#346=DIRECTION('',(0.,0.,-1.));
#347=DIRECTION('',(0.,0.,1.));
#348=DIRECTION('',(1.,0.,0.));
#349=DIRECTION('',(0.,1.,0.));
#350=DIRECTION('',(0.,0.,1.));
#351=DIRECTION('',(1.17211045674109E-16,-1.,0.));
#352=DIRECTION('',(1.,1.17211045674109E-16,0.));
#353=CARTESIAN_POINT('',(0.,0.,0.));
#354=CARTESIAN_POINT('',(0.1933,0.05321,0.002));
#355=CARTESIAN_POINT('',(0.1933,0.05321,0.));
#356=CARTESIAN_POINT('',(0.2749,0.05321,0.));
#357=CARTESIAN_POINT('',(0.1117,0.05321,0.));
#358=CARTESIAN_POINT('',(0.2749,0.05321,0.002));
#359=CARTESIAN_POINT('',(0.2749,0.05321,0.002));
#360=CARTESIAN_POINT('',(0.1933,0.05321,0.002));
#361=CARTESIAN_POINT('',(0.1117,0.05321,0.002));
#362=CARTESIAN_POINT('',(0.1117,0.05321,0.002));
#363=CARTESIAN_POINT('',(0.2749,0.00425,0.002));
#364=CARTESIAN_POINT('',(0.2749,0.00425,0.));
#365=CARTESIAN_POINT('',(0.2749,-0.04471,0.));
#366=CARTESIAN_POINT('',(0.2749,-0.04471,0.002));
#367=CARTESIAN_POINT('',(0.2749,-0.04471,0.002));
#368=CARTESIAN_POINT('',(0.2749,0.00425,0.002));
#369=CARTESIAN_POINT('',(0.1933,-0.04471,0.002));
#370=CARTESIAN_POINT('',(0.1933,-0.04471,0.));
#371=CARTESIAN_POINT('',(0.1117,-0.04471,0.));
#372=CARTESIAN_POINT('',(0.1117,-0.04471,0.002));
#373=CARTESIAN_POINT('',(0.1117,-0.04471,0.002));
#374=CARTESIAN_POINT('',(0.1933,-0.04471,0.002));
#375=CARTESIAN_POINT('',(0.1117,0.00425,0.002));
#376=CARTESIAN_POINT('',(0.1117,0.00425,0.));
#377=CARTESIAN_POINT('',(0.1117,0.00425,0.002));
#378=CARTESIAN_POINT('',(0.1933,0.,0.002));
#379=CARTESIAN_POINT('',(0.1933,-0.0557,0.002));
#380=CARTESIAN_POINT('',(0.1091,-0.0557,0.002));
#381=CARTESIAN_POINT('',(0.2775,-0.0557,0.002));
#382=CARTESIAN_POINT('',(0.2775,9.86917004575994E-18,0.002));
#383=CARTESIAN_POINT('',(0.2775,0.0557,0.002));
#384=CARTESIAN_POINT('',(0.1091,0.0557,0.002));
#385=CARTESIAN_POINT('',(0.1091,0.0557,0.002));
#386=CARTESIAN_POINT('',(0.1091,-0.0557,0.002));
#387=CARTESIAN_POINT('',(0.1933,0.,0.));
#388=CARTESIAN_POINT('',(0.2775,0.0557,0.));
#389=CARTESIAN_POINT('',(0.2775,0.0588622776601684,0.));
#390=CARTESIAN_POINT('',(0.280662277660168,0.0557,0.));
#391=CARTESIAN_POINT('',(0.280662277660168,0.0557,0.));
#392=CARTESIAN_POINT('',(0.280662277660168,-0.0557,0.));
#393=CARTESIAN_POINT('',(0.2775,-0.0557,0.));
#394=CARTESIAN_POINT('',(0.2775,-0.0588622776601684,0.));
#395=CARTESIAN_POINT('',(0.2775,-0.0588622776601684,0.));
#396=CARTESIAN_POINT('',(0.1091,-0.0588622776601684,0.));
#397=CARTESIAN_POINT('',(0.1091,-0.0557,0.));
#398=CARTESIAN_POINT('',(0.105937722339832,-0.0557,0.));
#399=CARTESIAN_POINT('',(0.105937722339832,-0.0557,0.));
#400=CARTESIAN_POINT('',(0.105937722339832,0.0557,0.));
#401=CARTESIAN_POINT('',(0.1091,0.0557,0.));
#402=CARTESIAN_POINT('',(0.1091,0.0588622776601684,0.));
#403=CARTESIAN_POINT('',(0.1091,0.0588622776601684,0.));
#404=CARTESIAN_POINT('',(0.1091,-9.86917004575994E-18,-0.0015));
#405=CARTESIAN_POINT('',(0.1091,0.0557,-0.0015));
#406=CARTESIAN_POINT('',(0.1091,-0.0557,-0.0015));
#407=CARTESIAN_POINT('',(0.1091,0.0557,-0.0015));
#408=CARTESIAN_POINT('',(0.1091,0.0557,-0.0015));
#409=CARTESIAN_POINT('',(0.1091,-0.0557,-0.0015));
#410=CARTESIAN_POINT('',(0.1091,-0.0557,-0.0015));
#411=CARTESIAN_POINT('',(0.1933,0.0557,-0.0015));
#412=CARTESIAN_POINT('',(0.2775,0.0557,-0.0015));
#413=CARTESIAN_POINT('',(0.1933,-0.0557,-0.0015));
#414=CARTESIAN_POINT('',(0.2775,-0.0557,-0.0015));
#415=CARTESIAN_POINT('',(0.2775,0.0557,-0.0015));
#416=CARTESIAN_POINT('',(0.2775,0.0557,-0.0015));
#417=CARTESIAN_POINT('',(0.2775,-0.0557,-0.0015));
#418=CARTESIAN_POINT('',(0.2775,-0.0557,-0.0015));
#419=CARTESIAN_POINT('',(0.2775,1.34675491479551E-17,-0.0015));
#420=MECHANICAL_DESIGN_GEOMETRIC_PRESENTATION_REPRESENTATION('',(#241),
#421);
#421=(
GEOMETRIC_REPRESENTATION_CONTEXT(3)
GLOBAL_UNCERTAINTY_ASSIGNED_CONTEXT((#422))
GLOBAL_UNIT_ASSIGNED_CONTEXT((#425,#424,#423))
REPRESENTATION_CONTEXT('Top Piece','TOP_LEVEL_ASSEMBLY_PART')
);
#422=UNCERTAINTY_MEASURE_WITH_UNIT(LENGTH_MEASURE(1.E-8),#425,
'DISTANCE_ACCURACY_VALUE','Maximum Tolerance applied to model');
#423=(
NAMED_UNIT(*)
SI_UNIT($,.STERADIAN.)
SOLID_ANGLE_UNIT()
);
#424=(
NAMED_UNIT(*)
PLANE_ANGLE_UNIT()
SI_UNIT($,.RADIAN.)
);
#425=(
LENGTH_UNIT()
NAMED_UNIT(*)
SI_UNIT($,.METRE.)
);
#426=PRODUCT_DEFINITION_SHAPE('','',#427);
#427=PRODUCT_DEFINITION('','',#429,#428);
#428=PRODUCT_DEFINITION_CONTEXT('',#435,'design');
#429=PRODUCT_DEFINITION_FORMATION_WITH_SPECIFIED_SOURCE('','',#431,
 .NOT_KNOWN.);
#430=PRODUCT_RELATED_PRODUCT_CATEGORY('','',(#431));
#431=PRODUCT('Top Piece','Top Piece','Top Piece',(#433));
#432=PRODUCT_CATEGORY('','');
#433=PRODUCT_CONTEXT('',#435,'mechanical');
#434=APPLICATION_PROTOCOL_DEFINITION('international standard',
'ap242_managed_model_based_3d_engineering',2020,#435);
#435=APPLICATION_CONTEXT('managed model based 3d engineering');
ENDSEC;
END-ISO-10303-21;
